<svg width="32" height="32" viewBox="0 0 32 32" fill="none" xmlns="http://www.w3.org/2000/svg">
<g clip-path="url(#clip0_24085_395956)">
<path d="M22.9606 1.58763C20.8571 0.5705 18.4972 0 16.0041 0C13.5109 0 11.1511 0.5705 9.04756 1.58763L7.65625 16L9.04756 30.4124C11.1511 31.4295 13.5109 32 16.0041 32C18.4972 32 20.8571 31.4295 22.9606 30.4124L24.3519 16L22.9606 1.58763Z" fill="#D80027"/>
<path d="M9.0435 1.58813C3.69163 4.17607 0 9.65664 0 15.9999C0 22.3433 3.69163 27.8238 9.0435 30.4118V1.58813Z" fill="black"/>
<path d="M22.9609 1.58789V30.4115C28.3128 27.8236 32.0044 22.343 32.0044 15.9997C32.0044 9.65639 28.3128 4.17583 22.9609 1.58789Z" fill="#496E2D"/>
<path d="M16.0027 10.4348C12.9291 10.4348 10.4375 12.9264 10.4375 16C10.4375 19.0736 12.9291 21.5652 16.0027 21.5652C19.0763 21.5652 21.5679 19.0736 21.5679 16C21.5679 12.9264 19.0763 10.4348 16.0027 10.4348ZM16.0027 19.4783C14.0817 19.4783 12.5244 17.9209 12.5244 16C12.5244 14.0791 14.0818 12.5218 16.0027 12.5218C17.9236 12.5218 19.4809 14.0791 19.4809 16C19.4809 17.9209 17.9237 19.4783 16.0027 19.4783Z" fill="#FFDA44"/>
<path d="M16.0085 13.9133C15.2401 13.9133 14.6172 14.5362 14.6172 15.3047V17.3916H17.3998V15.3047C17.3998 14.5362 16.777 13.9133 16.0085 13.9133Z" fill="#FFDA44"/>
</g>
<defs>
<clipPath id="clip0_24085_395956">
<rect width="32" height="32" fill="white"/>
</clipPath>
</defs>
</svg>
