<svg width="32" height="32" viewBox="0 0 32 32" fill="none" xmlns="http://www.w3.org/2000/svg">
<path d="M16 32C24.8366 32 32 24.8366 32 16C32 7.16344 24.8366 0 16 0C7.16344 0 0 7.16344 0 16C0 24.8366 7.16344 32 16 32Z" fill="#D80027"/>
<path d="M25.0479 11.8756H19.2525C19.6103 11.501 19.8304 10.9938 19.8304 10.4348C19.8304 9.28228 18.8961 8.3479 17.7435 8.3479C17.0174 8.3479 16.3782 8.7189 16.0044 9.28146C15.6306 8.7189 14.9913 8.3479 14.2652 8.3479C13.1127 8.3479 12.1783 9.28228 12.1783 10.4348C12.1783 10.9938 12.3985 11.501 12.7562 11.8756H6.96094C6.96094 13.4124 8.2995 14.6582 9.83619 14.6582H9.74344C9.74344 16.195 10.9893 17.4408 12.5261 17.4408C12.5261 17.9386 12.6573 18.4052 12.8863 18.8092L10.5782 21.1174L12.3491 22.8882L14.8611 20.3762C14.9594 20.4123 15.0612 20.4412 15.1664 20.4609L13.6484 23.8881L16.0044 26.4348L18.3603 23.888L16.8424 20.4608C16.9476 20.4411 17.0493 20.4122 17.1477 20.3761L19.6597 22.888L21.4306 21.1172L19.1224 18.809C19.3514 18.4051 19.4826 17.9384 19.4826 17.4406C21.0194 17.4406 22.2653 16.1949 22.2653 14.658H22.1726C23.7093 14.6581 25.0479 13.4124 25.0479 11.8756Z" fill="black"/>
</svg>
