<svg width="32" height="32" viewBox="0 0 32 32" fill="none" xmlns="http://www.w3.org/2000/svg">
<g clip-path="url(#clip0_24085_396096)">
<path d="M16.001 0C24.8375 0 32.001 7.1635 32.001 16C32.001 24.8365 24.8375 32 16.001 32C16.001 31.3044 13.9141 16 13.9141 16L16.001 0Z" fill="#F0F0F0"/>
<path d="M16 32C7.1635 32 0 24.8365 0 16C0 7.1635 7.1635 0 16 0" fill="#496E2D"/>
<path d="M19.4388 12.9304L18.1261 14.7395L16 14.05L17.3149 15.8575L16.0023 17.6665L18.1275 16.9746L19.4424 18.782L19.441 16.547L21.5663 15.855L19.4403 15.1656L19.4388 12.9304Z" fill="#D80027"/>
<path d="M17.3278 20.5216C14.8305 20.5216 12.806 18.4971 12.806 15.9998C12.806 13.5026 14.8305 11.4781 17.3278 11.4781C18.1064 11.4781 18.8391 11.6749 19.4787 12.0216C18.4752 11.0403 17.103 10.4346 15.5886 10.4346C12.515 10.4346 10.0234 12.9262 10.0234 15.9998C10.0234 19.0733 12.5151 21.5649 15.5886 21.5649C17.103 21.5649 18.4753 20.9593 19.4787 19.9779C18.8391 20.3247 18.1064 20.5216 17.3278 20.5216Z" fill="#D80027"/>
</g>
<defs>
<clipPath id="clip0_24085_396096">
<rect width="32" height="32" fill="white"/>
</clipPath>
</defs>
</svg>
