<svg width="32" height="32" viewBox="0 0 32 32" fill="none" xmlns="http://www.w3.org/2000/svg">
<path d="M0 16C0 7.1635 7.1635 0 16 0C24.8365 0 32 7.1635 32 16C31.3044 16 16 18.0869 16 18.0869L0 16Z" fill="#D80027"/>
<path d="M32 16C32 24.8365 24.8365 32 16 32C7.1635 32 0 24.8365 0 16" fill="black"/>
<path d="M13.7969 12.7257L15.1533 13.7101L14.6364 15.3043L15.9918 14.3183L17.3483 15.3027L16.8294 13.7089L18.1846 12.7231L16.5087 12.7241L15.9898 11.1304L15.4728 12.7246L13.7969 12.7257Z" fill="#FFDA44"/>
<path d="M19.9953 9.07182C18.7345 8.34389 17.3559 8.00032 15.9953 8.0027V10.0892C17.001 10.0874 18.0199 10.3411 18.9518 10.8793C21.7754 12.5095 22.7464 16.133 21.116 18.9566C19.4859 21.7802 15.8624 22.7512 13.0387 21.1209C12.2161 20.646 11.5521 20.0011 11.0626 19.2569L9.32031 20.4072C9.98262 21.414 10.8824 22.2857 11.9953 22.9282C15.8156 25.1338 20.7179 23.8202 22.9234 20C25.129 16.1798 23.8155 11.2774 19.9953 9.07182Z" fill="#FFDA44"/>
<path d="M11.3814 14.6084C10.8283 15.6196 11.1997 16.8878 12.2108 17.4409L18.9889 21.1447C18.5279 21.9872 18.7727 23.0128 19.6153 23.4737L21.4462 24.4753C22.2888 24.9363 23.3457 24.6268 23.8067 23.7842L24.8082 21.9533L11.3814 14.6084Z" fill="#FFDA44"/>
</svg>
