<svg width="32" height="32" viewBox="0 0 32 32" fill="none" xmlns="http://www.w3.org/2000/svg">
<g clip-path="url(#clip0_24085_396566)">
<path d="M0 16.0001C0 17.0961 0.1105 18.1662 0.320437 19.2001L16 20.1741L31.6796 19.2001C31.8896 18.1662 32 17.0961 32 16.0001C32 14.9042 31.8895 13.8341 31.6796 12.8001L16 11.8262L0.320437 12.8001C0.1105 13.8341 0 14.9042 0 16.0001Z" fill="#0052B4"/>
<path d="M31.6795 19.2H0.320312C1.80275 26.5031 8.25931 32 15.9999 32C23.7404 32 30.197 26.5031 31.6795 19.2Z" fill="#F0F0F0"/>
<path d="M0.320312 12.8H31.6796C30.197 5.49688 23.7406 0 15.9999 0C8.25919 0 1.80275 5.49688 0.320312 12.8Z" fill="black"/>
<path d="M22.9521 12.8001H9.03906L11.8816 11.4629L10.3679 8.71013L13.4544 9.30044L13.8457 6.18237L15.9956 8.47575L18.1456 6.18237L18.5366 9.30044L21.6233 8.71013L20.1097 11.4631L22.9521 12.8001Z" fill="#FFDA44"/>
<path d="M0 16.0007C0 24.8372 7.1635 32.0007 16 32.0007L3.19975 6.40015C1.19075 9.07446 0 12.3984 0 16.0007Z" fill="#A2001D"/>
<path d="M16 32.0007C24.8365 32.0007 32 24.8372 32 16.0007C32 12.3984 30.8092 9.07446 28.8002 6.40015L16 32.0007Z" fill="#A2001D"/>
</g>
<defs>
<clipPath id="clip0_24085_396566">
<rect width="32" height="32" fill="white"/>
</clipPath>
</defs>
</svg>
