<svg width="32" height="32" viewBox="0 0 32 32" fill="none" xmlns="http://www.w3.org/2000/svg">
<path d="M16 32C24.8366 32 32 24.8366 32 16C32 7.16344 24.8366 0 16 0C7.16344 0 0 7.16344 0 16C0 24.8366 7.16344 32 16 32Z" fill="#F0F0F0"/>
<path d="M15.9983 0C9.65494 0 4.17394 3.69156 1.58594 9.0435H30.4106C27.8227 3.69156 22.3416 0 15.9983 0Z" fill="#338AF3"/>
<path d="M15.9983 32C22.3416 32 27.8227 28.3085 30.4107 22.9565H1.58594C4.17394 28.3085 9.65494 32 15.9983 32Z" fill="#338AF3"/>
<path d="M20.7831 16.0004L18.829 16.9196L19.8696 18.812L17.7477 18.4061L17.4789 20.5496L16.0009 18.9731L14.5229 20.5496L14.2541 18.4061L12.1322 18.8119L13.1727 16.9195L11.2188 16.0004L13.1728 15.0812L12.1322 13.1888L14.2541 13.5947L14.523 11.4512L16.0009 13.0277L17.4789 11.4512L17.7477 13.5947L19.8697 13.1888L18.8291 15.0812L20.7831 16.0004Z" fill="#FFDA44"/>
</svg>
