<svg width="32" height="32" viewBox="0 0 32 32" fill="none" xmlns="http://www.w3.org/2000/svg">
<path d="M32 16C32 24.8365 24.8365 32 16 32C7.1635 32 0 24.8365 0 16C0 16.0037 16 0.0018125 16 0C24.8365 0 32 7.1635 32 16Z" fill="#0052B4"/>
<path d="M15.9609 15.9998H16.0037C16.0037 15.9853 16.0037 15.9715 16.0037 15.957C15.9895 15.9713 15.9752 15.9856 15.9609 15.9998Z" fill="#F0F0F0"/>
<path d="M16 8.34928C16 5.53396 16 3.68915 16 0.00146484H15.9973C7.162 0.00290234 0 7.16571 0 16.0014H8.34781V11.3007L13.0486 16.0014H15.9572C15.9716 15.9872 15.9858 15.9729 16.0001 15.9586C16.0001 14.8807 16.0001 13.9188 16.0001 13.0501L11.2992 8.34928H16Z" fill="#F0F0F0"/>
<path d="M8.09369 2.0874C5.59125 3.51234 3.51087 5.59272 2.08594 8.09515V16.0005H6.25988V6.2614V6.26134H15.999C15.999 4.9449 15.999 3.69078 15.999 2.0874H8.09369Z" fill="#D80027"/>
<path d="M15.9959 14.0332L10.3113 8.34866H8.34375C8.34375 8.3486 8.34375 8.34866 8.34375 8.34866L15.9958 16.0007H15.9959C15.9959 16.0007 15.9959 14.6442 15.9959 14.0332Z" fill="#D80027"/>
<path d="M9.65363 18.7827L10.5318 20.6188L12.5147 20.1605L11.6267 21.9919L13.2213 23.2565L11.2359 23.704L11.2414 25.7392L9.65363 24.4659L8.06587 25.7392L8.07144 23.704L6.08594 23.2565L7.68063 21.9919L6.7925 20.1605L8.77556 20.6188L9.65363 18.7827Z" fill="#F0F0F0"/>
<path d="M23.9635 22.2612L24.4026 23.1793L25.3941 22.9501L24.95 23.8658L25.7474 24.4981L24.7546 24.7219L24.7574 25.7395L23.9635 25.1028L23.1696 25.7395L23.1724 24.7219L22.1797 24.4981L22.977 23.8658L22.533 22.9501L23.5244 23.1793L23.9635 22.2612Z" fill="#F0F0F0"/>
<path d="M19.8698 12.5215L20.3088 13.4396L21.3003 13.2104L20.8563 14.126L21.6536 14.7584L20.6609 14.9821L20.6636 15.9997L19.8698 15.363L19.0759 15.9997L19.0786 14.9821L18.0859 14.7584L18.8833 14.126L18.4393 13.2104L19.4307 13.4396L19.8698 12.5215Z" fill="#F0F0F0"/>
<path d="M23.9635 6.95654L24.4026 7.87467L25.3941 7.64548L24.9501 8.56117L25.7473 9.19342L24.7546 9.41723L24.7574 10.4349L23.9635 9.79817L23.1696 10.4349L23.1724 9.41723L22.1797 9.19342L22.9769 8.56117L22.533 7.64548L23.5244 7.87467L23.9635 6.95654Z" fill="#F0F0F0"/>
<path d="M27.5261 11.1304L27.9651 12.0485L28.9566 11.8192L28.5126 12.7349L29.3099 13.3672L28.3171 13.5911L28.3199 14.6086L27.5261 13.972L26.7322 14.6086L26.7349 13.5911L25.7422 13.3672L26.5395 12.7349L26.0955 11.8192L27.0869 12.0485L27.5261 11.1304Z" fill="#F0F0F0"/>
<path d="M24.9786 16L25.3239 17.0629H26.4415L25.5373 17.7198L25.8828 18.7826L24.9786 18.1257L24.0744 18.7826L24.4198 17.7198L23.5156 17.0629H24.6332L24.9786 16Z" fill="#F0F0F0"/>
</svg>
