<svg width="32" height="32" viewBox="0 0 32 32" fill="none" xmlns="http://www.w3.org/2000/svg">
<path d="M32 15.9999C32 14.0428 31.648 12.1679 31.0048 10.4347L16 9.73901L0.995188 10.4346C0.352063 12.1679 0 14.0428 0 15.9999C0 17.957 0.352063 19.8318 0.995188 21.5651L16 22.2607L31.0048 21.5651C31.648 19.8318 32 17.957 32 15.9999Z" fill="#D80027"/>
<path d="M16.0048 32C22.8842 32 28.7489 27.658 31.0096 21.5652H1C3.26069 27.658 9.12537 32 16.0048 32Z" fill="#6DA544"/>
<path d="M1 10.4348H31.0097C28.7489 4.342 22.8843 0 16.0048 0C9.12537 0 3.26069 4.342 1 10.4348Z" fill="#338AF3"/>
<path d="M16.3434 20.5216C13.8461 20.5216 11.8216 18.4971 11.8216 15.9998C11.8216 13.5026 13.8461 11.4781 16.3434 11.4781C17.122 11.4781 17.8547 11.6749 18.4943 12.0216C17.4908 11.0403 16.1186 10.4346 14.6043 10.4346C11.5306 10.4346 9.03906 12.9262 9.03906 15.9998C9.03906 19.0733 11.5307 21.5649 14.6043 21.5649C16.1186 21.5649 17.4909 20.9593 18.4943 19.9779C17.8547 20.3247 17.122 20.5216 16.3434 20.5216Z" fill="#F0F0F0"/>
<path d="M19.8258 12.8694L20.4247 14.5538L22.0393 13.7862L21.2718 15.4008L22.9562 15.9998L21.2718 16.5988L22.0393 18.2134L20.4247 17.4458L19.8258 19.1303L19.2269 17.4458L17.6122 18.2134L18.3798 16.5988L16.6953 15.9998L18.3798 15.4008L17.6122 13.7862L19.2269 14.5538L19.8258 12.8694Z" fill="#F0F0F0"/>
</svg>
