<svg width="32" height="32" viewBox="0 0 32 32" fill="none" xmlns="http://www.w3.org/2000/svg">
<path d="M16 32C24.8366 32 32 24.8366 32 16C32 7.16344 24.8366 0 16 0C7.16344 0 0 7.16344 0 16C0 24.8366 7.16344 32 16 32Z" fill="#F0F0F0"/>
<path d="M15.9969 0C12.7859 0 9.79644 0.946563 7.29069 2.57488L11.4056 5.33294L6.25781 7.99956L11.4056 10.6662L6.25781 13.3328L11.4056 15.9991L6.25781 18.6657L11.4056 21.3323L6.25781 23.9991L11.4056 26.6658L7.29019 29.4247C9.79606 31.0533 12.7857 32 15.9969 32C24.8334 32 31.9969 24.8365 31.9969 16C31.9969 7.1635 24.8334 0 15.9969 0Z" fill="#D80027"/>
</svg>
