<svg width="32" height="32" viewBox="0 0 32 32" fill="none" xmlns="http://www.w3.org/2000/svg">
<g clip-path="url(#clip0_24085_395243)">
<path d="M22.9606 1.58763C20.8571 0.5705 18.4972 0 16.0041 0C13.5109 0 11.1511 0.5705 9.04756 1.58763L7.65625 16L9.04756 30.4124C11.1511 31.4295 13.5109 32 16.0041 32C18.4972 32 20.8571 31.4295 22.9606 30.4124L24.3519 16L22.9606 1.58763Z" fill="#FFDA44"/>
<path d="M9.0435 1.58838C3.69163 4.17625 0 9.65682 0 16.0002C0 22.3436 3.69163 27.8241 9.0435 30.412V1.58838Z" fill="#0052B4"/>
<path d="M22.9609 1.58838V30.412C28.3128 27.8241 32.0044 22.3435 32.0044 16.0002C32.0044 9.65688 28.3128 4.17625 22.9609 1.58838Z" fill="#0052B4"/>
<path d="M20.8677 9.73921L21.801 10.2058L20.8677 9.73921L19.9344 9.27259C19.8781 9.38515 18.6594 11.8647 18.4604 15.6523H17.0417V9.73921L15.9982 8.3479L14.9547 9.73921V15.6523H13.536C13.3369 11.8647 12.1182 9.38515 12.0619 9.27259L10.1953 10.2059C10.2082 10.2315 11.4765 12.8131 11.4765 16.6958V17.7393H14.9547V23.6523H17.0417V17.7393H20.5199V16.6957C20.5199 14.6883 20.8672 13.0331 21.1587 11.998C21.4764 10.8692 21.799 10.21 21.8022 10.2035L20.8677 9.73921Z" fill="black"/>
</g>
<defs>
<clipPath id="clip0_24085_395243">
<rect width="32" height="32" fill="white"/>
</clipPath>
</defs>
</svg>
