<svg width="32" height="32" viewBox="0 0 32 32" fill="none" xmlns="http://www.w3.org/2000/svg">
<g clip-path="url(#clip0_24085_395759)">
<path d="M16 32C24.8366 32 32 24.8366 32 16C32 7.16344 24.8366 0 16 0C7.16344 0 0 7.16344 0 16C0 24.8366 7.16344 32 16 32Z" fill="#FCFCFC"/>
<path d="M6.61412 14.8407L4.875 11.6855L6.61412 8.57983L8.35324 11.6855L6.61412 14.8407Z" fill="#A2001D"/>
<path d="M3.13756 14.8407L1.39844 11.6855L3.13756 8.57983L4.87669 11.6855L3.13756 14.8407Z" fill="#A2001D"/>
<path d="M6.61412 23.4208L4.875 20.2656L6.61412 17.1599L8.35324 20.2656L6.61412 23.4208Z" fill="#A2001D"/>
<path d="M3.13756 23.4208L1.39844 20.2656L3.13756 17.1599L4.87669 20.2656L3.13756 23.4208Z" fill="#A2001D"/>
<path d="M8.35763 3.10581L7.86525 2.22656C6.98212 2.74981 6.15381 3.35562 5.39062 4.03338L6.6185 6.26094L8.35763 3.10581Z" fill="#A2001D"/>
<path d="M6.61587 25.739L5.375 27.955C6.1375 28.6336 6.96525 29.2404 7.84799 29.7647L8.35505 28.8448L6.61587 25.739Z" fill="#A2001D"/>
<path d="M9.74219 20.1738V30.7277C11.6652 31.5463 13.7811 31.9999 16.0031 31.9999C22.8825 31.9999 28.7472 27.6579 31.0079 21.5651L9.74219 20.1738Z" fill="#6DA544"/>
<path d="M31.0079 21.5652C31.6511 19.8319 32.0031 17.9571 32.0031 16C32.0031 7.1635 24.8396 0 16.0031 0C13.7812 0 11.6652 0.453313 9.74219 1.27175V21.5653H31.0079V21.5652Z" fill="#A2001D"/>
</g>
<defs>
<clipPath id="clip0_24085_395759">
<rect width="32" height="32" fill="white"/>
</clipPath>
</defs>
</svg>
