<svg width="32" height="32" viewBox="0 0 32 32" fill="none" xmlns="http://www.w3.org/2000/svg">
<path d="M32 16C32 10.5087 29.2332 5.6641 25.0179 2.7826L16 2.08691L6.98206 2.78254C2.76687 5.6641 0 10.5087 0 16C0 21.4914 2.76687 26.3359 6.98206 29.2174L16 29.913L25.0179 29.2174C29.2332 26.3359 32 21.4914 32 16Z" fill="#0052B4"/>
<path d="M25.0124 2.78262C22.4446 1.02725 19.3398 0 15.9945 0C12.6493 0 9.54437 1.02725 6.97656 2.78262H25.0124Z" fill="#A2001D"/>
<path d="M6.97656 29.2173C9.54431 30.9727 12.6493 31.9999 15.9945 31.9999C19.3398 31.9999 22.4446 30.9727 25.0124 29.2173H6.97656Z" fill="#A2001D"/>
<path d="M15.9959 23.6523C20.2221 23.6523 23.6481 20.2263 23.6481 16.0001C23.6481 11.7739 20.2221 8.3479 15.9959 8.3479C11.7698 8.3479 8.34375 11.7739 8.34375 16.0001C8.34375 20.2263 11.7698 23.6523 15.9959 23.6523Z" fill="#F0F0F0"/>
<path d="M16.0031 22.2607C19.4608 22.2607 22.2639 19.4577 22.2639 15.9999C22.2639 12.5421 19.4608 9.73901 16.0031 9.73901C12.5453 9.73901 9.74219 12.5421 9.74219 15.9999C9.74219 19.4577 12.5453 22.2607 16.0031 22.2607Z" fill="#6DA544"/>
<path d="M15.9943 20.1741C18.2995 20.1741 20.1682 18.3053 20.1682 16.0001C20.1682 13.6949 18.2995 11.8262 15.9943 11.8262C13.6891 11.8262 11.8203 13.6949 11.8203 16.0001C11.8203 18.3053 13.6891 20.1741 15.9943 20.1741Z" fill="#F0F0F0"/>
<path d="M16.0031 14.9563L13.7422 15.9998V17.7389L16.0031 19.1302L18.2639 17.7389V15.9998L16.0031 14.9563Z" fill="#0052B4"/>
<path d="M18.2639 13.9131H13.7422V16H18.2639V13.9131Z" fill="#FFDA44"/>
</svg>
