<svg width="32" height="32" viewBox="0 0 32 32" fill="none" xmlns="http://www.w3.org/2000/svg">
<g clip-path="url(#clip0_24085_394422)">
<path d="M27.3137 27.3138C21.0653 33.5622 10.9347 33.5622 4.68628 27.3138C-1.56209 21.0654 -1.56209 10.9347 4.68628 4.6863C4.68853 4.6863 19.0649 0.438363 25.3133 6.68674C31.5618 12.9351 27.318 27.3094 27.3137 27.3138Z" fill="#FFDA44"/>
<path d="M27.3149 27.3123C33.5633 21.064 33.5633 10.9333 27.3149 4.68484C21.0666 -1.5636 10.9359 -1.56354 4.6875 4.68484L27.3149 27.3123Z" fill="#D80027"/>
<path d="M20.1777 20.184C19.5205 20.4421 18.7568 20.4147 18.0942 20.0429C16.9236 19.3859 16.5057 17.8988 17.1629 16.728L16.9634 16.6161C18.9679 16.1328 20.4508 14.3134 20.4248 12.1664C20.4087 10.8316 19.8122 9.63744 18.8793 8.82031L17.4185 10.3169C17.9707 10.7571 18.3288 11.4322 18.338 12.1917C18.3542 13.5342 17.2754 14.6397 15.9329 14.6559L15.9357 14.8844C14.5149 13.3903 12.1979 13.0157 10.3516 14.1117C9.20375 14.7932 8.46787 15.9067 8.22656 17.1233L10.2531 17.6402C10.3581 16.9418 10.7637 16.2942 11.4169 15.9064C12.5713 15.2211 14.0681 15.6028 14.7534 16.7572L14.9501 16.6405C14.3665 18.6179 15.2006 20.8118 17.073 21.8628C18.2371 22.5162 19.5694 22.5967 20.7436 22.1974L20.1777 20.184ZM15.9497 16.0469L15.9496 16.0469L15.9497 16.0469Z" fill="#FF9811"/>
<path d="M21.9223 10.8357L20.7914 14.8714L17.3983 14.2449L15.2142 9.74268L9.31375 11.8365L8.84844 10.5252L7.30469 10.3351L8.46788 13.6131L12.5284 12.5746L13.6824 15.8264L10.8754 19.969L15.6389 24.0319L14.736 25.0904L15.3432 26.5226L17.6006 23.8761L14.6709 20.8788L16.9101 18.2536L21.9013 18.6132L23.0381 12.4564L24.4062 12.7091L25.3431 11.4672L21.9223 10.8357ZM15.997 16.1083V16.1084V16.1083Z" fill="#FFEACF"/>
</g>
<defs>
<clipPath id="clip0_24085_394422">
<rect width="32" height="32" fill="white"/>
</clipPath>
</defs>
</svg>
