<svg width="32" height="32" viewBox="0 0 32 32" fill="none" xmlns="http://www.w3.org/2000/svg">
<path d="M32 15.9996C32 14.0425 31.648 12.1677 31.0048 10.4345L16 9.73877L0.995188 10.4344C0.352 12.1677 0 14.0425 0 15.9996C0 17.9568 0.352 19.8316 0.995188 21.5648L16 22.2605L31.0048 21.5649C31.648 19.8316 32 17.9568 32 15.9996Z" fill="#FFDA44"/>
<path d="M16.0048 31.9998C22.8842 31.9998 28.7489 27.6578 31.0096 21.5649H1C3.26069 27.6578 9.12537 31.9998 16.0048 31.9998Z" fill="#6DA544"/>
<path d="M1 10.4348H31.0097C28.7489 4.342 22.8843 0 16.0048 0C9.12537 0 3.26069 4.342 1 10.4348Z" fill="#D80027"/>
</svg>
