<svg width="32" height="32" viewBox="0 0 32 32" fill="none" xmlns="http://www.w3.org/2000/svg">
<g clip-path="url(#clip0_24085_395722)">
<path d="M16 32C24.8366 32 32 24.8366 32 16C32 7.16344 24.8366 0 16 0C7.16344 0 0 7.16344 0 16C0 24.8366 7.16344 32 16 32Z" fill="#F0F0F0"/>
<path d="M15.9972 0C10.3241 0 5.341 2.95269 2.5 7.40494L24.1974 29.7406C28.8689 26.9467 31.9972 21.8389 31.9972 16C31.9972 7.1635 24.8337 0 15.9972 0Z" fill="#FFDA44"/>
<path d="M31.9943 16.0004C31.9943 11.849 30.4131 8.06726 27.8203 5.22363V26.7772C30.4131 23.9335 31.9943 20.1518 31.9943 16.0004Z" fill="#0052B4"/>
<path d="M19.9868 30.1177L21.6627 30.1166L22.1797 28.5223L22.6986 30.116L23.5392 30.1155C24.0547 29.8395 24.5532 29.5363 25.033 29.2074L2.79306 6.96753C2.42656 7.50228 2.09231 8.06065 1.79175 8.6394L1.98937 9.2464L3.66531 9.24534L2.31006 10.2313L2.82894 11.825L1.47244 10.8407L0.663375 11.4292C0.232063 12.8777 0 14.412 0 16.0006C0 24.8371 7.1635 32.0006 16 32.0006C17.8682 32.0006 19.6614 31.6798 21.3281 31.0911L19.9868 30.1177ZM3.56869 15.305L4.08556 13.7107L2.72919 12.7263L4.40512 12.7253L4.92206 11.131L5.44094 12.7247L7.11687 12.7236L5.76156 13.7095L6.28044 15.3032L4.92394 14.319L3.56869 15.305ZM7.02025 18.7832L7.53712 17.189L6.18075 16.2046L7.85669 16.2035L8.37362 14.6092L8.8925 16.2029L10.5684 16.2018L9.21319 17.1878L9.73206 18.7815L8.37556 17.7972L7.02025 18.7832ZM10.4717 22.2615L10.9886 20.6672L9.63225 19.6828L11.3082 19.6818L11.8251 18.0875L12.344 19.6812L14.0199 19.6801L12.6647 20.666L13.1836 22.2597L11.8271 21.2753L10.4717 22.2615ZM15.2786 24.7538L13.9232 25.7397L14.4401 24.1455L13.0837 23.1611L14.7597 23.16L15.2767 21.5657L15.7956 23.1594L17.4715 23.1583L16.1162 24.1443L16.6351 25.738L15.2786 24.7538ZM17.3748 29.218L17.8917 27.6237L16.5353 26.6393L18.2112 26.6383L18.7282 25.044L19.2471 26.6377L20.923 26.6366L19.5677 27.6225L20.0866 29.2162L18.7301 28.2318L17.3748 29.218Z" fill="#0052B4"/>
</g>
<defs>
<clipPath id="clip0_24085_395722">
<rect width="32" height="32" fill="white"/>
</clipPath>
</defs>
</svg>
