<svg width="32" height="32" viewBox="0 0 32 32" fill="none" xmlns="http://www.w3.org/2000/svg">
<path d="M0.7555 11.1302C0.265375 12.6658 -6.2489e-05 14.3016 1.10347e-08 15.9998C-6.2489e-05 17.6978 0.265375 19.3337 0.755563 20.8693L16 21.5651L31.2444 20.8693C31.7344 19.3337 31.9999 17.6978 31.9999 15.9998C31.9999 14.3017 31.7345 12.6658 31.2444 11.1302L15.9999 10.4346L0.7555 11.1302Z" fill="#F0F0F0"/>
<path d="M32 16.0005C32 15.0513 31.9169 14.1215 31.7583 13.2178H0.24175C0.083125 14.1215 0 15.0511 0 16.0004C0 16.9496 0.0831875 17.8793 0.24175 18.783H31.7583C31.9168 17.8792 32 16.9496 32 16.0005Z" fill="black"/>
<path d="M16.0023 31.9996C23.1408 31.9996 29.1864 27.3245 31.2466 20.8691H0.757812C2.81813 27.3244 8.86381 31.9995 16.0023 31.9996Z" fill="#338AF3"/>
<path d="M16.0023 0.00122071C8.86388 0.00122071 2.81825 4.67641 0.757812 11.1315L31.2466 11.1316C29.1864 4.67641 23.1407 0.00109571 16.0023 0.00122071Z" fill="#338AF3"/>
</svg>
