<svg width="32" height="32" viewBox="0 0 32 32" fill="none" xmlns="http://www.w3.org/2000/svg">
<path d="M16 32C24.8366 32 32 24.8366 32 16C32 7.16344 24.8366 0 16 0C7.16344 0 0 7.16344 0 16C0 24.8366 7.16344 32 16 32Z" fill="#6DA544"/>
<path d="M15.9986 6.26123L29.216 16.0004L15.9986 25.7395L2.78125 16.0004L15.9986 6.26123Z" fill="#FFDA44"/>
<path d="M16.0027 21.5654C19.0763 21.5654 21.5679 19.0738 21.5679 16.0002C21.5679 12.9267 19.0763 10.4351 16.0027 10.4351C12.9291 10.4351 10.4375 12.9267 10.4375 16.0002C10.4375 19.0738 12.9291 21.5654 16.0027 21.5654Z" fill="#F0F0F0"/>
<path d="M13.2183 15.6523C12.2506 15.6523 11.3166 15.7995 10.4375 16.0727C10.4764 19.1127 12.9517 21.5654 16.0009 21.5654C17.8864 21.5654 19.5517 20.6268 20.5584 19.1924C18.836 17.0363 16.186 15.6523 13.2183 15.6523Z" fill="#0052B4"/>
<path d="M21.4589 17.0665C21.5259 16.7212 21.5621 16.3651 21.5621 16.0002C21.5621 12.9266 19.0705 10.4351 15.9969 10.4351C13.7036 10.4351 11.7348 11.8226 10.8828 13.8037C11.6359 13.6477 12.4157 13.5655 13.2144 13.5655C16.4467 13.5654 19.3708 14.9091 21.4589 17.0665Z" fill="#0052B4"/>
</svg>
