<svg width="32" height="32" viewBox="0 0 32 32" fill="none" xmlns="http://www.w3.org/2000/svg">
<path d="M15.9977 31.9975C24.8329 31.9975 31.9953 24.8351 31.9953 15.9999C31.9953 7.16459 24.8329 0.00219727 15.9977 0.00219727C7.16239 0.00219727 0 7.16459 0 15.9999C0 24.8351 7.16239 31.9975 15.9977 31.9975Z" fill="#F0F0F0"/>
<path d="M2.14066 8.00171C1.41858 9.25224 0.885945 10.5596 0.53125 11.8914L27.2854 27.338C28.2614 26.3649 29.1274 25.2498 29.8493 23.9994L2.14066 8.00171Z" fill="black"/>
<path d="M24.0003 2.14561C17.5991 -1.55004 9.70648 -0.318322 4.71094 4.66253L31.4651 20.1091C33.281 13.2925 30.4013 5.84131 24.0003 2.14561Z" fill="#FFDA44"/>
<path d="M8.0004 29.8542C14.4014 33.5498 22.2943 32.3181 27.2897 27.3373L0.535431 11.8906C-1.2803 18.7073 1.59927 26.1585 8.0004 29.8542Z" fill="#FFDA44"/>
<path d="M20.523 14.2615C20.523 16.7584 18.4989 18.7826 16.0019 18.7826C13.505 18.7826 11.4808 16.7584 11.4808 14.2615C11.4808 13.483 11.6777 12.7504 12.0243 12.1108C11.0432 13.1142 10.4375 14.4862 10.4375 16.0004C10.4375 19.0735 12.9287 21.5648 16.0019 21.5648C19.0751 21.5648 21.5664 19.0736 21.5664 16.0004C21.5664 14.4862 20.9607 13.1142 19.9796 12.1108C20.3262 12.7505 20.523 13.483 20.523 14.2615Z" fill="#D80027"/>
<path d="M17.0476 9.04468H14.9609V19.4779H17.0476V9.04468Z" fill="#D80027"/>
<path d="M19.4789 11.1316H12.5234C12.5234 11.6118 12.9418 12.001 13.4219 12.001H13.3929C13.3929 12.4812 13.7822 12.8705 14.2624 12.8705C14.2624 13.3507 14.6517 13.74 15.1318 13.74H16.8707C17.3509 13.74 17.7401 13.3507 17.7401 12.8705C18.2203 12.8705 18.6096 12.4812 18.6096 12.001H18.5806C19.0606 12.001 19.4789 11.6119 19.4789 11.1316Z" fill="#D80027"/>
<path d="M20.8784 20.1738H11.1406V22.2605H20.8784V20.1738Z" fill="#D80027"/>
<path d="M22.2592 20.8696H18.0859V22.9563H22.2592V20.8696Z" fill="#D80027"/>
<path d="M13.9155 20.8696H9.74219V22.9563H13.9155V20.8696Z" fill="#D80027"/>
</svg>
