<svg width="32" height="32" viewBox="0 0 32 32" fill="none" xmlns="http://www.w3.org/2000/svg">
<path d="M32 15.9999C32 14.0428 31.648 12.1679 31.0048 10.4347L16 9.73901L0.995188 10.4346C0.352063 12.1679 0 14.0428 0 15.9999C0 17.957 0.352063 19.8318 0.995188 21.5651L16 22.2607L31.0048 21.5651C31.648 19.8318 32 17.957 32 15.9999Z" fill="#496E2D"/>
<path d="M16.0048 32C22.8842 32 28.7489 27.658 31.0096 21.5652H1C3.26069 27.658 9.12537 32 16.0048 32Z" fill="#D80027"/>
<path d="M1 10.4348H31.0097C28.7489 4.342 22.8843 0 16.0048 0C9.12537 0 3.26069 4.342 1 10.4348Z" fill="#F0F0F0"/>
</svg>
