<svg width="32" height="32" viewBox="0 0 32 32" fill="none" xmlns="http://www.w3.org/2000/svg">
<path d="M16 32C24.8366 32 32 24.8366 32 16C32 7.16344 24.8366 0 16 0C7.16344 0 0 7.16344 0 16C0 24.8366 7.16344 32 16 32Z" fill="#F0F0F0"/>
<path d="M25.7423 3.30665C20.0141 -1.10123 11.9861 -1.10123 6.25781 3.30658L16.0001 13.0488L25.7423 3.30665Z" fill="#D80027"/>
<path d="M15.9999 18.9518L6.25781 28.6939C11.9861 33.1018 20.0141 33.1018 25.7423 28.6939L16.0001 18.9517L15.9999 18.9518Z" fill="#D80027"/>
<path d="M13.0481 16.0001L3.30591 6.25781C-1.10197 11.9861 -1.10197 20.0141 3.30591 25.7423L13.0481 16.0001Z" fill="#6DA544"/>
<path d="M18.9453 16.0001L28.6874 25.7423C33.0953 20.0141 33.0953 11.9861 28.6874 6.25781L18.9453 16.0001Z" fill="#6DA544"/>
<path d="M15.9956 22.9562C19.8375 22.9562 22.9521 19.8417 22.9521 15.9997C22.9521 12.1577 19.8375 9.04321 15.9956 9.04321C12.1536 9.04321 9.03906 12.1577 9.03906 15.9997C9.03906 19.8417 12.1536 22.9562 15.9956 22.9562Z" fill="#F0F0F0"/>
<path d="M16.0026 11.1306L16.605 12.1741H17.81L17.2075 13.2176L17.81 14.2611H16.605L16.0026 15.3046L15.4002 14.2611H14.1953L14.7977 13.2176L14.1953 12.1741H15.4002L16.0026 11.1306Z" fill="#D80027"/>
<path d="M12.9402 16L13.5426 17.0435H14.7475L14.1451 18.0869L14.7475 19.1304H13.5426L12.9402 20.1739L12.3377 19.1304H11.1328L11.7352 18.0869L11.1328 17.0435H12.3377L12.9402 16Z" fill="#D80027"/>
<path d="M19.0652 16L19.6676 17.0435H20.8725L20.2701 18.0869L20.8725 19.1304H19.6676L19.0652 20.1739L18.4627 19.1304H17.2578L17.8603 18.0869L17.2578 17.0435H18.4627L19.0652 16Z" fill="#D80027"/>
</svg>
