<svg width="32" height="32" viewBox="0 0 32 32" fill="none" xmlns="http://www.w3.org/2000/svg">
<path d="M0 16.0003C0 18.7722 0.705188 21.3793 1.94544 23.6525L16 25.0438L30.0546 23.6525C31.2948 21.3793 32 18.7722 32 16.0003C32 13.2284 31.2948 10.6213 30.0546 8.3481L16 6.95679L1.94544 8.3481C0.705188 10.6213 0 13.2284 0 16.0003Z" fill="#D80027"/>
<path d="M1.94531 8.34781H30.0544C27.3407 3.37431 22.0646 0 15.9999 0C9.93519 0 4.659 3.37431 1.94531 8.34781Z" fill="#0052B4"/>
<path d="M15.9999 31.9999C22.0646 31.9999 27.3407 28.6256 30.0544 23.6521H1.94531C4.659 28.6256 9.93519 31.9999 15.9999 31.9999Z" fill="#0052B4"/>
<path d="M21.5608 19.1304V17.0435H20.1695V14.2609L18.7782 12.8695L17.3869 14.2609V11.4782L15.9956 10.0869L14.6043 11.4782V14.2609L13.2129 12.8695L11.8216 14.2609V17.0435H10.4304V19.1304H9.03906V21.2174H22.9521V19.1304H21.5608Z" fill="#F0F0F0"/>
</svg>
