<svg width="32" height="32" viewBox="0 0 32 32" fill="none" xmlns="http://www.w3.org/2000/svg">
<g clip-path="url(#clip0_24085_395492)">
<path d="M22.9606 1.58763C20.8571 0.5705 18.4972 0 16.0041 0C13.5109 0 11.1511 0.5705 9.04756 1.58763L7.65625 16L9.04756 30.4124C11.1511 31.4295 13.5109 32 16.0041 32C18.4972 32 20.8571 31.4295 22.9606 30.4124L24.3519 16L22.9606 1.58763Z" fill="#D80027"/>
<path d="M15.9999 10.4348L17.3812 14.686H21.8517L18.2352 17.3138L19.6165 21.5652L15.9999 18.9376L12.3834 21.5652L13.7649 17.3138L10.1484 14.686H14.6186L15.9999 10.4348Z" fill="#FFDA44"/>
<path d="M9.0435 1.58813C3.69163 4.17601 0 9.65657 0 15.9999C0 22.3433 3.69163 27.8239 9.0435 30.4118V1.58813Z" fill="#496E2D"/>
<path d="M22.9609 1.58789V30.4115C28.3128 27.8236 32.0044 22.343 32.0044 15.9997C32.0044 9.65639 28.3128 4.17577 22.9609 1.58789Z" fill="#FFDA44"/>
</g>
<defs>
<clipPath id="clip0_24085_395492">
<rect width="32" height="32" fill="white"/>
</clipPath>
</defs>
</svg>
