<svg width="32" height="32" viewBox="0 0 32 32" fill="none" xmlns="http://www.w3.org/2000/svg">
<g clip-path="url(#clip0_24085_394638)">
<path d="M16 32C24.8366 32 32 24.8366 32 16C32 7.16344 24.8366 0 16 0C7.16344 0 0 7.16344 0 16C0 24.8366 7.16344 32 16 32Z" fill="#F0F0F0"/>
<path d="M32.0044 16.0003C32.0044 9.65689 28.3129 4.17589 22.9609 1.58789V30.4126C28.3129 27.8246 32.0044 22.3436 32.0044 16.0003Z" fill="#D80027"/>
<path d="M0 16.0003C0 22.3436 3.69156 27.8246 9.0435 30.4126V1.58789C3.69156 4.17589 0 9.65689 0 16.0003Z" fill="#D80027"/>
<path d="M18.7853 18.0874L21.5679 16.696L20.1766 16.0004V14.6091L17.394 16.0004L18.7853 13.2178H17.394L16.0027 11.1309L14.6114 13.2178H13.2201L14.6114 16.0004L11.8287 14.6091V16.0004L10.4375 16.696L13.2201 18.0874L12.5244 19.4787H15.3071V21.5656H16.6983V19.4787H19.4809L18.7853 18.0874Z" fill="#D80027"/>
</g>
<defs>
<clipPath id="clip0_24085_394638">
<rect width="32" height="32" fill="white"/>
</clipPath>
</defs>
</svg>
