<svg width="32" height="32" viewBox="0 0 32 32" fill="none" xmlns="http://www.w3.org/2000/svg">
<g clip-path="url(#clip0_24085_396532)">
<path d="M16 32C24.8366 32 32 24.8366 32 16C32 7.16344 24.8366 0 16 0C7.16344 0 0 7.16344 0 16C0 24.8366 7.16344 32 16 32Z" fill="#F0F0F0"/>
<path d="M16.0038 32C20.8532 32 25.1984 29.8423 28.1326 26.4348H3.875C6.80919 29.8423 11.1544 32 16.0038 32Z" fill="#0052B4"/>
<path d="M32 16C32 7.1635 24.8365 0 16 0C7.1635 0 0 7.1635 0 16C0 17.4442 0.1925 18.8431 0.551188 20.1739H31.4489C31.8075 18.8431 32 17.4442 32 16Z" fill="#0052B4"/>
<path d="M1.27344 22.261C1.58187 22.9857 1.94244 23.6827 2.35012 24.3479H29.6534C30.0609 23.6827 30.4215 22.9857 30.7301 22.261H1.27344Z" fill="#D80027"/>
<path d="M11.4253 17.0432L11.6842 17.8403H12.5224L11.8444 18.333L12.1034 19.1301L11.4253 18.6375L10.7471 19.1301L11.0062 18.333L10.3281 17.8403H11.1663L11.4253 17.0432Z" fill="#FFDA44"/>
<path d="M11.4253 27.4778L11.6842 28.275H12.5224L11.8444 28.7676L12.1034 29.5647L11.4253 29.0721L10.7471 29.5647L11.0062 28.7676L10.3281 28.275H11.1663L11.4253 27.4778Z" fill="#FFDA44"/>
<path d="M6.57369 23.9487L6.83269 24.7458H7.67088L6.99281 25.2384L7.25181 26.0357L6.57369 25.543L5.89556 26.0357L6.15469 25.2384L5.47656 24.7458H6.31469L6.57369 23.9487Z" fill="#FFDA44"/>
<path d="M8.42531 18.0862L8.68431 18.8834H9.52243L8.84443 19.376L9.10343 20.1732L8.42531 19.6805L7.74719 20.1732L8.00631 19.376L7.32812 18.8834H8.16631L8.42531 18.0862Z" fill="#FFDA44"/>
<path d="M5.47656 21.3695L6.31456 21.3696L6.57363 20.5723L6.83269 21.3695L7.67088 21.3695L6.99275 21.8621L7.25181 22.6593L6.57363 22.1666L5.89556 22.6591L6.15456 21.8621L5.47656 21.3695Z" fill="#FFDA44"/>
<path d="M7.74731 28.369L8.00631 27.572L7.32812 27.0794H8.16631L8.42537 26.2822L8.68444 27.0794H9.52256L8.84444 27.572L9.10344 28.3692L8.42531 27.8765L7.74731 28.369Z" fill="#FFDA44"/>
<path d="M16.2846 23.9487L16.0257 24.7458H15.1875L15.8655 25.2384L15.6065 26.0357L16.2846 25.543L16.9627 26.0357L16.7037 25.2384L17.3818 24.7458H16.5436L16.2846 23.9487Z" fill="#FFDA44"/>
<path d="M14.4253 18.0862L14.1663 18.8834H13.3281L14.0061 19.376L13.7471 20.1732L14.4253 19.6805L15.1034 20.1732L14.8443 19.376L15.5224 18.8834H14.6842L14.4253 18.0862Z" fill="#FFDA44"/>
<path d="M17.3818 21.3695L16.5437 21.3696L16.2847 20.5723L16.0257 21.3695L15.1875 21.3695L15.8656 21.8621L15.6065 22.6593L16.2847 22.1666L16.9627 22.6591L16.7037 21.8621L17.3818 21.3695Z" fill="#FFDA44"/>
<path d="M15.1034 28.369L14.8444 27.572L15.5226 27.0794H14.6844L14.4253 26.2822L14.1663 27.0794H13.3281L14.0063 27.572L13.7473 28.3692L14.4254 27.8765L15.1034 28.369Z" fill="#FFDA44"/>
</g>
<defs>
<clipPath id="clip0_24085_396532">
<rect width="32" height="32" fill="white"/>
</clipPath>
</defs>
</svg>
