<svg width="32" height="32" viewBox="0 0 32 32" fill="none" xmlns="http://www.w3.org/2000/svg">
<path d="M16 32C24.8366 32 32 24.8366 32 16C32 7.16344 24.8366 0 16 0C7.16344 0 0 7.16344 0 16C0 24.8366 7.16344 32 16 32Z" fill="#F0F0F0"/>
<path d="M32 15.9998C32 24.8363 24.8365 31.9998 16 31.9998C7.1635 31.9998 0 24.8363 0 15.9998C0 7.16334 16 15.9998 16 15.9998C16 15.9998 28.1101 15.9998 32 15.9998Z" fill="#D80027"/>
<path d="M0 16C0 7.1635 7.1635 0 16 0C16 6.08469 16 16 16 16C16 16 5.56519 16 0 16Z" fill="#0052B4"/>
<path d="M9.52156 5.56519L10.5576 8.75381H13.9103L11.1979 10.7244L12.2339 13.9131L9.52156 11.9424L6.80919 13.9131L7.84519 10.7244L5.13281 8.75381H8.4855L9.52156 5.56519Z" fill="#F0F0F0"/>
</svg>
