<svg width="32" height="32" viewBox="0 0 32 32" fill="none" xmlns="http://www.w3.org/2000/svg">
<path d="M16 32C24.8366 32 32 24.8366 32 16C32 7.16344 24.8366 0 16 0C7.16344 0 0 7.16344 0 16C0 24.8366 7.16344 32 16 32Z" fill="#D80027"/>
<path d="M8.75625 9.73779L10.1375 13.9878H14.6062L10.9937 16.619L12.375 20.869L8.75625 18.244L5.1375 20.869L6.525 16.619L2.90625 13.9878H7.375L8.75625 9.73779Z" fill="#FFDA44"/>
<path d="M18.9641 24.7814L17.9078 23.4814L16.3453 24.0876L17.2516 22.6814L16.1953 21.3751L17.8141 21.8064L18.7266 20.4001L18.8141 22.0751L20.439 22.5064L18.8703 23.1064L18.9641 24.7814Z" fill="#FFDA44"/>
<path d="M21.0641 20.9689L21.5641 19.3689L20.1953 18.4001L21.8703 18.3751L22.3641 16.7751L22.9078 18.3626L24.5828 18.3439L23.2391 19.3439L23.7766 20.9314L22.4078 19.9626L21.0641 20.9689Z" fill="#FFDA44"/>
<path d="M23.9047 11.7439L23.1672 13.2502L24.3672 14.4189L22.7109 14.1814L21.9734 15.6814L21.6859 14.0314L20.0234 13.7939L21.5109 13.0127L21.2234 11.3564L22.4234 12.5252L23.9047 11.7439Z" fill="#FFDA44"/>
<path d="M19.0109 7.1814L18.8859 8.85015L20.4422 9.4814L18.8109 9.8814L18.6922 11.5564L17.8109 10.1314L16.1797 10.5314L17.2609 9.25015L16.3734 7.8314L17.9297 8.46265L19.0109 7.1814Z" fill="#FFDA44"/>
</svg>
