<svg width="32" height="32" viewBox="0 0 32 32" fill="none" xmlns="http://www.w3.org/2000/svg">
<path d="M16 32C24.8366 32 32 24.8366 32 16C32 7.16344 24.8366 0 16 0C7.16344 0 0 7.16344 0 16C0 24.8366 7.16344 32 16 32Z" fill="#F0F0F0"/>
<path d="M31.9966 15.9541H14.6522C11.2086 19.3977 9.12625 22.0563 7 24.1825L16.0435 24.9975L30.0769 23.6062C31.3016 21.344 31.9971 18.7535 31.9971 16.0004C31.9971 15.9849 31.9966 15.9696 31.9966 15.9541Z" fill="#D80027"/>
<path d="M7.00362 8.3015H30.0294C27.3083 3.3535 22.0464 0 16.0007 0C11.5941 0 7.60437 1.78194 4.71094 4.664L7.00362 8.3015Z" fill="#FFDA44"/>
<path d="M7.699 23.6055C6.26063 25.0438 5.70475 26.249 4.66406 27.2896C7.56125 30.1988 11.5703 31.9997 16.0004 31.9997C22.0839 31.9997 27.3742 28.6043 30.0803 23.6055H7.699Z" fill="#0052B4"/>
<path d="M4.68628 4.63965C-1.56209 10.888 -1.56209 21.0187 4.68628 27.2671C7.26834 24.6851 9.75166 22.2018 16 15.9534L4.68628 4.63965Z" fill="#6DA544"/>
<path d="M4.21981 15.9543C4.21981 13.6232 5.85813 11.6757 8.04588 11.198C7.70963 11.1245 7.36075 11.0847 7.00237 11.0847C4.31294 11.0847 2.13281 13.2648 2.13281 15.9543C2.13281 18.6437 4.31294 20.8239 7.00237 20.8239C7.36069 20.8239 7.70956 20.784 8.04588 20.7106C5.85813 20.2328 4.21981 18.2854 4.21981 15.9543Z" fill="#F0F0F0"/>
<path d="M7.98781 11.7803L8.24688 12.5774H9.085L8.40688 13.0701L8.66594 13.8672L7.98781 13.3746L7.30969 13.8672L7.56875 13.0701L6.89062 12.5774H7.72875L7.98781 11.7803Z" fill="#F0F0F0"/>
<path d="M7.98781 13.8667L8.24688 14.6639H9.085L8.40688 15.1565L8.66594 15.9537L7.98781 15.461L7.30969 15.9537L7.56875 15.1565L6.89062 14.6639H7.72875L7.98781 13.8667Z" fill="#F0F0F0"/>
<path d="M7.98781 15.9541L8.24688 16.7512H9.085L8.40688 17.2439L8.66594 18.041L7.98781 17.5484L7.30969 18.041L7.56875 17.2439L6.89062 16.7512H7.72875L7.98781 15.9541Z" fill="#F0F0F0"/>
<path d="M7.98781 18.0417L8.24688 18.8389H9.085L8.40688 19.3316L8.66594 20.1287L7.98781 19.6361L7.30969 20.1287L7.56875 19.3316L6.89062 18.8389H7.72875L7.98781 18.0417Z" fill="#F0F0F0"/>
</svg>
