<svg width="32" height="32" viewBox="0 0 32 32" fill="none" xmlns="http://www.w3.org/2000/svg">
<path d="M32 15.9996C32 14.0425 31.6479 12.1677 31.0048 10.4345L16 9.73877L0.995188 10.4344C0.352063 12.1677 0 14.0425 0 15.9996C0 17.9568 0.352063 19.8316 0.995188 21.5648L16 22.2605L31.0048 21.5649C31.6479 19.8316 32 17.9568 32 15.9996Z" fill="#F0F0F0"/>
<path d="M16.0048 31.9998C22.8842 31.9998 28.7489 27.6578 31.0096 21.5649H1C3.26069 27.6578 9.12537 31.9998 16.0048 31.9998Z" fill="#0052B4"/>
<path d="M1 10.4348H31.0097C28.7489 4.342 22.8843 0 16.0048 0C9.12537 0 3.26069 4.342 1 10.4348Z" fill="#D80027"/>
<path d="M20.1811 11.1308H17.3984L17.8623 7.65254L19.7173 6.26123L21.5723 7.65254V10.4352L20.1811 11.1308Z" fill="#338AF3"/>
<path d="M11.8287 11.1308H14.6114L14.1476 7.65254L12.2925 6.26123L10.4375 7.65254V10.4352L11.8287 11.1308Z" fill="#338AF3"/>
<path d="M17.8587 11.1308H14.1484V7.65254L16.0036 6.26123L17.8587 7.65254V11.1308Z" fill="#0052B4"/>
<path d="M10.4375 10.4351V18.0872C10.4375 19.9092 11.3176 21.5296 12.6751 22.5454L13.6491 22.3017L14.8781 23.5381C15.2415 23.613 15.6176 23.6524 16.0028 23.6524C16.3859 23.6524 16.7601 23.6135 17.1216 23.5394L18.5245 22.3712L19.3302 22.5432C20.6872 21.5274 21.5679 19.9087 21.5679 18.0872V10.4351H10.4375Z" fill="#F0F0F0"/>
<path d="M12.6636 10.4351H10.4375V12.6611H12.6636V10.4351Z" fill="#D80027"/>
<path d="M17.1089 10.4351H14.8828V12.6611H17.1089V10.4351Z" fill="#D80027"/>
<path d="M21.5698 10.4351H19.3438V12.6611H21.5698V10.4351Z" fill="#D80027"/>
<path d="M14.8901 12.6611H12.6641V14.8872H14.8901V12.6611Z" fill="#D80027"/>
<path d="M19.3432 12.6611H17.1172V14.8872H19.3432V12.6611Z" fill="#D80027"/>
<path d="M12.6636 14.8862H10.4375V17.1123H12.6636V14.8862Z" fill="#D80027"/>
<path d="M14.8901 17.1128H12.6641V19.3389H14.8901V17.1128Z" fill="#D80027"/>
<path d="M17.1089 14.8862H14.8828V17.1123H17.1089V14.8862Z" fill="#D80027"/>
<path d="M21.5698 14.8862H19.3438V17.1123H21.5698V14.8862Z" fill="#D80027"/>
<path d="M19.3432 17.1128H17.1172V19.3389H19.3432V17.1128Z" fill="#D80027"/>
<path d="M17.1089 19.3389H14.8828V21.5649H17.1089V19.3389Z" fill="#D80027"/>
<path d="M12.6684 19.3389H10.5859C10.7769 20.1664 11.1524 20.9236 11.6673 21.5649H12.6684V19.3389Z" fill="#D80027"/>
<path d="M19.3438 21.5649H20.3447C20.8597 20.9236 21.2351 20.1663 21.4261 19.3389H19.3438V21.5649Z" fill="#D80027"/>
<path d="M12.6641 21.5654V22.5367C13.3115 23.0239 14.0681 23.3732 14.8901 23.5409V21.5654H12.6641Z" fill="#D80027"/>
<path d="M17.1172 21.5654V23.5409C17.9392 23.3734 18.6958 23.0239 19.3432 22.5367V21.5654H17.1172Z" fill="#D80027"/>
</svg>
