<svg width="32" height="32" viewBox="0 0 32 32" fill="none" xmlns="http://www.w3.org/2000/svg">
<g clip-path="url(#clip0_24085_395853)">
<path d="M30.2279 8.66367C29.4886 7.23123 28.5195 5.88673 27.3188 4.68598C26.1179 3.48517 24.7734 2.51611 23.341 1.77686L12.0692 12.0647L1.78125 23.3365C2.52056 24.769 3.48962 26.1135 4.69037 27.3143C5.89112 28.515 7.23569 29.4841 8.66806 30.2234L19.9399 19.9355L30.2279 8.66367Z" fill="#FFDA44"/>
<path d="M4.67956 27.3142C5.35075 27.9854 6.06694 28.584 6.81813 29.1111L29.1046 6.82447C28.5777 6.07329 27.9791 5.3571 27.3079 4.68591C26.6366 4.01472 25.9205 3.41616 25.1693 2.88916L2.88281 25.1757C3.40975 25.9267 4.00831 26.643 4.67956 27.3142Z" fill="#D80027"/>
<path d="M4.68588 4.68575C-0.362055 9.73368 -1.33112 17.3148 1.77676 23.3364L23.3365 1.77668C17.3149 -1.33113 9.73376 -0.361942 4.68588 4.68575Z" fill="#338AF3"/>
<path d="M27.3146 27.3141C32.3625 22.2663 33.3315 14.6851 30.2238 8.66357L8.66406 30.2233C14.6856 33.3311 22.2668 32.3621 27.3146 27.3141Z" fill="#338AF3"/>
<path d="M8.52469 4.86914L9.38807 7.52645H12.1821L9.92169 9.1687L10.7851 11.826L8.52469 10.1836L6.26419 11.826L7.12769 9.1687L4.86719 7.52645H7.66119L8.52469 4.86914Z" fill="#FFDA44"/>
</g>
<defs>
<clipPath id="clip0_24085_395853">
<rect width="32" height="32" fill="white"/>
</clipPath>
</defs>
</svg>
