<svg width="32" height="32" viewBox="0 0 32 32" fill="none" xmlns="http://www.w3.org/2000/svg">
<g clip-path="url(#clip0_24085_394685)">
<path d="M16 32C24.8366 32 32 24.8366 32 16C32 7.16344 24.8366 0 16 0C7.16344 0 0 7.16344 0 16C0 24.8366 7.16344 32 16 32Z" fill="#F0F0F0"/>
<path d="M12.5157 13.9131H31.8584C30.8357 6.06262 24.1231 0 15.9939 0C14.7992 0 13.6356 0.132063 12.5156 0.380313V13.9131H12.5157Z" fill="#D80027"/>
<path d="M8.34519 13.9129V1.94531C3.95187 4.34244 0.80675 8.73937 0.132812 13.9129H8.34519V13.9129Z" fill="#D80027"/>
<path d="M8.34512 18.0874H0.132812C0.80675 23.261 3.95187 27.6579 8.34519 30.055L8.34512 18.0874Z" fill="#D80027"/>
<path d="M12.5156 18.0875V31.6202C13.6356 31.8684 14.7992 32.0005 15.9939 32.0005C24.1231 32.0005 30.8357 25.9378 31.8584 18.0874H12.5156V18.0875Z" fill="#D80027"/>
</g>
<defs>
<clipPath id="clip0_24085_394685">
<rect width="32" height="32" fill="white"/>
</clipPath>
</defs>
</svg>
