<svg width="32" height="32" viewBox="0 0 32 32" fill="none" xmlns="http://www.w3.org/2000/svg">
<g clip-path="url(#clip0_24085_395427)">
<path d="M14.6099 17.3913C14.6099 17.3913 4.69688 4.68406 4.6875 4.68631C7.58288 1.79088 11.5829 0 16.0013 0C24.8378 0 32.0013 7.1635 32.0013 16L14.6099 17.3913Z" fill="#338AF3"/>
<path d="M14.6099 16C14.6099 16 4.69688 27.3159 4.6875 27.3137C7.58288 30.2091 11.5829 32 16.0013 32C24.8378 32 32.0013 24.8365 32.0013 16H14.6099Z" fill="#6DA544"/>
<path d="M4.68628 4.68628C-1.56209 10.9347 -1.56209 21.0653 4.68628 27.3138C7.26834 24.7317 9.75166 22.2484 16 16L4.68628 4.68628Z" fill="#F0F0F0"/>
<path d="M6.47463 11.8262L7.51056 15.0147H10.8634L8.15106 16.9854L9.18694 20.1741L6.47463 18.2034L3.76219 20.1741L4.79831 16.9854L2.08594 15.0147H5.43856L6.47463 11.8262Z" fill="#D80027"/>
</g>
<defs>
<clipPath id="clip0_24085_395427">
<rect width="32" height="32" fill="white"/>
</clipPath>
</defs>
</svg>
