<svg width="32" height="32" viewBox="0 0 32 32" fill="none" xmlns="http://www.w3.org/2000/svg">
<path d="M16 32C24.8366 32 32 24.8366 32 16C32 7.16344 24.8366 0 16 0C7.16344 0 0 7.16344 0 16C0 24.8366 7.16344 32 16 32Z" fill="#F0F0F0"/>
<path d="M0.554688 20.1738C2.03206 25.6553 6.34813 29.9714 11.8296 31.4488V20.1738H0.554688Z" fill="#D80027"/>
<path d="M11.8296 0.550781C6.34812 2.02809 2.032 6.34422 0.554688 11.8257H11.8296V0.550781H11.8296Z" fill="#0052B4"/>
<path d="M31.4546 11.8257C29.9773 6.34422 25.6611 2.02809 20.1797 0.550781V11.8257H31.4546V11.8257Z" fill="#D80027"/>
<path d="M20.1797 31.4488C25.6611 29.9714 29.9772 25.6553 31.4546 20.1738H20.1797V31.4488Z" fill="#0052B4"/>
<path d="M20.1682 16.0001C20.1682 18.3054 18.2995 20.1741 15.9943 20.1741C13.6891 20.1741 11.8203 18.3054 11.8203 16.0001C11.8203 13.6949 15.9943 11.8262 15.9943 11.8262C15.9943 11.8262 20.1682 13.6949 20.1682 16.0001Z" fill="#496E2D"/>
<path d="M11.8203 16.0001C11.8203 13.6949 13.6891 11.8262 15.9943 11.8262C18.2995 11.8262 20.1682 13.6949 20.1682 16.0001" fill="#0052B4"/>
<path d="M13.6562 13.9126V16.5213C13.6562 17.818 14.7074 18.8691 16.0041 18.8691C17.3008 18.8691 18.3519 17.818 18.3519 16.5213V13.9126H13.6562Z" fill="#D80027"/>
</svg>
