<svg width="32" height="32" viewBox="0 0 32 32" fill="none" xmlns="http://www.w3.org/2000/svg">
<path d="M16 32C24.8366 32 32 24.8366 32 16C32 7.16344 24.8366 0 16 0C7.16344 0 0 7.16344 0 16C0 24.8366 7.16344 32 16 32Z" fill="#F0F0F0"/>
<path d="M16.0048 0C9.12537 0 3.26069 4.342 1 10.4348H31.0097C28.7489 4.342 22.8843 0 16.0048 0Z" fill="#D80027"/>
<path d="M16.0048 32C22.8842 32 28.7489 27.658 31.0096 21.5652H1C3.26069 27.658 9.12537 32 16.0048 32Z" fill="black"/>
<path d="M21.568 14.2607H17.3941C17.3941 13.4923 16.7711 12.8694 16.0027 12.8694C15.2344 12.8694 14.6114 13.4923 14.6114 14.2607H10.4375C10.4375 15.0291 11.1068 15.652 11.8752 15.652H11.8288C11.8288 16.4204 12.4517 17.0433 13.2201 17.0433C13.2201 17.8118 13.843 18.4346 14.6114 18.4346H17.3941C18.1625 18.4346 18.7854 17.8118 18.7854 17.0433C19.5538 17.0433 20.1767 16.4204 20.1767 15.652H20.1304C20.8987 15.652 21.568 15.0291 21.568 14.2607Z" fill="#FF9811"/>
</svg>
