<svg width="32" height="32" viewBox="0 0 32 32" fill="none" xmlns="http://www.w3.org/2000/svg">
<g clip-path="url(#clip0_24085_396500)">
<path d="M14.6099 14.6084C14.6099 14.6084 4.69688 27.3157 4.6875 27.3134C7.58288 30.2088 11.5829 31.9997 16.0013 31.9997C24.8378 31.9997 32.0013 24.8362 32.0013 15.9997L14.6099 14.6084Z" fill="#338AF3"/>
<path d="M14.6099 16C14.6099 16 4.69688 4.68406 4.6875 4.68631C7.58288 1.79088 11.5829 0 16.0013 0C24.8378 0 32.0013 7.1635 32.0013 16H14.6099Z" fill="#6DA544"/>
<path d="M4.68628 4.68555C-1.56209 10.9339 -1.56209 21.0646 4.68628 27.313C4.68584 27.3156 32 15.9993 32 15.9993L4.68628 4.68555Z" fill="#D80027"/>
<path d="M8.34644 9.3916C5.27775 9.3916 2.78125 11.8882 2.78125 14.9568V17.0437C2.78125 20.1124 5.27781 22.6089 8.34644 22.6089C11.4151 22.6089 13.9116 20.1124 13.9116 17.0437V14.9568C13.9117 11.8882 11.4151 9.3916 8.34644 9.3916ZM11.8247 17.0438C11.8247 18.5983 10.7996 19.9176 9.38987 20.3619V18.0873L10.8664 16.6108L9.39069 15.1351L9.38987 14.6099V13.9134H7.303V16.0003L5.8275 17.4757L7.303 18.9512V20.362C5.89331 19.9177 4.86819 18.5984 4.86819 17.0439V14.9569C4.86819 13.039 6.42856 11.4787 8.34644 11.4787C10.2643 11.4787 11.8247 13.039 11.8247 14.9569V17.0438Z" fill="#FFDA44"/>
</g>
<defs>
<clipPath id="clip0_24085_396500">
<rect width="32" height="32" fill="white"/>
</clipPath>
</defs>
</svg>
