<svg width="32" height="32" viewBox="0 0 32 32" fill="none" xmlns="http://www.w3.org/2000/svg">
<path d="M30.4124 22.9563C31.4295 20.8529 32 18.493 32 15.9998C32 13.5067 31.4295 11.1468 30.4124 9.04334L16 8.34766L1.58763 9.04328C0.5705 11.1468 0 13.5067 0 15.9998C0 18.493 0.5705 20.8529 1.58763 22.9563L16 23.652L30.4124 22.9563Z" fill="#FFDA44"/>
<path d="M15.9983 0C9.65494 0 4.17394 3.69156 1.58594 9.0435H30.4106C27.8227 3.69156 22.3416 0 15.9983 0Z" fill="black"/>
<path d="M15.9983 31.9998C9.65494 31.9998 4.17394 28.3082 1.58594 22.9563H30.4106C27.8227 28.3082 22.3416 31.9998 15.9983 31.9998Z" fill="#0052B4"/>
<path d="M31.2444 11.1306H0.755562C0.265437 12.6662 0 14.3021 0 16.0002C0 17.6982 0.265437 19.3342 0.755562 20.8697H31.2444C31.7346 19.3342 32 17.6982 32 16.0002C32 14.3021 31.7346 12.6662 31.2444 11.1306Z" fill="#A2001D"/>
<path d="M26.4321 15.3044H5.5625V16.6958H26.4321V15.3044Z" fill="#FFDA44"/>
<path d="M23.6481 12.5217H8.34375V13.913H23.6481V12.5217Z" fill="#FFDA44"/>
<path d="M23.7458 15.9999C23.7458 15.9999 20.1681 20.1738 15.9943 20.1738C11.8204 20.1738 11.8203 15.9999 11.8203 15.9999C11.8203 15.9999 11.8203 11.8259 15.9943 11.8259C20.1682 11.8259 23.7458 15.9999 23.7458 15.9999Z" fill="#F0F0F0"/>
<path d="M16.0016 20.1738C11.8276 20.1738 8.25 15.9999 8.25 15.9999C8.25 15.9999 11.8276 11.8259 16.0016 11.8259" fill="black"/>
<path d="M14.6101 14.6086H13.2188V17.3913H14.6101V14.6086Z" fill="#F0F0F0"/>
<path d="M18.7898 14.6086H17.3984V17.3913H18.7898V14.6086Z" fill="black"/>
<path d="M5.571 17.3913C6.3394 17.3913 6.96231 16.7684 6.96231 16C6.96231 15.2316 6.3394 14.6086 5.571 14.6086C4.8026 14.6086 4.17969 15.2316 4.17969 16C4.17969 16.7684 4.8026 17.3913 5.571 17.3913Z" fill="#0052B4"/>
<path d="M26.4382 17.3913C27.2066 17.3913 27.8295 16.7684 27.8295 16C27.8295 15.2316 27.2066 14.6086 26.4382 14.6086C25.6698 14.6086 25.0469 15.2316 25.0469 16C25.0469 16.7684 25.6698 17.3913 26.4382 17.3913Z" fill="#0052B4"/>
</svg>
