<svg width="32" height="32" viewBox="0 0 32 32" fill="none" xmlns="http://www.w3.org/2000/svg">
<path d="M0 16.0002C0 17.9575 0.352062 19.8322 0.99525 21.5656L16 22.9567L31.0047 21.5655C31.648 19.8322 32 17.9574 32 16.0002C32 14.0699 31.6581 12.2195 31.0316 10.5061L16 9.0437L0.968375 10.5062C0.341938 12.2195 0 14.0699 0 16.0002Z" fill="#FFDA44"/>
<path d="M16.0048 32C22.8842 32 28.7489 27.658 31.0096 21.5652H1C3.26069 27.658 9.12537 32 16.0048 32Z" fill="#D80027"/>
<path d="M16.0048 0C9.12537 0 3.26069 4.342 1 10.4348H31.0097C28.7489 4.342 22.8843 0 16.0048 0Z" fill="#6DA544"/>
<path d="M15.9959 23.6523C20.2221 23.6523 23.6481 20.2263 23.6481 16.0001C23.6481 11.7739 20.2221 8.3479 15.9959 8.3479C11.7698 8.3479 8.34375 11.7739 8.34375 16.0001C8.34375 20.2263 11.7698 23.6523 15.9959 23.6523Z" fill="#0052B4"/>
<path d="M16.0039 10.0745L17.3852 14.3258H21.8625L18.2389 16.9534L19.6312 21.2174L16.0039 18.5774L12.3821 21.2125L13.7687 16.9534L10.1484 14.3258H14.6225L16.0039 10.0745Z" fill="#FFDA44"/>
<path d="M21.5155 17.0583L17.1332 15.6343L19.8416 11.9067L18.7161 11.0889L16.0076 14.8166L13.2994 11.0889L12.1738 11.9067L14.8821 15.6345L10.5 17.0582L10.9299 18.3815L15.3121 16.9577V21.5653H16.7034V16.9576L21.0854 18.3815L21.5155 17.0583Z" fill="#FFDA44"/>
</svg>
