<svg width="32" height="32" viewBox="0 0 32 32" fill="none" xmlns="http://www.w3.org/2000/svg">
<path d="M16 32C24.8366 32 32 24.8366 32 16C32 7.16344 24.8366 0 16 0C7.16344 0 0 7.16344 0 16C0 24.8366 7.16344 32 16 32Z" fill="#0052B4"/>
<path d="M15.9912 6.26099L16.5093 7.8553H18.1855L16.8294 8.84062L17.3474 10.4349L15.9912 9.44956L14.635 10.4349L15.1531 8.84062L13.7969 7.8553H15.4732L15.9912 6.26099Z" fill="#FFDA44"/>
<path d="M9.11169 9.11321L10.6054 9.87422L11.7908 8.68896L11.5284 10.3446L13.0221 11.1057L11.3664 11.3679L11.1042 13.0237L10.3431 11.53L8.6875 11.7923L9.87281 10.607L9.11169 9.11321Z" fill="#FFDA44"/>
<path d="M6.25781 16.0003L7.85212 15.4822V13.8059L8.83737 15.1622L10.4317 14.6441L9.44631 16.0003L10.4317 17.3565L8.83737 16.8385L7.85212 18.1947V16.5184L6.25781 16.0003Z" fill="#FFDA44"/>
<path d="M9.11169 22.8869L9.87275 21.3932L8.6875 20.2079L10.3432 20.4703L11.1041 18.9766L11.3664 20.6322L13.0221 20.8945L11.5286 21.6556L11.7908 23.3112L10.6054 22.1259L9.11169 22.8869Z" fill="#FFDA44"/>
<path d="M15.9912 25.7392L15.4731 24.1449H13.7969L15.1531 23.1596L14.635 21.5654L15.9912 22.5507L17.3474 21.5654L16.8294 23.1596L18.1855 24.1449H16.5092L15.9912 25.7392Z" fill="#FFDA44"/>
<path d="M22.8869 22.8869L21.3932 22.1259L20.2078 23.3113L20.4701 21.6555L18.9766 20.8945L20.6322 20.6322L20.8944 18.9766L21.6554 20.4703L23.3111 20.2079L22.1257 21.3933L22.8869 22.8869Z" fill="#FFDA44"/>
<path d="M25.7363 16.0003L24.142 16.5184V18.1947L23.1567 16.8384L21.5625 17.3565L22.5478 16.0003L21.5625 14.6441L23.1567 15.1622L24.142 13.8059V15.4823L25.7363 16.0003Z" fill="#FFDA44"/>
<path d="M22.8869 9.11364L22.1258 10.6074L23.3111 11.7927L21.6554 11.5303L20.8944 13.024L20.6322 11.3683L18.9766 11.106L20.4701 10.345L20.2078 8.68945L21.3932 9.8747L22.8869 9.11364Z" fill="#FFDA44"/>
</svg>
