<svg width="32" height="32" viewBox="0 0 32 32" fill="none" xmlns="http://www.w3.org/2000/svg">
<path d="M32 16C32 24.8365 24.8365 32 16 32C7.1635 32 0 24.8365 0 16C0 16.0038 16 0.00175 16 0C24.8365 0 32 7.1635 32 16Z" fill="#338AF3"/>
<path d="M16.0027 7.6521V13.0485L10.4375 7.6521H16.0027Z" fill="#0052B4"/>
<path d="M8.35188 15.9999H13.0526L8.35188 9.73901L7.65625 14.6086L8.35188 15.9999Z" fill="#0052B4"/>
<path d="M15.9609 16.0001H16.0037C16.0037 15.9857 16.0037 15.9717 16.0037 15.9573C15.9895 15.9716 15.9752 15.9858 15.9609 16.0001Z" fill="#F0F0F0"/>
<path d="M16 8.34781C16 5.5325 16 3.68781 16 0H15.9973C7.162 0.0015 0 7.16431 0 16H8.34781V11.2993L13.0486 16H15.9573C15.9716 15.9858 15.9858 15.9715 16.0001 15.9572C16.0001 14.8793 16.0001 13.9174 16.0001 13.0486L11.2992 8.34781H16Z" fill="#F0F0F0"/>
<path d="M8.09369 2.08691C5.59125 3.51185 3.51087 5.59223 2.08594 8.09466V16H6.25988V6.26098V6.26085H15.999C15.999 4.94441 15.999 3.69029 15.999 2.08691H8.09369Z" fill="#D80027"/>
<path d="M15.9959 14.0325L10.3113 8.3479H8.34375V8.34803L15.9957 16H15.9959C15.9959 16 15.9959 14.6433 15.9959 14.0325Z" fill="#D80027"/>
<path d="M18.0859 10.435V16.0001C18.0859 19.7277 22.9555 20.8698 22.9555 20.8698C22.9555 20.8698 27.8251 19.7277 27.8251 16.0001V10.435L22.9555 9.0437L18.0859 10.435Z" fill="#F3F3F3"/>
<path d="M27.8251 10.4348V8.3479H18.0859V10.4348H22.2597V14.6088H18.0859V16C18.0859 16.0001 18.0859 16.0001 18.0859 16.0001L22.2597 16.0002V20.6563C22.6796 20.8048 22.9555 20.8696 22.9555 20.8696C22.9555 20.8696 23.2313 20.8049 23.6511 20.6563V16.0001H27.8251V16V14.6088H23.6511V10.4348H27.8251V10.4348Z" fill="#D80027"/>
</svg>
