<svg width="32" height="32" viewBox="0 0 32 32" fill="none" xmlns="http://www.w3.org/2000/svg">
<g clip-path="url(#clip0_24085_395605)">
<path d="M16 32C24.8366 32 32 24.8366 32 16C32 7.16344 24.8366 0 16 0C7.16344 0 0 7.16344 0 16C0 24.8366 7.16344 32 16 32Z" fill="#F0F0F0"/>
<path d="M16.0017 0C9.387 0 3.71025 4.01413 1.27344 9.73913H30.73C28.2932 4.01413 22.6164 0 16.0017 0Z" fill="#A2001D"/>
<path d="M16.0017 32.0001C22.6164 32.0001 28.2932 27.986 30.7299 22.261H1.27344C3.71025 27.986 9.387 32.0001 16.0017 32.0001Z" fill="#496E2D"/>
<path d="M31.4488 11.8262H0.551188C0.1925 13.157 0 14.5559 0 16.0001C0 17.4443 0.1925 18.8432 0.551188 20.1741H31.4489C31.8075 18.8432 32 17.4443 32 16.0001C32 14.5559 31.8075 13.157 31.4488 11.8262Z" fill="#0052B4"/>
</g>
<defs>
<clipPath id="clip0_24085_395605">
<rect width="32" height="32" fill="white"/>
</clipPath>
</defs>
</svg>
