<svg width="32" height="32" viewBox="0 0 32 32" fill="none" xmlns="http://www.w3.org/2000/svg">
<path d="M16 32C24.8366 32 32 24.8366 32 16C32 7.16344 24.8366 0 16 0C7.16344 0 0 7.16344 0 16C0 24.8366 7.16344 32 16 32Z" fill="#F0F0F0"/>
<path d="M31.8646 13.9131H18.0871H18.087V0.135438C17.4038 0.0465 16.7073 0 16 0C15.2927 0 14.5962 0.0465 13.9131 0.135438V13.9129V13.913H0.135438C0.0465 14.5962 0 15.2927 0 16C0 16.7074 0.0465 17.4038 0.135438 18.0869H13.9129H13.913V31.8646C14.5962 31.9535 15.2927 32 16 32C16.7073 32 17.4038 31.9536 18.0869 31.8646V18.0871V18.087H31.8646C31.9535 17.4038 32 16.7074 32 16C32 15.2927 31.9535 14.5962 31.8646 13.9131Z" fill="#D80027"/>
<path d="M9.73644 7.65219V5.56519H7.6495V7.65219H5.5625V9.73912H7.6495V11.8261H9.73644V9.73912H11.8234V7.65219H9.73644Z" fill="#D80027"/>
<path d="M24.3536 7.65219V5.56519H22.2666V7.65219H20.1797V9.73912H22.2666V11.8261H24.3536V9.73912H26.4406V7.65219H24.3536Z" fill="#D80027"/>
<path d="M9.73644 22.2608V20.1738H7.6495V22.2608H5.5625V24.3477H7.6495V26.4347H9.73644V24.3477H11.8234V22.2608H9.73644Z" fill="#D80027"/>
<path d="M24.3536 22.2608V20.1738H22.2666V22.2608H20.1797V24.3477H22.2666V26.4347H24.3536V24.3477H26.4406V22.2608H24.3536Z" fill="#D80027"/>
</svg>
