<svg width="32" height="32" viewBox="0 0 32 32" fill="none" xmlns="http://www.w3.org/2000/svg">
<path d="M0 15.9996C0 17.9568 0.352063 19.8315 0.995188 21.5648L16 22.2605L31.0048 21.5649C31.648 19.8315 32 17.9568 32 15.9996C32 14.0425 31.648 12.1678 31.0048 10.4345L16 9.73877L0.995188 10.4344C0.352063 12.1678 0 14.0425 0 15.9996Z" fill="#FFDA44"/>
<path d="M16.0048 0C9.12537 0 3.26069 4.342 1 10.4348H31.0097C28.7489 4.342 22.8843 0 16.0048 0Z" fill="#D80027"/>
<path d="M31.0096 21.5649H1C3.26069 27.6577 9.12537 31.9998 16.0048 31.9998C22.8842 31.9998 28.7489 27.6577 31.0096 21.5649Z" fill="#496E2D"/>
<path d="M15.9999 10.4351L17.3812 14.6863H21.8517L18.2353 17.314L19.6165 21.5654L15.9999 18.9379L12.3834 21.5654L13.7649 17.314L10.1484 14.6863H14.6187L15.9999 10.4351Z" fill="black"/>
</svg>
