<svg width="32" height="32" viewBox="0 0 32 32" fill="none" xmlns="http://www.w3.org/2000/svg">
<g clip-path="url(#clip0_24085_395569)">
<path d="M16 32C24.8366 32 32 24.8366 32 16C32 7.16344 24.8366 0 16 0C7.16344 0 0 7.16344 0 16C0 24.8366 7.16344 32 16 32Z" fill="#F0F0F0"/>
<path d="M32.0044 16.0003C32.0044 9.65689 28.3129 4.17589 22.9609 1.58789V30.4126C28.3129 27.8246 32.0044 22.3436 32.0044 16.0003Z" fill="#338AF3"/>
<path d="M0 16.0003C0 22.3436 3.69156 27.8246 9.0435 30.4126V1.58789C3.69156 4.17589 0 9.65689 0 16.0003Z" fill="#338AF3"/>
<path d="M20.1826 18.7056L17.4773 16.0002L20.0525 13.4249L19.9358 12.0648L19.1985 11.3274L16.0015 14.5244L12.8045 11.3274L12.0673 12.0648L11.9506 13.4249L14.5258 16.0002L11.8203 18.7056L13.2961 20.1812L16.0015 17.4759L18.707 20.1812L20.1826 18.7056Z" fill="#ACABB1"/>
<path d="M19.9379 12.0647L18.4622 13.5404C19.0916 14.1698 19.481 15.0394 19.481 15.9999C19.481 17.9209 17.9237 19.4782 16.0028 19.4782C14.0818 19.4782 12.5244 17.9209 12.5244 15.9999C12.5244 15.0394 12.9138 14.1698 13.5433 13.5404L12.0676 12.0647C11.0604 13.0717 10.4375 14.463 10.4375 15.9999C10.4375 19.0735 12.9291 21.5651 16.0027 21.5651C19.0763 21.5651 21.5679 19.0735 21.5679 15.9999C21.5679 14.4631 20.945 13.0718 19.9379 12.0647Z" fill="#6DA544"/>
</g>
<defs>
<clipPath id="clip0_24085_395569">
<rect width="32" height="32" fill="white"/>
</clipPath>
</defs>
</svg>
