<svg width="32" height="32" viewBox="0 0 32 32" fill="none" xmlns="http://www.w3.org/2000/svg">
<path d="M21.5683 0.99525C19.8349 0.352062 17.9601 0 16.0029 0C14.0459 0 12.1711 0.352063 10.4379 0.995125L9.74219 16L10.4378 31.0049C12.1711 31.648 14.0459 32 16.0029 32C17.9602 32 19.8349 31.648 21.5683 31.0047L22.2639 16L21.5683 0.99525Z" fill="#FFDA44"/>
<path d="M0 16.0002C0 22.8796 4.342 28.7444 10.4348 31.005V0.995361C4.342 3.25611 0 9.12074 0 16.0002Z" fill="#D80027"/>
<path d="M31.9973 16.0002C31.9973 9.12074 27.6553 3.25611 21.5625 0.995361V31.005C27.6553 28.7444 31.9973 22.8796 31.9973 16.0002Z" fill="#6DA544"/>
</svg>
