<svg width="32" height="32" viewBox="0 0 32 32" fill="none" xmlns="http://www.w3.org/2000/svg">
<path d="M16 32C24.8366 32 32 24.8366 32 16C32 7.16344 24.8366 0 16 0C7.16344 0 0 7.16344 0 16C0 24.8366 7.16344 32 16 32Z" fill="#F0F0F0"/>
<path d="M16.0022 0C13.1734 0 10.5167 0.735125 8.21094 2.02325V29.9767C10.5168 31.2649 13.1734 32 16.0022 32C24.8387 32 32.0023 24.8365 32.0023 16C32.0023 7.1635 24.8387 0 16.0022 0Z" fill="#6DA544"/>
<path d="M8.2505 1.99658C7.24394 2.55439 6.30406 3.21739 5.44537 3.97114C5.53219 3.89502 5.61988 3.81977 5.70825 3.74552L17.9623 15.9996L5.70819 28.2538C5.61975 28.1795 5.53213 28.1043 5.44531 28.0281C6.304 28.7819 7.24394 29.4448 8.25044 30.0027L31.9948 15.9996L8.2505 1.99658Z" fill="#F0F0F0"/>
<path d="M6.90319 2.83643C6.41525 3.1743 5.94663 3.53786 5.50006 3.92643L15.9988 16.0001L5.5 28.0737C5.94656 28.4622 6.41519 28.8259 6.90313 29.1637L29.2599 16.0001L6.90319 2.83643Z" fill="#FFDA44"/>
<path d="M5.71469 3.74609C5.359 4.04497 5.01575 4.35828 4.6875 4.68647L14.6099 16.0002L4.6875 27.314C5.01575 27.6422 5.35894 27.9556 5.71469 28.2543L17.9688 16.0002L5.71469 3.74609Z" fill="black"/>
<path d="M4.68628 4.68604C-1.56209 10.9344 -1.56209 21.0651 4.68628 27.3135C7.26834 24.7315 9.75166 22.2482 16 15.9998L4.68628 4.68604Z" fill="#D80027"/>
</svg>
