<svg width="32" height="32" viewBox="0 0 32 32" fill="none" xmlns="http://www.w3.org/2000/svg">
<path d="M32 16C32 24.8365 24.8365 32 16 32C7.1635 32 0 24.8365 0 16C0 7.1635 16 0 16 0C16 0 32 7.1635 32 16Z" fill="#A2001D"/>
<path d="M0 16C0 7.1635 7.1635 0 16 0C24.8365 0 32 7.1635 32 16" fill="#0052B4"/>
<path d="M21.5679 20.174L16.0027 19.4784L10.4375 20.174V11.8262H21.5679V20.174Z" fill="#F0F0F0"/>
<path d="M16.0014 19.4783C17.5382 19.4783 18.784 18.2325 18.784 16.6957C18.784 15.1589 17.5382 13.9131 16.0014 13.9131C14.4646 13.9131 13.2188 15.1589 13.2188 16.6957C13.2188 18.2325 14.4646 19.4783 16.0014 19.4783Z" fill="#0052B4"/>
<path d="M15.9929 18.0871C16.7613 18.0871 17.3842 17.4642 17.3842 16.6958C17.3842 15.9274 16.7613 15.3044 15.9929 15.3044C15.2245 15.3044 14.6016 15.9274 14.6016 16.6958C14.6016 17.4642 15.2245 18.0871 15.9929 18.0871Z" fill="#A2001D"/>
<path d="M13.9141 13.2175H18.088L16.001 15.3045L13.9141 13.2175Z" fill="#6DA544"/>
<path d="M16.696 14.6086H15.3047V18.7826H16.696V14.6086Z" fill="#FFDA44"/>
<path d="M18.2288 18.3652H13.7765L10.4375 20.174H21.5679L18.2288 18.3652Z" fill="#6DA544"/>
</svg>
