<svg width="32" height="32" viewBox="0 0 32 32" fill="none" xmlns="http://www.w3.org/2000/svg">
<g clip-path="url(#clip0_24085_396186)">
<path d="M16 32C24.8366 32 32 24.8366 32 16C32 7.16344 24.8366 0 16 0C7.16344 0 0 7.16344 0 16C0 24.8366 7.16344 32 16 32Z" fill="#F0F0F0"/>
<path d="M15.9983 32.0003C22.3416 32.0003 27.8227 28.3087 30.4107 22.9568H1.58594C4.17394 28.3087 9.65494 32.0003 15.9983 32.0003Z" fill="#338AF3"/>
<path d="M15.9983 0C9.65494 0 4.17394 3.69156 1.58594 9.0435H30.4106C27.8227 3.69156 22.3416 0 15.9983 0Z" fill="#338AF3"/>
<path d="M9.84281 10.4348L10.3608 12.0291H12.0371L10.681 13.0144L11.1991 14.6087L9.84281 13.6234L8.48656 14.6087L9.00463 13.0144L7.64844 12.0291H9.32475L9.84281 10.4348Z" fill="#338AF3"/>
<path d="M9.84281 17.3916L10.3608 18.986H12.0371L10.681 19.9712L11.1991 21.5655L9.84281 20.5802L8.48656 21.5655L9.00463 19.9712L7.64844 18.986H9.32475L9.84281 17.3916Z" fill="#338AF3"/>
<path d="M22.1553 10.4348L22.6734 12.0291H24.3497L22.9935 13.0144L23.5116 14.6087L22.1553 13.6234L20.7991 14.6087L21.3171 13.0144L19.9609 12.0291H21.6373L22.1553 10.4348Z" fill="#338AF3"/>
<path d="M22.1553 17.3916L22.6734 18.986H24.3497L22.9935 19.9712L23.5116 21.5655L22.1553 20.5802L20.7991 21.5655L21.3171 19.9712L19.9609 18.986H21.6373L22.1553 17.3916Z" fill="#338AF3"/>
<path d="M15.9991 13.9124L16.5171 15.5067H18.1935L16.8373 16.492L17.3553 18.0862L15.9991 17.1009L14.6428 18.0862L15.1609 16.492L13.8047 15.5067H15.481L15.9991 13.9124Z" fill="#338AF3"/>
</g>
<defs>
<clipPath id="clip0_24085_396186">
<rect width="32" height="32" fill="white"/>
</clipPath>
</defs>
</svg>
