<svg width="32" height="32" viewBox="0 0 32 32" fill="none" xmlns="http://www.w3.org/2000/svg">
<path d="M0.995188 10.4343C0.352063 12.1677 0 14.0424 0 15.9995C0 17.9566 0.352063 19.8314 0.995188 21.5647L16 22.956L31.0048 21.5647C31.6479 19.8314 32 17.9566 32 15.9995C32 14.0424 31.6479 12.1677 31.0048 10.4343L16 9.04297L0.995188 10.4343Z" fill="#F0F0F0"/>
<path d="M16.0048 0C9.12538 0 3.26062 4.342 1 10.4348H31.0097C28.7489 4.342 22.8843 0 16.0048 0Z" fill="#D80027"/>
<path d="M16.0047 32C22.8842 32 28.7489 27.658 31.0096 21.5652H1C3.26062 27.658 9.12537 32 16.0047 32Z" fill="#6DA544"/>
</svg>
