<svg width="32" height="32" viewBox="0 0 32 32" fill="none" xmlns="http://www.w3.org/2000/svg">
<path d="M16 32C24.8366 32 32 24.8366 32 16C32 7.16344 24.8366 0 16 0C7.16344 0 0 7.16344 0 16C0 24.8366 7.16344 32 16 32Z" fill="#F0F0F0"/>
<path d="M15.9983 0C9.65494 0 4.17394 3.69156 1.58594 9.0435H30.4106C27.8227 3.69156 22.3416 0 15.9983 0Z" fill="#FF9811"/>
<path d="M15.9983 32C22.3416 32 27.8227 28.3085 30.4107 22.9565H1.58594C4.17394 28.3085 9.65494 32 15.9983 32Z" fill="#6DA544"/>
<path d="M16.0027 21.5654C19.0763 21.5654 21.5679 19.0738 21.5679 16.0002C21.5679 12.9267 19.0763 10.4351 16.0027 10.4351C12.9291 10.4351 10.4375 12.9267 10.4375 16.0002C10.4375 19.0738 12.9291 21.5654 16.0027 21.5654Z" fill="#0052B4"/>
<path d="M16.0017 19.478C17.9227 19.478 19.4799 17.9207 19.4799 15.9997C19.4799 14.0787 17.9227 12.5215 16.0017 12.5215C14.0807 12.5215 12.5234 14.0787 12.5234 15.9997C12.5234 17.9207 14.0807 19.478 16.0017 19.478Z" fill="#F0F0F0"/>
<path d="M15.9983 11.7075L17.0714 14.1411L19.7154 13.8536L18.1444 15.9996L19.7154 18.1457L17.0714 17.8581L15.9983 20.2918L14.9253 17.8581L12.2812 18.1456L13.8523 15.9996L12.2812 13.8536L14.9253 14.1411L15.9983 11.7075Z" fill="#0052B4"/>
</svg>
