<svg width="32" height="32" viewBox="0 0 32 32" fill="none" xmlns="http://www.w3.org/2000/svg">
<path d="M16 32C24.8366 32 32 24.8366 32 16C32 7.16344 24.8366 0 16 0C7.16344 0 0 7.16344 0 16C0 24.8366 7.16344 32 16 32Z" fill="#F0F0F0"/>
<path d="M21.1954 11.8262H19.102C19.1194 12.0563 19.1292 12.2884 19.1292 12.5219C19.1292 14.0696 18.7423 15.5698 18.0679 16.6377C17.8598 16.967 17.5102 17.4322 17.0422 17.7459V11.8262H14.9552V17.7459C14.4873 17.4322 14.1376 16.9671 13.9296 16.6377C13.2551 15.5698 12.8682 14.0696 12.8682 12.5219C12.8682 12.2884 12.8781 12.0562 12.8954 11.8262H10.802C10.7886 12.0552 10.7812 12.287 10.7812 12.5219C10.7812 16.8129 13.073 20.174 15.9986 20.174C18.9242 20.174 21.216 16.8129 21.216 12.5219C21.2161 12.287 21.2088 12.0552 21.1954 11.8262Z" fill="#D80027"/>
<path d="M6.607 7.65219H8.69394V9.0435H10.7809V7.65219H12.8678V9.0435H14.9548V7.65219H17.0417V9.0435H19.1286V7.65219H21.2156V9.0435H23.3025V7.65219H25.3894V9.0435H30.4105C27.8227 3.69156 22.3416 0 15.9983 0C9.655 0 4.17394 3.69156 1.58594 9.0435H6.607V7.65219Z" fill="#6DA544"/>
<path d="M25.3896 22.9565V24.3479H23.3027V22.9565H21.2157V24.3479H19.1288V22.9565H17.0419V24.3479H14.9549V22.9565H12.868V24.3479H10.7811V22.9565H8.69394V24.3479H6.607V22.9565H1.58594C4.17394 28.3085 9.65494 32 15.9983 32C22.3417 32 27.8227 28.3085 30.4107 22.9565H25.3896Z" fill="#D80027"/>
</svg>
