<svg width="32" height="32" viewBox="0 0 32 32" fill="none" xmlns="http://www.w3.org/2000/svg">
<path d="M16 32C24.8366 32 32 24.8366 32 16C32 7.16344 24.8366 0 16 0C7.16344 0 0 7.16344 0 16C0 24.8366 7.16344 32 16 32Z" fill="#F0F0F0"/>
<path d="M16.0048 0C9.12537 0 3.26069 4.342 1 10.4348H31.0097C28.7489 4.342 22.8843 0 16.0048 0Z" fill="#A2001D"/>
<path d="M16.0048 32C22.8842 32 28.7489 27.658 31.0096 21.5652H1C3.26069 27.658 9.12537 32 16.0048 32Z" fill="black"/>
<path d="M12.1713 14.9566C12.1625 14.9566 12.1539 14.9572 12.1452 14.9573V14.9566H9.08663C9.24169 14.3575 9.78531 13.9131 10.4321 13.9131V11.8262C8.51419 11.8262 6.95388 13.3866 6.95388 15.3044V17.0088V17.0436H12.1452C12.1569 17.0436 12.1662 17.0436 12.1713 17.0436C12.3631 17.0436 12.5191 17.1997 12.5191 17.3914V18.0871H5.5625V20.174H14.606V17.3914C14.606 16.0489 13.5138 14.9566 12.1713 14.9566Z" fill="#496E2D"/>
<path d="M17.3916 18.0871V11.8262H15.3047V20.1741H18.7829V18.0871H17.3916Z" fill="#496E2D"/>
<path d="M24.3461 18.0871V11.8262H22.2592V18.0871H21.5635V16.0002H19.4766V20.1741H25.7374V18.0871H24.3461Z" fill="#496E2D"/>
</svg>
