<svg width="32" height="32" viewBox="0 0 32 32" fill="none" xmlns="http://www.w3.org/2000/svg">
<path d="M16 32C24.8366 32 32 24.8366 32 16C32 7.16344 24.8366 0 16 0C7.16344 0 0 7.16344 0 16C0 24.8366 7.16344 32 16 32Z" fill="#F0F0F0"/>
<path d="M22.0179 12.522H18.0014L15.9933 9.0437L13.9853 12.522H9.96875L11.9771 16.0002L9.96875 19.4785H13.9853L15.9933 22.9567L18.0014 19.4785H22.0179L20.0095 16.0002L22.0179 12.522ZM18.4605 16.0002L17.227 18.137H14.7598L13.5261 16.0002L14.7598 13.8635H17.2269L18.4605 16.0002ZM15.9933 11.7266L16.4524 12.5219H15.5343L15.9933 11.7266ZM12.2924 13.8635H13.2107L12.7516 14.6587L12.2924 13.8635ZM12.2924 18.137L12.7516 17.3417L13.2108 18.137H12.2924ZM15.9933 20.2737L15.5343 19.4785H16.4524L15.9933 20.2737ZM19.6942 18.137H18.7759L19.2351 17.3417L19.6942 18.137ZM18.7759 13.8635H19.6942L19.2351 14.6587L18.7759 13.8635Z" fill="#0052B4"/>
<path d="M25.9552 3.47827H6.03556C4.57537 4.64127 3.32312 6.0539 2.34375 7.65221H29.647C28.6676 6.05396 27.4153 4.64127 25.9552 3.47827Z" fill="#0052B4"/>
<path d="M6.03556 28.5216H25.9551C27.4153 27.3586 28.6676 25.946 29.6469 24.3477H2.34375C3.32319 25.9459 4.57544 27.3586 6.03556 28.5216Z" fill="#0052B4"/>
</svg>
