<svg width="32" height="32" viewBox="0 0 32 32" fill="none" xmlns="http://www.w3.org/2000/svg">
<path d="M16 32C24.8366 32 32 24.8366 32 16C32 7.16344 24.8366 0 16 0C7.16344 0 0 7.16344 0 16C0 24.8366 7.16344 32 16 32Z" fill="#FFDA44"/>
<path d="M25.7399 3.3075C23.0419 1.23369 19.6647 0 15.9989 0C12.333 0 8.95575 1.23375 6.25781 3.3075L15.9989 13.0485L25.7399 3.3075Z" fill="#6DA544"/>
<path d="M3.30744 6.25879C1.23375 8.95673 0 12.3339 0 15.9998C0 19.6657 1.23375 23.0429 3.3075 25.7409L13.0486 15.9998L3.30744 6.25879Z" fill="black"/>
<path d="M6.25781 28.6924C8.95581 30.7662 12.333 31.9999 15.9989 31.9999C19.6647 31.9999 23.0419 30.7662 25.7399 28.6924L15.9989 18.9514L6.25781 28.6924Z" fill="#6DA544"/>
<path d="M28.6863 25.7408C30.7601 23.0429 31.9938 19.6657 31.9938 15.9998C31.9938 12.3339 30.7601 8.95673 28.6863 6.25879L18.9453 15.9998L28.6863 25.7408Z" fill="black"/>
</svg>
