<svg width="32" height="32" viewBox="0 0 32 32" fill="none" xmlns="http://www.w3.org/2000/svg">
<path d="M16 32C24.8366 32 32 24.8366 32 16C32 7.16344 24.8366 0 16 0C7.16344 0 0 7.16344 0 16C0 24.8366 7.16344 32 16 32Z" fill="#F0F0F0"/>
<path d="M9.73981 10.4348H31.0054C28.7448 4.342 22.8801 0 16.0007 0C11.5823 0 7.58275 1.79119 4.6875 4.68681L9.73981 10.4348Z" fill="black"/>
<path d="M9.73981 21.5652H31.0054C28.7448 27.658 22.8801 32 16.0007 32C11.5823 32 7.58275 30.2088 4.6875 27.3132L9.73981 21.5652Z" fill="#6DA544"/>
<path d="M4.68628 4.68628C-1.56209 10.9347 -1.56209 21.0653 4.68628 27.3138C7.26834 24.7317 9.75166 22.2484 16 16L4.68628 4.68628Z" fill="#D80027"/>
<path d="M6.34894 12.5215L7.227 14.3577L9.21006 13.8994L8.32194 15.7307L9.91663 16.9953L7.93119 17.4427L7.93669 19.478L6.34894 18.2047L4.76112 19.478L4.76669 17.4427L2.78125 16.9953L4.37588 15.7307L3.48787 13.8994L5.47081 14.3577L6.34894 12.5215Z" fill="#F0F0F0"/>
</svg>
