<svg width="32" height="32" viewBox="0 0 32 32" fill="none" xmlns="http://www.w3.org/2000/svg">
<path d="M16 32C24.8366 32 32 24.8366 32 16C32 7.16344 24.8366 0 16 0C7.16344 0 0 7.16344 0 16C0 24.8366 7.16344 32 16 32Z" fill="#338AF3"/>
<path d="M25.0479 16.1738H6.96094C6.96094 17.4225 8.0485 18.4347 9.29706 18.4347H9.22181C9.22181 19.6834 10.234 20.6956 11.4827 20.6956C11.4827 21.9443 12.4949 22.9565 13.7436 22.9565H18.2653C19.514 22.9565 20.5262 21.9443 20.5262 20.6956C21.7749 20.6956 22.7871 19.6834 22.7871 18.4347H22.7118C23.9602 18.4347 25.0479 17.4225 25.0479 16.1738Z" fill="#FFDA44"/>
<path d="M22.2639 13.218C22.2639 16.6758 19.4608 19.4789 16.0031 19.4789C12.5452 19.4789 9.74219 16.6758 9.74219 13.218" fill="#338AF3"/>
<path d="M20.7831 13.2169L18.829 14.1361L19.8696 16.0286L17.7477 15.6226L17.4789 17.7661L16.0009 16.1896L14.5229 17.7661L14.2541 15.6226L12.1322 16.0285L13.1727 14.136L11.2188 13.2169L13.1728 12.2978L12.1322 10.4053L14.2541 10.8112L14.523 8.66772L16.0009 10.2443L17.4789 8.66772L17.7477 10.8112L19.8697 10.4053L18.8291 12.2978L20.7831 13.2169Z" fill="#FFDA44"/>
</svg>
