<svg width="32" height="32" viewBox="0 0 32 32" fill="none" xmlns="http://www.w3.org/2000/svg">
<g clip-path="url(#clip0_24085_396444)">
<path d="M16 32C24.8366 32 32 24.8366 32 16C32 7.16344 24.8366 0 16 0C7.16344 0 0 7.16344 0 16C0 24.8366 7.16344 32 16 32Z" fill="#F0F0F0"/>
<path d="M15.9983 0C9.65494 0 4.17394 3.69156 1.58594 9.0435H30.4106C27.8227 3.69156 22.3416 0 15.9983 0Z" fill="black"/>
<path d="M15.9983 32.0005C9.65494 32.0005 4.17394 28.309 1.58594 22.957H30.4106C27.8227 28.309 22.3416 32.0005 15.9983 32.0005Z" fill="#496E2D"/>
<path d="M31.2444 11.1309H0.755562C0.265437 12.6664 0 14.3024 0 16.0004C0 17.6985 0.265437 19.3344 0.755562 20.87H31.2444C31.7346 19.3344 32 17.6985 32 16.0004C32 14.3024 31.7346 12.6664 31.2444 11.1309Z" fill="#A2001D"/>
<path d="M20.9878 7.39409L19.093 6.51953L16.0056 13.5102L12.9182 6.51953L11.0234 7.39409L14.8564 16.0003L11.0234 24.6065L12.9182 25.481L16.0056 18.4903L19.093 25.481L20.9878 24.6065L17.1548 16.0003L20.9878 7.39409Z" fill="#F0F0F0"/>
<path d="M17.2926 8.21811C16.5591 7.41704 16.0057 6.95654 16.0057 6.95654C16.0057 6.95654 15.4523 7.41698 14.7188 8.21811V23.7819C15.4523 24.583 16.0057 25.0435 16.0057 25.0435C16.0057 25.0435 16.5591 24.5831 17.2926 23.7819V8.21811Z" fill="#F0F0F0"/>
<path d="M12.5234 11.202V20.7965C13.2986 22.17 14.2472 23.2957 14.9583 24.0421V7.95654C14.2472 8.70286 13.2985 9.82867 12.5234 11.202Z" fill="#A2001D"/>
<path d="M19.4817 11.202C18.7065 9.8286 17.7579 8.70286 17.0469 7.95654V24.0421C17.7578 23.2957 18.7065 22.17 19.4817 20.7965V11.202Z" fill="#A2001D"/>
<path d="M19.4766 11.2026V20.7971C20.2613 19.4066 20.8679 17.7622 20.8679 15.9999C20.8679 14.2376 20.2613 12.5933 19.4766 11.2026Z" fill="black"/>
<path d="M12.5241 11.2026V20.7971C11.7394 19.4066 11.1328 17.7622 11.1328 15.9999C11.1328 14.2376 11.7394 12.5933 12.5241 11.2026Z" fill="black"/>
</g>
<defs>
<clipPath id="clip0_24085_396444">
<rect width="32" height="32" fill="white"/>
</clipPath>
</defs>
</svg>
