<svg width="32" height="32" viewBox="0 0 32 32" fill="none" xmlns="http://www.w3.org/2000/svg">
<path d="M31.0048 21.5654C31.6479 19.8321 32 17.9573 32 16.0002C32 14.0431 31.6479 12.1683 31.0048 10.435L16 9.0437L0.995188 10.435C0.352063 12.1683 0 14.0431 0 16.0002C0 17.9573 0.352063 19.8321 0.995188 21.5654L16 22.9567L31.0048 21.5654Z" fill="#F0F0F0"/>
<path d="M16.0049 32C22.8842 32 28.749 27.658 31.0096 21.5652H1C3.26075 27.658 9.12537 32 16.0049 32Z" fill="#D80027"/>
<path d="M16.0049 0C9.12537 0 3.26075 4.342 1 10.4348H31.0097C28.749 4.342 22.8842 0 16.0049 0Z" fill="#6DA544"/>
<path d="M4.68628 4.68628C-1.56209 10.9347 -1.56209 21.0653 4.68628 27.3138C6.31722 25.6828 7.90909 24.091 10.4348 21.5653V10.4348L4.68628 4.68628Z" fill="black"/>
</svg>
