<svg width="32" height="32" viewBox="0 0 32 32" fill="none" xmlns="http://www.w3.org/2000/svg">
<path d="M16 32C24.8366 32 32 24.8366 32 16C32 7.16344 24.8366 0 16 0C7.16344 0 0 7.16344 0 16C0 24.8366 7.16344 32 16 32Z" fill="#D80027"/>
<path d="M23.8293 16.0001L20.6321 17.504L22.3347 20.6007L18.8626 19.9364L18.4229 23.4436L16.0044 20.8642L13.5862 23.4436L13.1463 19.9364L9.6745 20.6006L11.377 17.5039L8.17969 16.0001L11.377 14.4963L9.6745 11.3996L13.1461 12.0639L13.5863 8.55664L16.0044 11.1361L18.423 8.55664L18.8626 12.0639L22.3348 11.3996L20.6322 14.4965L23.8293 16.0001Z" fill="#FFDA44"/>
<path d="M16.0024 20.8697C18.6918 20.8697 20.8719 18.6896 20.8719 16.0002C20.8719 13.3108 18.6918 11.1306 16.0024 11.1306C13.313 11.1306 11.1328 13.3108 11.1328 16.0002C11.1328 18.6896 13.313 20.8697 16.0024 20.8697Z" fill="#D80027"/>
<path d="M13.5662 16.0002C13.4489 16.0002 13.3331 16.0062 13.2188 16.0176C13.2229 16.6921 13.4669 17.3094 13.8699 17.7889C14.0849 17.2104 14.4059 16.6828 14.8108 16.2313C14.4241 16.0826 14.0047 16.0002 13.5662 16.0002Z" fill="#FFDA44"/>
<path d="M15.0625 18.6212C15.355 18.7257 15.6699 18.783 15.9984 18.783C16.3269 18.783 16.6419 18.7257 16.9344 18.6212C16.7749 17.9954 16.4458 17.4368 15.9984 16.9978C15.5511 17.4367 15.2219 17.9954 15.0625 18.6212Z" fill="#FFDA44"/>
<path d="M18.4131 14.6093C17.932 13.7777 17.0334 13.2175 16.0034 13.2175C14.9734 13.2175 14.0749 13.7776 13.5938 14.6093C14.4709 14.6137 15.2934 14.8522 16.0034 15.264C16.7135 14.8522 17.5359 14.6137 18.4131 14.6093Z" fill="#FFDA44"/>
<path d="M17.1875 16.2315C17.5923 16.683 17.9133 17.2105 18.1283 17.7892C18.5313 17.3096 18.7753 16.6923 18.7795 16.0179C18.6651 16.0064 18.5493 16.0005 18.4321 16.0005C17.9937 16.0004 17.5743 16.0828 17.1875 16.2315Z" fill="#FFDA44"/>
</svg>
