<svg width="32" height="32" viewBox="0 0 32 32" fill="none" xmlns="http://www.w3.org/2000/svg">
<path d="M30.4107 9.0435C27.8227 3.69156 22.3417 0 15.9983 0C9.65494 0 4.17394 3.69156 1.58594 9.0435L15.9983 10.4348L30.4107 9.0435Z" fill="#D80027"/>
<path d="M1.58594 22.9567C4.17394 28.3087 9.65494 32.0002 15.9983 32.0002C22.3417 32.0002 27.8227 28.3087 30.4107 22.9567L15.9983 21.5654L1.58594 22.9567Z" fill="#D80027"/>
<path d="M30.4124 9.04346H1.58763C0.5705 11.1469 0 13.5068 0 16C0 18.4932 0.5705 20.853 1.58763 22.9565H30.4123C31.4296 20.853 32 18.4932 32 16C32 13.5068 31.4296 11.1469 30.4124 9.04346Z" fill="#0052B4"/>
<path d="M16.0027 21.5654C19.0763 21.5654 21.5679 19.0738 21.5679 16.0002C21.5679 12.9267 19.0763 10.4351 16.0027 10.4351C12.9291 10.4351 10.4375 12.9267 10.4375 16.0002C10.4375 19.0738 12.9291 21.5654 16.0027 21.5654Z" fill="#F0F0F0"/>
</svg>
