<svg width="32" height="32" viewBox="0 0 32 32" fill="none" xmlns="http://www.w3.org/2000/svg">
<path d="M16 32C24.8366 32 32 24.8366 32 16C32 7.16344 24.8366 0 16 0C7.16344 0 0 7.16344 0 16C0 24.8366 7.16344 32 16 32Z" fill="#F0F0F0"/>
<path d="M15.9983 0C9.65494 0 4.17394 3.69156 1.58594 9.0435H30.4106C27.8227 3.69156 22.3416 0 15.9983 0Z" fill="#D80027"/>
<path d="M15.9983 32C22.3416 32 27.8227 28.3085 30.4107 22.9565H1.58594C4.17394 28.3085 9.65494 32 15.9983 32Z" fill="#D80027"/>
<path d="M20.1682 18.7826L15.9943 11.1304L11.8203 18.7826H14.9508V20.8695H17.0378V18.7826H20.1682Z" fill="#6DA544"/>
</svg>
