<svg width="32" height="32" viewBox="0 0 32 32" fill="none" xmlns="http://www.w3.org/2000/svg">
<path d="M0 16.0001C0 18.4932 0.570438 20.8531 1.58763 22.9566L16 23.6523L30.4124 22.9567C31.4296 20.8531 32 18.4932 32 16.0001C32 13.507 31.4296 11.1471 30.4124 9.04359L16 8.3479L1.58763 9.04353C0.570438 11.1471 0 13.507 0 16.0001Z" fill="#F0F0F0"/>
<path d="M15.9983 31.9998C22.3416 31.9998 27.8227 28.3082 30.4107 22.9563H1.58594C4.17394 28.3082 9.65494 31.9998 15.9983 31.9998Z" fill="#6DA544"/>
<path d="M15.9983 0C9.65494 0 4.17394 3.69156 1.58594 9.0435H30.4106C27.8227 3.69156 22.3416 0 15.9983 0Z" fill="#0052B4"/>
<path d="M17.0451 15.6525V11.8264H14.9581V15.6525L12.4375 18.1732C13.1706 19.3731 14.4925 20.1742 16.0016 20.1742C17.5107 20.1742 18.8326 19.3731 19.5658 18.1732L17.0451 15.6525Z" fill="black"/>
</svg>
