<svg width="32" height="32" viewBox="0 0 32 32" fill="none" xmlns="http://www.w3.org/2000/svg">
<path d="M16 32C24.8366 32 32 24.8366 32 16C32 7.16344 24.8366 0 16 0C7.16344 0 0 7.16344 0 16C0 24.8366 7.16344 32 16 32Z" fill="#F0F0F0"/>
<path d="M3.65625 5.81825H28.3418C27.43 4.71418 26.3725 3.73512 25.1994 2.90918H6.79856C5.6255 3.73499 4.56806 4.71412 3.65625 5.81825Z" fill="#F0F0F0"/>
<path d="M0 15.9999C0 16.4903 0.0233125 16.9752 0.0665 17.4545H31.9335C31.9767 16.9752 32 16.4903 32 15.9999C32 15.5095 31.9767 15.0246 31.9335 14.5454H0.0665C0.0233125 15.0246 0 15.5095 0 15.9999Z" fill="#F0F0F0"/>
<path d="M1.74381 23.273H30.2543C30.7254 22.3514 31.1097 21.3782 31.3966 20.364H0.601562C0.888375 21.3782 1.27275 22.3515 1.74381 23.273Z" fill="#F0F0F0"/>
<path d="M6.79856 29.0907H25.1994C26.3724 28.2648 27.4299 27.2857 28.3417 26.1816H3.65625C4.56806 27.2856 5.6255 28.2648 6.79856 29.0907Z" fill="#F0F0F0"/>
<path d="M0.601562 11.6364H31.3967C31.1098 10.6221 30.7255 9.64886 30.2544 8.72729H1.74388C1.27281 9.64886 0.888438 10.6221 0.601562 11.6364Z" fill="#F0F0F0"/>
<path d="M7.64844 2.90906H25.1967C22.5942 1.07669 19.4211 0 15.9963 0C13.9093 0 10.2509 1.07669 7.64844 2.90906Z" fill="#D80027"/>
<path d="M15.3047 8.72743H30.2556C29.7235 7.68662 29.0809 6.71167 28.3431 5.81836H15.3047V8.72743Z" fill="#D80027"/>
<path d="M15.3047 14.5455H31.9338C31.8438 13.5467 31.6629 12.5739 31.3979 11.6365H15.3047V14.5455Z" fill="#D80027"/>
<path d="M0.5985 20.3637H31.3935C31.6586 19.4263 31.8395 18.4535 31.9295 17.4546H0.0625C0.1525 18.4535 0.333375 19.4262 0.5985 20.3637Z" fill="#D80027"/>
<path d="M3.65469 26.1823H28.3402C29.078 25.2888 29.7206 24.3139 30.2527 23.2732H1.74219C2.27425 24.314 2.91687 25.2889 3.65469 26.1823Z" fill="#D80027"/>
<path d="M15.9895 31.9998C19.4143 31.9998 22.5874 30.9232 25.1899 29.0908H6.78906C9.39156 30.9232 12.5647 31.9998 15.9895 31.9998Z" fill="#D80027"/>
<path d="M0.598437 11.6364C0.333312 12.5739 0.1525 13.5466 0.0625 14.5454H15.996V0C8.67225 0 2.49794 4.92075 0.598437 11.6364Z" fill="#0052B4"/>
<path d="M9.5215 4.17383L10.5574 7.36227H13.9103L11.1979 9.33302L12.2338 12.5216L9.5215 10.551L6.80906 12.5216L7.84519 9.33302L5.13281 7.36227H8.4855L9.5215 4.17383Z" fill="#F0F0F0"/>
</svg>
