<svg width="32" height="32" viewBox="0 0 32 32" fill="none" xmlns="http://www.w3.org/2000/svg">
<path d="M1.58763 9.04366C0.5705 11.1472 0 13.507 0 16.0002C0 18.4933 0.5705 20.8532 1.58763 22.9567L16 24.348L30.4124 22.9567C31.4295 20.8532 32 18.4933 32 16.0002C32 13.507 31.4295 11.1472 30.4124 9.04366L16 7.65234L1.58763 9.04366Z" fill="black"/>
<path d="M1.58594 22.9563C4.17381 28.3082 9.65438 31.9998 15.9978 31.9998C22.3411 31.9998 27.8217 28.3082 30.4096 22.9563H1.58594Z" fill="#496E2D"/>
<path d="M1.58594 9.0435H30.4096C27.8217 3.69156 22.3411 0 15.9978 0C9.65438 0 4.17381 3.69156 1.58594 9.0435Z" fill="#D80027"/>
<path d="M19.7213 13.0742L21.0341 14.8833L23.1601 14.1939L21.8452 16.0014L23.1579 17.8104L21.0326 17.1184L19.7177 18.9259L19.7191 16.6908L17.5938 15.9988L19.7199 15.3095L19.7213 13.0742Z" fill="#F0F0F0"/>
<path d="M16.1402 20.5218C13.643 20.5218 11.6185 18.4973 11.6185 16.0001C11.6185 13.5028 13.643 11.4783 16.1402 11.4783C16.9189 11.4783 17.6516 11.6752 18.2912 12.0218C17.2877 11.0405 15.9154 10.4348 14.4011 10.4348C11.3275 10.4348 8.83594 12.9264 8.83594 16C8.83594 19.0736 11.3276 21.5652 14.4011 21.5652C15.9155 21.5652 17.2877 20.9595 18.2912 19.9782C17.6515 20.3249 16.9189 20.5218 16.1402 20.5218Z" fill="#F0F0F0"/>
</svg>
