<svg width="32" height="32" viewBox="0 0 32 32" fill="none" xmlns="http://www.w3.org/2000/svg">
<path d="M32 16C32 24.8365 24.8365 32 16 32C7.1635 32 0 24.8365 0 16C0.695625 16 16 13.9131 16 13.9131L32 16Z" fill="#D80027"/>
<path d="M0 16C0 7.1635 7.1635 0 16 0C24.8365 0 32 7.1635 32 16" fill="#0052B4"/>
<path d="M11.8244 11.1305C11.8244 9.97799 10.89 9.04361 9.73744 9.04361C9.20275 9.04361 8.71544 9.24486 8.34613 9.57542V8.34792H9.04175V6.95661H8.34613V6.26099H6.95481V6.95661H6.25919V8.34792H6.95481V9.57542C6.5855 9.24486 6.09819 9.04361 5.5635 9.04361C4.41094 9.04361 3.47656 9.97799 3.47656 11.1305C3.47656 11.7485 3.74537 12.3035 4.17219 12.6857V13.9132H11.1287V12.6857C11.5556 12.3035 11.8244 11.7485 11.8244 11.1305Z" fill="#FFDA44"/>
</svg>
