<svg width="32" height="32" viewBox="0 0 32 32" fill="none" xmlns="http://www.w3.org/2000/svg">
<g clip-path="url(#clip0_24085_395840)">
<path d="M16 32C24.8366 32 32 24.8366 32 16C32 7.16344 24.8366 0 16 0C7.16344 0 0 7.16344 0 16C0 24.8366 7.16344 32 16 32Z" fill="#F0F0F0"/>
<path d="M10.4375 15.9998V31.0047C12.1708 31.6478 14.0456 31.9998 16.0027 31.9998C24.8392 31.9998 32.0027 24.8363 32.0027 15.9998C32.0027 7.16334 10.4375 15.9998 10.4375 15.9998Z" fill="#6DA544"/>
<path d="M16.0027 0C14.0456 0 12.1708 0.352063 10.4375 0.995188V16C10.4375 16 24.6288 16 32.0027 16C32.0027 7.1635 24.8392 0 16.0027 0Z" fill="#D80027"/>
</g>
<defs>
<clipPath id="clip0_24085_395840">
<rect width="32" height="32" fill="white"/>
</clipPath>
</defs>
</svg>
