<svg width="32" height="32" viewBox="0 0 32 32" fill="none" xmlns="http://www.w3.org/2000/svg">
<path d="M16 32C24.8366 32 32 24.8366 32 16C32 7.16344 24.8366 0 16 0C7.16344 0 0 7.16344 0 16C0 24.8366 7.16344 32 16 32Z" fill="#F0F0F0"/>
<path d="M15.3047 15.9991H32.0003C32.0003 14.5549 31.8078 13.1561 31.4491 11.8252H15.3047V15.9991Z" fill="#D80027"/>
<path d="M15.3047 7.65172H29.6519C28.6725 6.05347 27.4203 4.64078 25.9601 3.47778H15.3047V7.65172Z" fill="#D80027"/>
<path d="M16.0067 31.999C19.7722 31.999 23.2333 30.6975 25.9665 28.5208H6.04688C8.78006 30.6975 12.2411 31.999 16.0067 31.999Z" fill="#D80027"/>
<path d="M2.35187 24.3473H29.6551C30.4414 23.0643 31.0512 21.6617 31.4523 20.1733H0.554688C0.95575 21.6617 1.56556 23.0643 2.35187 24.3473Z" fill="#D80027"/>
<path d="M16 16C16 7.1635 16 6.12175 16 0C7.1635 0 0 7.1635 0 16H16Z" fill="#0052B4"/>
<path d="M10.6413 13.6954C8.45619 13.6954 6.68481 11.9239 6.68481 9.73889C6.68481 7.55382 8.45625 5.78238 10.6413 5.78238C11.3226 5.78238 11.9637 5.9547 12.5234 6.25795C11.6454 5.39938 10.4446 4.86938 9.11956 4.86938C6.43025 4.86938 4.25 7.04957 4.25 9.73895C4.25 12.4283 6.43025 14.6085 9.11956 14.6085C10.4446 14.6085 11.6454 14.0785 12.5234 13.2199C11.9637 13.5231 11.3227 13.6954 10.6413 13.6954Z" fill="#FFDA44"/>
<path d="M11.7605 6.95654L12.4629 8.42542L14.0492 8.05892L13.3389 9.52386L14.6146 10.5355L13.0262 10.8936L13.0307 12.5218L11.7605 11.5032L10.4902 12.5218L10.4946 10.8936L8.90625 10.5355L10.182 9.52386L9.47156 8.05892L11.058 8.42542L11.7605 6.95654Z" fill="#FFDA44"/>
</svg>
