<svg width="32" height="32" viewBox="0 0 32 32" fill="none" xmlns="http://www.w3.org/2000/svg">
<path d="M16 32C24.8366 32 32 24.8366 32 16C32 7.16344 24.8366 0 16 0C7.16344 0 0 7.16344 0 16C0 24.8366 7.16344 32 16 32Z" fill="#D80027"/>
<path d="M26.4321 8.3479H5.5625V23.6523H26.4321V8.3479Z" fill="#6DA544"/>
<path d="M18.5777 20.5216C16.0805 20.5216 14.056 18.4971 14.056 15.9998C14.056 13.5026 16.0805 11.4781 18.5777 11.4781C19.3564 11.4781 20.0891 11.6749 20.7287 12.0216C19.7252 11.0403 18.3531 10.4346 16.8386 10.4346C13.7651 10.4346 11.2734 12.9262 11.2734 15.9998C11.2734 19.0733 13.7651 21.5649 16.8386 21.5649C18.3531 21.5649 19.7253 20.9593 20.7287 19.9779C20.0891 20.3247 19.3564 20.5216 18.5777 20.5216Z" fill="#F0F0F0"/>
</svg>
