<svg width="32" height="32" viewBox="0 0 32 32" fill="none" xmlns="http://www.w3.org/2000/svg">
<g clip-path="url(#clip0_24085_394667)">
<path d="M1.94531 8.34781L15.9999 9.73913L30.0544 8.34781C27.3407 3.37431 22.0646 0 15.9999 0C9.93519 0 4.659 3.37431 1.94531 8.34781Z" fill="#D80027"/>
<path d="M1.94544 23.6524L16 25.0437L30.0546 23.6524C31.2948 21.3792 32 18.7721 32 16.0002L16 14.6089L0 16.0002C0 18.7721 0.705188 21.3792 1.94544 23.6524Z" fill="#FFDA44"/>
<path d="M1.94544 8.34766C0.705188 10.6208 0 13.228 0 15.9998H32C32 13.228 31.2948 10.6208 30.0546 8.34766H16H1.94544Z" fill="#0052B4"/>
<path d="M15.9999 32.0002C22.0646 32.0002 27.3407 28.6258 30.0544 23.6523H1.94531C4.659 28.6258 9.93519 32.0002 15.9999 32.0002Z" fill="#6DA544"/>
</g>
<defs>
<clipPath id="clip0_24085_394667">
<rect width="32" height="32" fill="white"/>
</clipPath>
</defs>
</svg>
