<svg width="32" height="32" viewBox="0 0 32 32" fill="none" xmlns="http://www.w3.org/2000/svg">
<g clip-path="url(#clip0_24085_395136)">
<path d="M16 32C24.8366 32 32 24.8366 32 16C32 7.16344 24.8366 0 16 0C7.16344 0 0 7.16344 0 16C0 24.8366 7.16344 32 16 32Z" fill="#F0F0F0"/>
<path d="M32.0044 16C32.0044 9.65665 28.3129 4.17565 22.9609 1.58765V30.4123C28.3129 27.8244 32.0044 22.3434 32.0044 16Z" fill="#D80027"/>
<path d="M0 16C0 22.3434 3.69156 27.8244 9.0435 30.4124V1.58765C3.69156 4.17565 0 9.65665 0 16Z" fill="#6DA544"/>
<path d="M11.8203 16.0002C11.8203 18.3054 13.6891 20.1741 15.9943 20.1741C18.2995 20.1741 20.1682 18.3054 20.1682 16.0002V14.6089H11.8203V16.0002Z" fill="#6DA544"/>
<path d="M21.568 13.2172H17.3941C17.3941 12.4489 16.7711 11.8259 16.0027 11.8259C15.2344 11.8259 14.6114 12.4489 14.6114 13.2172H10.4375C10.4375 13.9857 11.1068 14.6085 11.8751 14.6085H11.8288C11.8288 15.377 12.4517 15.9998 13.2201 15.9998C13.2201 16.7683 13.843 17.3912 14.6114 17.3912H17.3941C18.1625 17.3912 18.7854 16.7683 18.7854 15.9998C19.5538 15.9998 20.1767 15.377 20.1767 14.6085H20.1303C20.8987 14.6085 21.568 13.9857 21.568 13.2172Z" fill="#FF9811"/>
</g>
<defs>
<clipPath id="clip0_24085_395136">
<rect width="32" height="32" fill="white"/>
</clipPath>
</defs>
</svg>
