<svg width="32" height="32" viewBox="0 0 32 32" fill="none" xmlns="http://www.w3.org/2000/svg">
<g clip-path="url(#clip0_24085_395073)">
<path d="M22.9606 1.58763C20.8571 0.5705 18.4972 0 16.0041 0C13.5109 0 11.1511 0.5705 9.04756 1.58763L7.65625 16L9.04756 30.4124C11.1511 31.4295 13.5109 32 16.0041 32C18.4972 32 20.8571 31.4295 22.9606 30.4124L24.3519 16L22.9606 1.58763Z" fill="#FFDA44"/>
<path d="M9.0435 1.58813C3.69163 4.17607 0 9.65664 0 15.9999C0 22.3433 3.69163 27.8238 9.0435 30.4118V1.58813Z" fill="#0052B4"/>
<path d="M22.9609 1.58813V30.4118C28.3128 27.8238 32.0044 22.3433 32.0044 15.9999C32.0044 9.65664 28.3128 4.17607 22.9609 1.58813Z" fill="#D80027"/>
<path d="M21.5679 12.5887H17.7418C17.7418 11.6282 16.9632 10.8496 16.0027 10.8496C15.0422 10.8496 14.2636 11.6282 14.2636 12.5887H10.4375C10.4375 13.5344 11.2613 14.301 12.2069 14.301H12.1499C12.1499 15.2467 12.9165 16.0134 13.8623 16.0134C13.8623 16.8507 14.4636 17.5465 15.2579 17.6952L13.9085 20.7416C14.5551 21.0044 15.2617 21.1505 16.0027 21.1505C16.7436 21.1505 17.4503 21.0044 18.0968 20.7416L16.7475 17.6952C17.5418 17.5465 18.1431 16.8507 18.1431 16.0134C19.0889 16.0134 19.8555 15.2467 19.8555 14.301H19.7984C20.7441 14.301 21.5679 13.5344 21.5679 12.5887Z" fill="#FF9811"/>
<path d="M16.0031 14.9568L13.7422 16.0003V18.0872L16.0031 19.4785L18.2639 18.0872V16.0003L16.0031 14.9568Z" fill="#0052B4"/>
<path d="M18.2639 13.9131H13.7422V16H18.2639V13.9131Z" fill="#D80027"/>
</g>
<defs>
<clipPath id="clip0_24085_395073">
<rect width="32" height="32" fill="white"/>
</clipPath>
</defs>
</svg>
