<svg width="32" height="32" viewBox="0 0 32 32" fill="none" xmlns="http://www.w3.org/2000/svg">
<path d="M16.0031 32C17.9602 32 19.835 31.648 21.5682 31.0048L22.2639 16L21.5683 0.995188C19.835 0.352063 17.9602 0 16.0031 0C14.0459 0 12.1711 0.352063 10.4379 0.995188L9.74219 16L10.4378 31.0048C12.1711 31.648 14.0459 32 16.0031 32Z" fill="#0052B4"/>
<path d="M0 16.0002C0 22.8796 4.342 28.7443 10.4348 31.005V0.995361C4.342 3.25605 0 9.12074 0 16.0002Z" fill="#A2001D"/>
<path d="M21.5625 0.995361V31.005C27.6553 28.7443 31.9973 22.8796 31.9973 16.0002C31.9973 9.12074 27.6553 3.25605 21.5625 0.995361Z" fill="#A2001D"/>
<path d="M9.03975 16H7.64844V21.5652H9.03975V16Z" fill="#FFDA44"/>
<path d="M3.47725 16.0002H2.08594V21.5654H3.47725V16.0002Z" fill="#FFDA44"/>
<path d="M5.56319 19.4774C6.33159 19.4774 6.9545 18.8545 6.9545 18.0861C6.9545 17.3177 6.33159 16.6948 5.56319 16.6948C4.79479 16.6948 4.17188 17.3177 4.17188 18.0861C4.17188 18.8545 4.79479 19.4774 5.56319 19.4774Z" fill="#FFDA44"/>
<path d="M5.56281 13.9125C5.947 13.9125 6.25844 13.601 6.25844 13.2169C6.25844 12.8327 5.947 12.5212 5.56281 12.5212C5.17863 12.5212 4.86719 12.8327 4.86719 13.2169C4.86719 13.601 5.17863 13.9125 5.56281 13.9125Z" fill="#FFDA44"/>
<path d="M6.9545 20.1738H4.17188V21.5651H6.9545V20.1738Z" fill="#FFDA44"/>
<path d="M6.9545 14.6084H4.17188V15.9997H6.9545V14.6084Z" fill="#FFDA44"/>
<path d="M5.57131 8.34741L6.06406 9.86366H7.65831L6.36863 10.8008L6.861 12.317L5.57131 11.3799L4.28169 12.317L4.77406 10.8008L3.48438 9.86366H5.07863L5.57131 8.34741Z" fill="#FFDA44"/>
</svg>
