<svg width="32" height="32" viewBox="0 0 32 32" fill="none" xmlns="http://www.w3.org/2000/svg">
<path d="M16 32C24.8366 32 32 24.8366 32 16C32 7.16344 24.8366 0 16 0C7.16344 0 0 7.16344 0 16C0 24.8366 7.16344 32 16 32Z" fill="#D80027"/>
<path d="M25.4501 13.1307H18.2267L15.9946 6.26099L13.7624 13.1307H6.53906L12.3829 17.3765L10.1507 24.2464L15.9946 20.0006L21.8384 24.2465L19.6063 17.3765L25.4501 13.1307ZM14.0184 16.845L14.7733 14.522H17.2158L17.9707 16.845V16.8451L15.9946 18.2808L14.0185 16.8451L14.0184 16.845ZM16.7638 13.1307H15.2254L15.9946 10.7632L16.7638 13.1307ZM19.1541 15.9852L18.6787 14.522H21.168L19.1541 15.9852ZM13.3104 14.522L12.8349 15.9852L10.821 14.522H13.3104ZM12.7971 20.6039L13.5664 18.2365L14.8111 19.1407L12.7971 20.6039ZM17.1781 19.1408L18.4228 18.2365L19.192 20.604L17.1781 19.1408Z" fill="#FFDA44"/>
</svg>
