<svg width="32" height="32" viewBox="0 0 32 32" fill="none" xmlns="http://www.w3.org/2000/svg">
<g clip-path="url(#clip0_24085_394816)">
<path d="M16 32C24.8366 32 32 24.8366 32 16C32 7.16344 24.8366 0 16 0C7.16344 0 0 7.16344 0 16C0 24.8366 7.16344 32 16 32Z" fill="#F0F0F0"/>
<path d="M8.64887 22.2612L4.6875 27.3135C7.58275 30.2092 11.5823 32.0004 16.0007 32.0004C22.6151 32.0004 28.2909 27.986 30.7276 22.2612H8.64887Z" fill="#FFDA44"/>
<path d="M30.7525 9.79706C28.3294 4.04138 22.6374 0 16.0007 0C11.5823 0 7.58275 1.79119 4.6875 4.68681L8.69437 9.79706H30.7525Z" fill="#496E2D"/>
<path d="M3.47656 11.7681V20.1738H31.4472C31.806 18.8431 31.9983 17.4441 31.9983 15.9999C31.9983 14.5348 31.8009 13.1161 31.432 11.7681H3.47656Z" fill="black"/>
<path d="M4.68628 4.68604C-1.56209 10.9344 -1.56209 21.0651 4.68628 27.3135C7.26834 24.7315 9.75166 22.2482 16 15.9998L4.68628 4.68604Z" fill="#A2001D"/>
<path d="M6.47463 11.8262L7.51056 15.0147H10.8634L8.15106 16.9854L9.18694 20.174L6.47463 18.2034L3.76219 20.174L4.79831 16.9854L2.08594 15.0147H5.43856L6.47463 11.8262Z" fill="#FFDA44"/>
<path d="M9.50931 16H3.44531V18.7826H9.50931V16Z" fill="#F0F0F0"/>
<path d="M10.6502 12.81L9.66637 11.8262L6.46962 15.0229L3.27287 11.8262L2.28906 12.81L5.48862 16.0039L2.28906 19.2035L3.27287 20.174L6.46962 16.983L9.66637 20.174L10.6502 19.2035L7.45062 16.0039L10.6502 12.81Z" fill="black"/>
</g>
<defs>
<clipPath id="clip0_24085_394816">
<rect width="32" height="32" fill="white"/>
</clipPath>
</defs>
</svg>
