<svg width="32" height="32" viewBox="0 0 32 32" fill="none" xmlns="http://www.w3.org/2000/svg">
<path d="M31.0048 21.5647C31.648 19.8314 32 17.9566 32 15.9995C32 14.0424 31.648 12.1675 31.0048 10.4343L16 9.04297L0.995188 10.4343C0.352063 12.1675 0 14.0424 0 15.9995C0 17.9566 0.352063 19.8314 0.995188 21.5647L16 22.956L31.0048 21.5647Z" fill="#6DA544"/>
<path d="M31.0096 10.4348C28.7489 4.342 22.8842 0 16.0048 0C9.12537 0 3.26069 4.342 1 10.4348H31.0096Z" fill="#FFDA44"/>
<path d="M16.0048 32C22.8842 32 28.7489 27.658 31.0096 21.5652H1C3.26069 27.658 9.12537 32 16.0048 32Z" fill="#D80027"/>
<path d="M26.9749 13.5366H18.5932L16.0031 5.56519L13.4129 13.5366H5.03125L11.8122 18.4632L9.22206 26.4348L16.0031 21.5652L22.7841 26.4347L20.194 18.4632L26.9749 13.5366Z" fill="#F0F0F0"/>
</svg>
