<svg width="32" height="32" viewBox="0 0 32 32" fill="none" xmlns="http://www.w3.org/2000/svg">
<g clip-path="url(#clip0_24085_394840)">
<path d="M16 32C24.8366 32 32 24.8366 32 16C32 7.16344 24.8366 0 16 0C7.16344 0 0 7.16344 0 16C0 24.8366 7.16344 32 16 32Z" fill="#F0F0F0"/>
<path d="M4.6795 27.3137C5.35069 27.9849 6.06681 28.5835 6.818 29.1105L29.1036 6.82484C28.5766 6.07365 27.9781 5.35753 27.3068 4.68634C26.6356 4.01515 25.9195 3.41665 25.1683 2.88965L2.88281 25.1753C3.40975 25.9264 4.00831 26.6425 4.6795 27.3137Z" fill="#A2001D"/>
<path d="M4.68571 4.68629C-0.362042 9.73404 -1.33104 17.3148 1.77664 23.3362L23.3355 1.77735C17.3141 -1.33034 9.73333 -0.361212 4.68571 4.68629Z" fill="#0052B4"/>
<path d="M27.3139 27.3137C32.3615 22.2661 33.3305 14.6853 30.2229 8.66382L8.66406 30.2227C14.6854 33.3304 22.2662 32.3614 27.3139 27.3137Z" fill="#496E2D"/>
<path d="M13.2129 9.04333L11.42 9.88664L12.3747 11.623L10.4279 11.2506L10.1812 13.2172L8.82519 11.7708L7.46913 13.2172L7.2225 11.2506L5.27563 11.623L6.23031 9.88658L4.4375 9.04333L6.23038 8.19995L5.27563 6.4637L7.22244 6.83607L7.46919 4.86938L8.82519 6.31589L10.1813 4.86938L10.4279 6.83607L12.3747 6.4637L11.4201 8.20001L13.2129 9.04333Z" fill="#FFDA44"/>
</g>
<defs>
<clipPath id="clip0_24085_394840">
<rect width="32" height="32" fill="white"/>
</clipPath>
</defs>
</svg>
