<svg width="32" height="32" viewBox="0 0 32 32" fill="none" xmlns="http://www.w3.org/2000/svg">
<g clip-path="url(#clip0_24085_396038)">
<path d="M16 32C24.8366 32 32 24.8366 32 16C32 7.16344 24.8366 0 16 0C7.16344 0 0 7.16344 0 16C0 24.8366 7.16344 32 16 32Z" fill="#F0F0F0"/>
<path d="M31.9056 17.7389C31.9056 17.7388 31.9057 17.7387 31.9057 17.7384L14.3591 0.0830078C13.5676 0.163695 12.793 0.30207 12.0398 0.493883C5.11862 2.25607 0 15.9998 0 15.9998C0 15.9998 22.3999 30.9895 24.9553 29.2601C25.4666 28.9141 25.9569 28.5393 26.4236 28.138L16.0247 17.7389H31.9056Z" fill="#0052B4"/>
<path d="M27.8261 16.0001L12.2653 0.439453C5.2305 2.12177 0 8.44964 0 16.0001C0 24.8366 7.1635 32.0001 16 32.0001C19.3518 32.0001 22.4623 30.9688 25.0331 29.2071L11.8261 16.0001H27.8261Z" fill="#D80027"/>
<path d="M15.2207 23.6244L13.2666 22.7053L14.3072 20.8129L12.1853 21.2188L11.9164 19.0752L10.4385 20.6518L8.96056 19.0752L8.69163 21.2188L6.56981 20.8128L7.61037 22.7053L5.65625 23.6244L7.61037 24.5435L6.56981 26.436L8.69175 26.0301L8.9605 28.1736L10.4385 26.5971L11.9164 28.1736L12.1853 26.0301L14.3071 26.4361L13.2666 24.5436L15.2207 23.6244Z" fill="#F0F0F0"/>
<path d="M13.9175 8.87394L12.4962 8.2055L13.2531 6.82906L11.7097 7.12431L11.5142 5.56519L10.4392 6.71187L9.36431 5.56519L9.16869 7.12431L7.62537 6.82906L8.38225 8.2055L6.96094 8.87394L10.4392 9.56969L13.9175 8.87394Z" fill="#F0F0F0"/>
<path d="M14.6057 8.87402C14.6057 11.1792 12.7369 13.048 10.4317 13.048C8.12656 13.048 6.25781 11.1792 6.25781 8.87402" fill="#F0F0F0"/>
</g>
<defs>
<clipPath id="clip0_24085_396038">
<rect width="32" height="32" fill="white"/>
</clipPath>
</defs>
</svg>
