<svg width="32" height="32" viewBox="0 0 32 32" fill="none" xmlns="http://www.w3.org/2000/svg">
<path d="M32 16C32 24.8365 24.8365 32 16 32C7.1635 32 0 24.8365 0 16C0 16.0038 16 0.00175 16 0C24.8365 0 32 7.1635 32 16Z" fill="#0052B4"/>
<path d="M15.9609 15.9998H16.0037C16.0037 15.9855 16.0037 15.9715 16.0037 15.957C15.9895 15.9713 15.9752 15.9856 15.9609 15.9998Z" fill="#F0F0F0"/>
<path d="M16 8.34781C16 5.5325 16 3.68781 16 0H15.9973C7.162 0.0015 0 7.16431 0 16H8.34781V11.2993L13.0486 16H15.9572C15.9715 15.9858 15.9858 15.9715 16.0001 15.9572C16.0001 14.8793 16.0001 13.9174 16.0001 13.0486L11.2992 8.34781H16Z" fill="#F0F0F0"/>
<path d="M8.09369 2.08643C5.59125 3.51136 3.51087 5.59174 2.08594 8.09418V15.9995H6.25988V6.26049V6.26036H15.999C15.999 4.94393 15.999 3.6898 15.999 2.08643H8.09369Z" fill="#D80027"/>
<path d="M15.9959 14.0322L10.3113 8.34766C10.3113 8.34766 8.34375 8.34778 8.34375 8.34766V8.34778L15.9958 15.9998H15.9959C15.9959 15.9998 15.9959 14.6431 15.9959 14.0322Z" fill="#D80027"/>
<path d="M27.7052 11.8721L28.0505 12.9349H29.1681L28.2639 13.5918L28.6093 14.6546L27.7052 13.9978L26.801 14.6546L27.1464 13.5918L26.2422 12.9349H27.3598L27.7052 11.8721Z" fill="#D80027"/>
<path d="M23.71 19.5239L24.2281 21.1183H25.9044L24.5481 22.1036L25.0663 23.6979L23.71 22.7126L22.3538 23.6979L22.8719 22.1036L21.5156 21.1183H23.1919L23.71 19.5239Z" fill="#D80027"/>
<path d="M23.8598 7.00244L24.2916 8.33112H25.6885L24.5583 9.15206L24.99 10.4807L23.8598 9.6595L22.7297 10.4807L23.1614 9.15206L22.0312 8.33112H23.4281L23.8598 7.00244Z" fill="#D80027"/>
<path d="M20.0225 11.8252L20.5405 13.4196H22.2169L20.8606 14.4048L21.3788 15.9991L20.0225 15.0138L18.6663 15.9991L19.1844 14.4048L17.8281 13.4196H19.5044L20.0225 11.8252Z" fill="#D80027"/>
</svg>
