<svg width="32" height="32" viewBox="0 0 32 32" fill="none" xmlns="http://www.w3.org/2000/svg">
<path d="M16 32C24.8366 32 32 24.8366 32 16C32 7.16344 24.8366 0 16 0C7.16344 0 0 7.16344 0 16C0 24.8366 7.16344 32 16 32Z" fill="#F0F0F0"/>
<path d="M15.9983 0C9.65494 0 4.17394 3.69156 1.58594 9.0435H30.4106C27.8227 3.69156 22.3416 0 15.9983 0Z" fill="#338AF3"/>
<path d="M15.9983 31.9998C22.3416 31.9998 27.8227 28.3082 30.4107 22.9563H1.58594C4.17394 28.3082 9.65494 31.9998 15.9983 31.9998Z" fill="#338AF3"/>
<path d="M16.0024 11.1306C13.313 11.1306 11.1328 13.3108 11.1328 16.0002C11.1328 18.6896 13.313 20.8697 16.0024 20.8697C18.6918 20.8697 20.8719 18.6896 20.8719 16.0002C20.8719 13.3108 18.6918 11.1306 16.0024 11.1306ZM16.0024 18.7828C14.4656 18.7828 13.2197 17.5371 13.2197 16.0002C13.2197 14.4633 14.4656 13.2176 16.0024 13.2176C17.5392 13.2176 18.785 14.4633 18.785 16.0002C18.785 17.5371 17.5391 18.7828 16.0024 18.7828Z" fill="#FFDA44"/>
<path d="M18.4121 16.6956L16.0022 16L13.5923 16.6956L12.7891 18.0869H19.2153L18.4121 16.6956Z" fill="#0052B4"/>
<path d="M16.005 12.5217L14.3984 15.3044L16.005 16L17.6116 15.3044L16.005 12.5217Z" fill="#338AF3"/>
<path d="M13.5938 16.6957H18.4135L17.6102 15.3044H14.3971L13.5938 16.6957Z" fill="#6DA544"/>
</svg>
