<svg width="32" height="32" viewBox="0 0 32 32" fill="none" xmlns="http://www.w3.org/2000/svg">
<path d="M16 32C24.8366 32 32 24.8366 32 16C32 7.16344 24.8366 0 16 0C7.16344 0 0 7.16344 0 16C0 24.8366 7.16344 32 16 32Z" fill="#FFDA44"/>
<path d="M18.4333 31.8156C21.0355 31.4186 23.4309 30.3938 25.4618 28.902L16 15.9995L18.4333 31.8156Z" fill="#D80027"/>
<path d="M13.5676 0.183594C10.9654 0.580594 8.57006 1.60534 6.53906 3.09716L16.0009 15.9997L13.5676 0.183594Z" fill="#D80027"/>
<path d="M6.53906 28.902C8.56993 30.3938 10.9653 31.4185 13.5675 31.8156L16.0009 15.9995L6.53906 28.902Z" fill="#D80027"/>
<path d="M3.10106 6.5376C1.60919 8.56859 0.584563 10.9639 0.1875 13.5661L16.0036 15.9995L3.10106 6.5376Z" fill="#D80027"/>
<path d="M0.1875 18.4328C0.5845 21.035 1.60925 23.4304 3.10113 25.4613L16.0036 15.9995L0.1875 18.4328Z" fill="#D80027"/>
<path d="M31.8161 13.5661C31.419 10.9639 30.3943 8.56854 28.9024 6.5376L16 15.9994L31.8161 13.5661Z" fill="#D80027"/>
<path d="M25.4618 3.09709C23.4308 1.60528 21.0355 0.580594 18.4333 0.183594L16 15.9997L25.4618 3.09709Z" fill="#D80027"/>
<path d="M28.9026 25.4613C30.3944 23.4304 31.4191 21.035 31.8162 18.4328L16 15.9995L28.9026 25.4613Z" fill="#D80027"/>
<path d="M16.0027 21.5654C19.0763 21.5654 21.5679 19.0738 21.5679 16.0002C21.5679 12.9267 19.0763 10.4351 16.0027 10.4351C12.9291 10.4351 10.4375 12.9267 10.4375 16.0002C10.4375 19.0738 12.9291 21.5654 16.0027 21.5654Z" fill="#D80027"/>
<path d="M15.9943 20.1741C18.2995 20.1741 20.1682 18.3053 20.1682 16.0001C20.1682 13.6949 18.2995 11.8262 15.9943 11.8262C13.6891 11.8262 11.8203 13.6949 11.8203 16.0001C11.8203 18.3053 13.6891 20.1741 15.9943 20.1741Z" fill="#FFDA44"/>
</svg>
