<svg width="32" height="32" viewBox="0 0 32 32" fill="none" xmlns="http://www.w3.org/2000/svg">
<path d="M16 32C24.8366 32 32 24.8366 32 16C32 7.16344 24.8366 0 16 0C7.16344 0 0 7.16344 0 16C0 24.8366 7.16344 32 16 32Z" fill="#F0F0F0"/>
<path d="M0.554688 20.1738C1.48044 23.6088 3.52075 26.5859 6.26437 28.694V20.1738H0.554688Z" fill="#D80027"/>
<path d="M14.6172 31.939C15.0758 31.9785 15.5396 31.9999 16.0085 31.9999C23.4009 31.9999 29.6213 26.9861 31.4573 20.1738H14.6172V31.939Z" fill="#D80027"/>
<path d="M31.4573 11.8261C29.6213 5.01381 23.4009 0 16.0085 0C15.5396 0 15.0758 0.021375 14.6172 0.060875V11.8261H31.4573Z" fill="#D80027"/>
<path d="M6.26437 3.30591C3.52075 5.41403 1.48044 8.3911 0.554688 11.826H6.26437V3.30591Z" fill="#D80027"/>
<path d="M31.8646 13.9129H12.5218H12.5218V0.380127C11.0431 0.708002 9.64131 1.23944 8.34781 1.94525V13.9128V13.9128H0.135438C0.046375 14.596 0 15.2925 0 15.9998C0 16.7071 0.046375 17.4036 0.135438 18.0868H8.34775H8.34781V30.0543C9.64131 30.7601 11.0431 31.2916 12.5218 31.6194V18.0869V18.0868H31.8646C31.9535 17.4036 32 16.7071 32 15.9998C32 15.2925 31.9535 14.596 31.8646 13.9129Z" fill="#0052B4"/>
</svg>
