<svg width="32" height="32" viewBox="0 0 32 32" fill="none" xmlns="http://www.w3.org/2000/svg">
<path d="M16 32C24.8366 32 32 24.8366 32 16C32 7.16344 24.8366 0 16 0C7.16344 0 0 7.16344 0 16C0 24.8366 7.16344 32 16 32Z" fill="#F0F0F0"/>
<path d="M0 16.0001C0 22.0648 3.37438 27.3411 8.34781 30.0547V1.94556C3.37438 4.65918 0 9.93543 0 16.0001Z" fill="#D80027"/>
<path d="M31.0049 21.5652C31.648 19.8319 32 17.9571 32 16C32 14.0429 31.648 12.1681 31.0049 10.4348H0.99525C0.352062 12.1681 0 14.0429 0 16C0 17.9571 0.352062 19.8319 0.99525 21.5652L16 22.9565L31.0049 21.5652Z" fill="#D80027"/>
<path d="M16.0047 32C22.8842 32 28.7489 27.658 31.0096 21.5652H1C3.26062 27.658 9.12537 32 16.0047 32Z" fill="#6DA544"/>
<path d="M0 15.9996C0 23.392 5.01381 29.6124 11.8261 31.4484V0.550781C5.01381 2.38678 0 8.60716 0 15.9996Z" fill="#D80027"/>
<path d="M9.78618 7.04087L8.31049 5.56519L7.32674 6.54906L6.343 5.56519L4.86731 7.04087L5.85112 8.02469L4.86719 9.00856L6.34287 10.4842L7.32668 9.50037L8.31049 10.4842L9.78618 9.00856L8.80237 8.02469L9.78618 7.04087Z" fill="#F0F0F0"/>
</svg>
