<svg width="32" height="32" viewBox="0 0 32 32" fill="none" xmlns="http://www.w3.org/2000/svg">
<path d="M16 32C24.8366 32 32 24.8366 32 16C32 7.16344 24.8366 0 16 0C7.16344 0 0 7.16344 0 16C0 24.8366 7.16344 32 16 32Z" fill="#F0F0F0"/>
<path d="M0 16.0001C0 22.0648 3.37431 27.341 8.34781 30.0547V1.94556C3.37431 4.65924 0 9.93543 0 16.0001Z" fill="#F0F0F0"/>
<path d="M15.9959 0C13.2241 0 10.6169 0.705188 8.34375 1.94544V30.0545C10.6169 31.2948 13.2241 32 15.9959 32C24.8324 32 31.9959 24.8365 31.9959 16C31.9959 7.1635 24.8324 0 15.9959 0Z" fill="#496E2D"/>
<path d="M22.8422 18.6459C20.8181 20.1084 17.9914 19.6532 16.5289 17.6291C15.0663 15.6048 15.5216 12.7782 17.5458 11.3157C18.1769 10.8597 18.8861 10.5902 19.6075 10.4965C18.2195 10.2889 16.7524 10.6017 15.525 11.4885C13.0338 13.2886 12.4734 16.7674 14.2734 19.2588C16.0735 21.75 19.5524 22.3105 22.0437 20.5102C23.2712 19.6234 24.0287 18.3289 24.2674 16.9458C23.952 17.6012 23.4734 18.1898 22.8422 18.6459Z" fill="#F0F0F0"/>
<path d="M22.7584 10.4348L23.8987 11.6636L25.4197 10.9591L24.6033 12.4231L25.7434 13.6521L24.0987 13.328L23.2823 14.7921L23.0823 13.1278L21.4375 12.8037L22.9586 12.0992L22.7584 10.4348Z" fill="#F0F0F0"/>
</svg>
