<svg width="32" height="32" viewBox="0 0 32 32" fill="none" xmlns="http://www.w3.org/2000/svg">
<path d="M16 32C24.8366 32 32 24.8366 32 16C32 7.16344 24.8366 0 16 0C7.16344 0 0 7.16344 0 16C0 24.8366 7.16344 32 16 32Z" fill="#F0F0F0"/>
<path d="M0 16C0 24.8365 7.1635 32 16 32C16 25.9153 16 16 16 16C16 16 5.56519 16 0 16Z" fill="#0052B4"/>
<path d="M16 0C24.8365 0 32 7.1635 32 16C25.9153 16 16 16 16 16C16 16 16 5.56519 16 0Z" fill="#D80027"/>
<path d="M9.52156 5.56494L10.5576 8.75357H13.9103L11.1979 10.7242L12.2339 13.9128L9.52156 11.9421L6.80919 13.9128L7.84519 10.7242L5.13281 8.75357H8.4855L9.52156 5.56494Z" fill="#0052B4"/>
<path d="M22.4747 18.0874L23.5107 21.276H26.8634L24.151 23.2467L25.1871 26.4353L22.4747 24.4646L19.7623 26.4353L20.7983 23.2467L18.0859 21.276H21.4386L22.4747 18.0874Z" fill="#D80027"/>
</svg>
