<svg width="32" height="32" viewBox="0 0 32 32" fill="none" xmlns="http://www.w3.org/2000/svg">
<g clip-path="url(#clip0_24085_395749)">
<path d="M27.3138 27.3137C21.0654 33.5621 10.9348 33.5621 4.68627 27.3137C-1.5621 21.0653 -1.5621 10.9346 4.68634 4.68618C10.9347 -1.56219 20.0815 -0.578378 26.3299 5.67006C32.5782 11.9184 33.5621 21.0653 27.3138 27.3137Z" fill="black"/>
<path d="M4.6875 4.68696C10.9359 -1.56142 21.0664 -1.56129 27.3149 4.68702C33.5633 10.9354 33.5633 21.066 27.3149 27.3145" fill="#A2001D"/>
<path d="M12.2378 21.5652L12.4968 22.3624H13.335L12.6569 22.855L12.9159 23.6522L12.2378 23.1595L11.5597 23.6522L11.8187 22.855L11.1406 22.3624H11.9787L12.2378 21.5652Z" fill="#F0F0F0"/>
<path d="M10.0943 13.9131L10.5261 15.2417H11.9229L10.7928 16.0628L11.2244 17.3914L10.0943 16.5702L8.96413 17.3914L9.39587 16.0628L8.26562 15.2417H9.66263L10.0943 13.9131Z" fill="#F0F0F0"/>
<path d="M10.0943 23.6521L10.5259 24.9807H11.9229L10.7926 25.8017L11.2244 27.1304L10.0943 26.3092L8.96413 27.1304L9.39575 25.8017L8.26562 24.9807H9.66244L10.0943 23.6521Z" fill="#F0F0F0"/>
<path d="M14.1723 17.3916L14.6041 18.7202H16.001L14.8708 19.5412L15.3025 20.8699L14.1723 20.0487L13.0422 20.8699L13.4739 19.5412L12.3438 18.7202H13.7407L14.1723 17.3916Z" fill="#F0F0F0"/>
<path d="M6.00831 17.3916L6.44012 18.7202H7.83694L6.70681 19.5412L7.13844 20.8699L6.00831 20.0487L4.87813 20.8699L5.30994 19.5412L4.17969 18.7202H5.57663L6.00831 17.3916Z" fill="#F0F0F0"/>
<path d="M26.7799 11.8477C26.0649 11.1327 25.1357 10.7102 24.1373 10.6377L27.1261 8.31312C25.9358 7.12281 24.3404 6.58525 22.7836 6.69894C22.5972 6.02919 22.2419 5.39656 21.7153 4.86987L20.5347 7.231C20.4572 7.08987 20.3592 6.95706 20.2396 6.8375C19.5603 6.15831 18.4592 6.15831 17.7801 6.8375C17.1009 7.51669 17.1008 8.61781 17.7801 9.297C17.8996 9.41656 18.0325 9.51462 18.1736 9.59212L15.8125 10.7727C16.3393 11.2996 16.9724 11.6551 17.6425 11.8414C17.5284 13.3981 18.0654 14.9932 19.2558 16.1836L21.8671 12.8262C22.0635 12.6328 22.3229 12.526 22.5989 12.526C22.8777 12.526 23.1397 12.6345 23.3368 12.8317C23.5339 13.0287 23.6424 13.2908 23.6424 13.5695C23.6424 13.8482 23.5339 14.1102 23.3368 14.3074L24.3206 15.2912C24.7804 14.8314 25.0337 14.2199 25.0337 13.5696C25.0337 13.0374 24.864 12.5316 24.5506 12.1133C25.0072 12.2352 25.4388 12.4741 25.7963 12.8317C26.8813 13.9166 26.8813 15.682 25.7963 16.7669L26.7802 17.7507C27.5685 16.9624 28.0027 15.9142 28.0027 14.7993C28.0025 13.6842 27.5683 12.6361 26.7799 11.8477Z" fill="#FFDA44"/>
</g>
<defs>
<clipPath id="clip0_24085_395749">
<rect width="32" height="32" fill="white"/>
</clipPath>
</defs>
</svg>
