<svg width="32" height="32" viewBox="0 0 32 32" fill="none" xmlns="http://www.w3.org/2000/svg">
<path d="M16 32C24.8366 32 32 24.8366 32 16C32 7.16344 24.8366 0 16 0C7.16344 0 0 7.16344 0 16C0 24.8366 7.16344 32 16 32Z" fill="#F0F0F0"/>
<path d="M15.9983 0C9.65494 0 4.17394 3.69156 1.58594 9.0435H30.4106C27.8227 3.69156 22.3416 0 15.9983 0Z" fill="#D80027"/>
<path d="M15.9983 31.9998C22.3416 31.9998 27.8227 28.3082 30.4107 22.9563H1.58594C4.17394 28.3082 9.65494 31.9998 15.9983 31.9998Z" fill="#0052B4"/>
<path d="M19.9378 11.3691L18.4621 12.8448C19.0916 13.4743 19.481 14.3438 19.481 15.3043C19.481 17.2253 17.9236 18.7826 16.0027 18.7826C14.0818 18.7826 12.5244 17.2253 12.5244 15.3043C12.5244 14.3438 12.9138 13.4743 13.5433 12.8448L12.0676 11.3691C11.0604 12.3761 10.4375 13.7675 10.4375 15.3043C10.4375 18.378 12.9291 20.8695 16.0027 20.8695C19.0763 20.8695 21.5679 18.3779 21.5679 15.3043C21.5678 13.7675 20.945 12.3761 19.9378 11.3691Z" fill="#6DA544"/>
<path d="M15.9991 13.2175L16.5171 14.8119H18.1935L16.8373 15.7972L17.3553 17.3915L15.9991 16.4062L14.6428 17.3915L15.1609 15.7972L13.8047 14.8119H15.481L15.9991 13.2175Z" fill="#FFDA44"/>
</svg>
