<svg width="32" height="32" viewBox="0 0 32 32" fill="none" xmlns="http://www.w3.org/2000/svg">
<g clip-path="url(#clip0_24085_394807)">
<path d="M16 32C24.8366 32 32 24.8366 32 16C32 7.16344 24.8366 0 16 0C7.16344 0 0 7.16344 0 16C0 24.8366 7.16344 32 16 32Z" fill="#F0F0F0"/>
<path d="M16.0013 0V16L4.6875 27.3137C7.58294 30.2091 11.5829 32 16.0013 32C24.8378 32 32.0013 24.8365 32.0013 16C32.0013 7.1635 16.0013 0 16.0013 0Z" fill="#D80027"/>
<path d="M16.0013 0C11.5829 0 7.58294 1.79088 4.6875 4.68625C8.61313 8.61188 10.0067 10.0055 16.0013 16H32.0013C32.0013 7.1635 24.8378 0 16.0013 0Z" fill="#0052B4"/>
<path d="M10.9628 15.9996L9.00881 15.0805L10.0494 13.1881L7.9275 13.594L7.65863 11.4504L6.18062 13.0269L4.70269 11.4504L4.43375 13.594L2.31194 13.188L3.3525 15.0805L1.39844 15.9996L3.3525 16.9188L2.31194 18.8112L4.43394 18.4053L4.70262 20.5488L6.18062 18.9723L7.65863 20.5488L7.9275 18.4053L10.0492 18.8113L9.00875 16.9188L10.9628 15.9996Z" fill="#FFDA44"/>
<path d="M4.27688 6.26074L4.92713 7.16968L5.99244 6.83224L5.32882 7.73149L5.97907 8.64043L4.91869 8.28724L4.25513 9.18643L4.26344 8.06893L3.20312 7.71568L4.26863 7.37824L4.27688 6.26074Z" fill="#FFDA44"/>
<path d="M4.27688 22.8132L4.92713 23.7222L5.99244 23.3847L5.32882 24.284L5.97907 25.1929L4.91869 24.8397L4.25513 25.7389L4.26344 24.6214L3.20312 24.2682L4.26863 23.9307L4.27688 22.8132Z" fill="#FFDA44"/>
<path d="M13.5515 14.5371L12.9013 15.446L11.8359 15.1085L12.4996 16.0078L11.8493 16.9168L12.9097 16.5635L13.5733 17.4627L13.5649 16.3453L14.6252 15.992L13.5598 15.6546L13.5515 14.5371Z" fill="#FFDA44"/>
</g>
<defs>
<clipPath id="clip0_24085_394807">
<rect width="32" height="32" fill="white"/>
</clipPath>
</defs>
</svg>
