<svg width="32" height="32" viewBox="0 0 32 32" fill="none" xmlns="http://www.w3.org/2000/svg">
<path d="M16 32C24.8366 32 32 24.8366 32 16C32 7.16344 24.8366 0 16 0C7.16344 0 0 7.16344 0 16C0 24.8366 7.16344 32 16 32Z" fill="#F0F0F0"/>
<path d="M31.9969 16C31.9969 7.1635 24.8334 0 15.9969 0C12.8669 0 9.94731 0.899687 7.48119 2.45319L10.9882 3.94325L6.25781 5.95312L10.9882 7.96294L6.25781 9.97269L10.9882 11.9824L6.25781 13.9918L10.9882 16.0011L6.25781 18.0109L10.9882 20.0205L6.25781 22.0299L10.9882 24.0396L6.25781 26.0493L10.9882 28.0588L7.48275 29.548C9.94856 31.1007 12.8676 32 15.9969 32C24.8334 32 31.9969 24.8365 31.9969 16Z" fill="#751A46"/>
</svg>
