<svg width="32" height="32" viewBox="0 0 32 32" fill="none" xmlns="http://www.w3.org/2000/svg">
<path d="M21.5608 0.995125C19.8274 0.352063 17.9527 8.31859e-09 15.9956 8.31859e-09C14.0384 -6.24917e-05 12.1637 0.352063 10.4304 0.995125L9.03906 15.9999L10.4304 31.0047C12.1636 31.648 14.0384 32 15.9956 32C17.9526 32 19.8275 31.648 21.5608 31.0047L22.952 16L21.5608 0.995125Z" fill="#FFDA44"/>
<path d="M31.9973 16.0002C31.9973 9.1208 27.6553 3.25599 21.5625 0.995361V31.0051C27.6553 28.7442 31.9972 22.8797 31.9973 16.0002Z" fill="#D80027"/>
<path d="M0 16C0 22.8796 4.342 28.7442 10.4347 31.005L10.4347 0.995361C4.342 3.25599 0 9.12061 0 16Z" fill="#0052B4"/>
</svg>
