<svg width="32" height="32" viewBox="0 0 32 32" fill="none" xmlns="http://www.w3.org/2000/svg">
<g clip-path="url(#clip0_24085_396247)">
<path d="M0 15.9997C0 18.7716 0.705188 21.3787 1.94544 23.6519L16 25.0432L30.0546 23.6519C31.2948 21.3787 32 18.7716 32 15.9997L16 14.6084L0 15.9997Z" fill="#FFDA44"/>
<path d="M30.0546 8.34781C27.3409 3.37431 22.0647 0 16 0C9.93531 0 4.65912 3.37431 1.94544 8.34781C0.705188 10.621 0 13.2281 0 16H32C32 13.2281 31.2948 10.621 30.0546 8.34781Z" fill="#338AF3"/>
<path d="M15.9999 32.0004C22.0646 32.0004 27.3407 28.6261 30.0544 23.6526H1.94531C4.659 28.6261 9.93519 32.0004 15.9999 32.0004Z" fill="#496E2D"/>
<path d="M18.0859 9.36358L20.0401 10.2828L18.9995 12.1753L21.1214 11.7694L21.3903 13.9128L22.8681 12.3363L24.3461 13.9128L24.6149 11.7694L26.7368 12.1751L25.6963 10.2827L27.6503 9.36358L25.6962 8.44452L26.7368 6.55202L24.615 6.95789L24.3461 4.81445L22.8681 6.39095L21.3902 4.81445L21.1214 6.95789L18.9994 6.55202L20.04 8.44458L18.0859 9.36358Z" fill="#FFDA44"/>
</g>
<defs>
<clipPath id="clip0_24085_396247">
<rect width="32" height="32" fill="white"/>
</clipPath>
</defs>
</svg>
