<svg width="32" height="32" viewBox="0 0 32 32" fill="none" xmlns="http://www.w3.org/2000/svg">
<path d="M32 16C32 24.8365 24.8365 32 16 32C7.1635 32 0 24.8365 0 16C5.49563 10.5044 10.1565 5.8435 16 0C24.8365 0 32 7.1635 32 16Z" fill="#D80027"/>
<path d="M16 16C16 7.1635 16 6.12175 16 0C7.1635 0 0 7.1635 0 16H16Z" fill="#0052B4"/>
<path d="M12.8159 10.4346L13.075 11.2318H13.9131L13.235 11.7243L13.4941 12.5215L12.8159 12.0288L12.1378 12.5215L12.3969 11.7243L11.7188 11.2318H12.5569L12.8159 10.4346Z" fill="#F0F0F0"/>
<path d="M8.60987 4.17383L9.04156 5.50252H10.4386L9.30831 6.32345L9.74012 7.65208L8.60987 6.83089L7.47969 7.65208L7.91144 6.32345L6.78125 5.50252H8.17812L8.60987 4.17383Z" fill="#F0F0F0"/>
<path d="M12.7896 5.56519L13.2212 6.89394H14.6182L13.488 7.71487L13.9197 9.0435L12.7896 8.22231L11.6594 9.0435L12.0911 7.71487L10.9609 6.89394H12.3578L12.7896 5.56519Z" fill="#F0F0F0"/>
<path d="M9.48487 11.1306L9.91663 12.4593H11.3135L10.1833 13.2802L10.6151 14.6089L9.48487 13.7877L8.35469 14.6089L8.78644 13.2802L7.65625 12.4593H9.05319L9.48487 11.1306Z" fill="#F0F0F0"/>
<path d="M5.82856 7.65186L6.26031 8.98054H7.65725L6.527 9.80148L6.95875 11.1301L5.82856 10.309L4.69844 11.1301L5.13013 9.80148L4 8.98054H5.39687L5.82856 7.65186Z" fill="#F0F0F0"/>
</svg>
