<svg width="32" height="32" viewBox="0 0 32 32" fill="none" xmlns="http://www.w3.org/2000/svg">
<path d="M16 32C24.8366 32 32 24.8366 32 16C32 7.16344 24.8366 0 16 0C7.16344 0 0 7.16344 0 16C0 24.8366 7.16344 32 16 32Z" fill="#FFDA44"/>
<path d="M9.73981 10.4348H31.0054C28.7448 4.342 22.8801 0 16.0007 0C11.5823 0 7.58275 1.79119 4.6875 4.68681L9.73981 10.4348Z" fill="#6DA544"/>
<path d="M9.73981 21.5652H31.0054C28.7448 27.658 22.8801 32 16.0007 32C11.5823 32 7.58275 30.2088 4.6875 27.3132L9.73981 21.5652Z" fill="#6DA544"/>
<path d="M4.68628 4.68628C-1.56209 10.9347 -1.56209 21.0653 4.68628 27.3138C7.26834 24.7317 9.75166 22.2484 16 16L4.68628 4.68628Z" fill="#D80027"/>
<path d="M20.3243 13.2175L21.0149 15.3433H23.2501L21.4418 16.657L22.1325 18.7828L20.3243 17.469L18.516 18.7828L19.2066 16.657L17.3984 15.3433H19.6336L20.3243 13.2175Z" fill="black"/>
<path d="M27.2696 13.2175L27.9602 15.3433H30.1954L28.3872 16.657L29.0778 18.7828L27.2696 17.469L25.4613 18.7828L26.152 16.657L24.3438 15.3433H26.5789L27.2696 13.2175Z" fill="black"/>
</svg>
