<svg width="32" height="32" viewBox="0 0 32 32" fill="none" xmlns="http://www.w3.org/2000/svg">
<path d="M16 32C24.8366 32 32 24.8366 32 16C32 7.16344 24.8366 0 16 0C7.16344 0 0 7.16344 0 16C0 24.8366 7.16344 32 16 32Z" fill="#6DA544"/>
<path d="M9.03906 19.1301C9.03906 20.2827 9.97344 21.2171 11.126 21.2171H17.3869C17.3869 22.1776 18.1655 22.9562 19.126 22.9562H21.213C22.1735 22.9562 22.9521 22.1776 22.9521 21.2171V19.1301H9.03906Z" fill="#F0F0F0"/>
<path d="M23.1335 9.04443V13.914C23.1335 14.6812 22.5094 15.3053 21.7422 15.3053V17.3922C23.6601 17.3922 25.2204 15.8319 25.2204 13.914V9.04443H23.1335Z" fill="#F0F0F0"/>
<path d="M8.17256 13.914C8.17256 14.6812 7.54844 15.3053 6.78125 15.3053V17.3922C8.69919 17.3922 10.2595 15.8319 10.2595 13.914V9.04443H8.17256V13.914Z" fill="#F0F0F0"/>
<path d="M22.0869 9.04443H20V13.914H22.0869V9.04443Z" fill="#F0F0F0"/>
<path d="M16.8699 11.8258C16.8699 12.0176 16.7138 12.1736 16.5221 12.1736C16.3303 12.1736 16.1742 12.0176 16.1742 11.8258V9.04321H14.0873V11.8258C14.0873 12.0176 13.9312 12.1736 13.7395 12.1736C13.5477 12.1736 13.3917 12.0176 13.3917 11.8258V9.04321H11.3047V11.8258C11.3047 13.1684 12.3969 14.2606 13.7395 14.2606C14.2566 14.2606 14.7361 14.0981 15.1308 13.8221C15.5255 14.0981 16.0051 14.2606 16.5221 14.2606C16.6262 14.2606 16.7286 14.2533 16.8293 14.2405C16.6814 14.8498 16.1327 15.3041 15.4786 15.3041V17.391C17.3966 17.391 18.9569 15.8306 18.9569 13.9128V11.8258V9.04321H16.8699V11.8258H16.8699Z" fill="#F0F0F0"/>
<path d="M14.4351 15.304H11.3047V17.3909H14.4351V15.304Z" fill="#F0F0F0"/>
</svg>
