<svg width="32" height="32" viewBox="0 0 32 32" fill="none" xmlns="http://www.w3.org/2000/svg">
<path d="M16 32C24.8366 32 32 24.8366 32 16C32 7.16344 24.8366 0 16 0C7.16344 0 0 7.16344 0 16C0 24.8366 7.16344 32 16 32Z" fill="#F0F0F0"/>
<path d="M16 0C7.1635 0 0 7.1635 0 16C0 17.9571 0.352063 19.8319 0.995188 21.5652H31.0049C31.648 19.8319 32 17.9571 32 16C32 7.1635 24.8365 0 16 0Z" fill="#0052B4"/>
<path d="M16.0048 0C9.12537 0 3.26069 4.342 1 10.4348H31.0097C28.7489 4.342 22.8843 0 16.0048 0Z" fill="#D80027"/>
<path d="M4.14844 9.04321V17.0248C4.14844 21.5651 10.0797 22.9563 10.0797 22.9563C10.0797 22.9563 16.011 21.5651 16.011 17.0248V9.04321H4.14844Z" fill="#D80027"/>
<path d="M6.58594 10.4347H13.5425V7.65206L12.1512 8.34768L10.0643 6.26074L7.97725 8.34768L6.58594 7.65206V10.4347Z" fill="#FFDA44"/>
<path d="M14.606 18.1365L10.0843 13.6147L5.5625 18.1365L7.03819 19.6122L10.0843 16.5661L13.1303 19.6122L14.606 18.1365Z" fill="#FFDA44"/>
<path d="M14.606 13.913H12.4963C12.6149 13.7082 12.6839 13.4711 12.6839 13.2175C12.6839 12.449 12.0609 11.8262 11.2926 11.8262C10.7616 11.8262 10.3006 12.1235 10.066 12.5607C9.83144 12.1236 9.37037 11.8262 8.83944 11.8262C8.07106 11.8262 7.44812 12.449 7.44812 13.2175C7.44812 13.4711 7.51712 13.7083 7.63575 13.913H5.5625C5.5625 14.6814 6.23181 15.3043 7.00012 15.3043H6.95381C6.95381 16.0727 7.57669 16.6956 8.34513 16.6956C8.34513 17.376 8.83375 17.9412 9.47906 18.0622L8.38281 20.5374C8.90819 20.7509 9.48231 20.8695 10.0843 20.8695C10.6863 20.8695 11.2604 20.7509 11.7858 20.5374L10.6896 18.0622C11.3349 17.9414 11.8235 17.376 11.8235 16.6956C12.5919 16.6956 13.2148 16.0727 13.2148 15.3043H13.1685C13.9368 15.3043 14.606 14.6814 14.606 13.913Z" fill="#F0F0F0"/>
</svg>
