<svg width="32" height="32" viewBox="0 0 32 32" fill="none" xmlns="http://www.w3.org/2000/svg">
<g clip-path="url(#clip0_24085_394868)">
<path d="M16 32C24.8366 32 32 24.8366 32 16C32 7.16344 24.8366 0 16 0C7.16344 0 0 7.16344 0 16C0 24.8366 7.16344 32 16 32Z" fill="#F0F0F0"/>
<path d="M26.8021 4.19606C23.9558 1.59031 20.1645 0 16.0015 0C15.32 0 14.6484 0.0429375 13.9893 0.125625L6.26238 9.0435L0.507812 20.0082C0.879562 21.4495 1.44794 22.8116 2.18125 24.0655L16.0015 16L26.8021 4.19606Z" fill="#FFDA44"/>
<path d="M29.323 24.865L6.9375 29.185C9.51431 30.9601 12.6367 32.0001 16.0023 32.0001C21.5599 32.0001 26.4548 29.1662 29.323 24.865Z" fill="#6DA544"/>
<path d="M26.8014 4.19824L2.1875 24.0811C2.83131 25.1791 3.60213 26.1935 4.48006 27.1041L31.9986 16.0001C31.9986 11.3276 29.9954 7.12337 26.8014 4.19824Z" fill="#D80027"/>
<path d="M0 16.0001C0 17.3843 0.175875 18.7274 0.506312 20.0083L13.9878 0.125732C6.10112 1.11536 0 7.84511 0 16.0001Z" fill="#0052B4"/>
</g>
<defs>
<clipPath id="clip0_24085_394868">
<rect width="32" height="32" fill="white"/>
</clipPath>
</defs>
</svg>
