<svg width="32" height="32" viewBox="0 0 32 32" fill="none" xmlns="http://www.w3.org/2000/svg">
<path d="M31.0048 21.5652C31.648 19.8318 32 17.9571 32 16C32 14.0428 31.648 12.1681 31.0048 10.4348L16 9.04346L0.995188 10.4348C0.352 12.1681 0 14.0428 0 16C0 17.9571 0.352 19.8318 0.995188 21.5652L16 22.9565L31.0048 21.5652Z" fill="#F0F0F0"/>
<path d="M16.0049 32C22.8842 32 28.749 27.658 31.0096 21.5652H1C3.26075 27.658 9.12537 32 16.0049 32Z" fill="#338AF3"/>
<path d="M16.0049 0C9.12537 0 3.26075 4.342 1 10.4348H31.0097C28.749 4.342 22.8842 0 16.0049 0Z" fill="#6DA544"/>
</svg>
