<svg width="32" height="32" viewBox="0 0 32 32" fill="none" xmlns="http://www.w3.org/2000/svg">
<path d="M16 32C24.8366 32 32 24.8366 32 16C32 7.16344 24.8366 0 16 0C7.16344 0 0 7.16344 0 16C0 24.8366 7.16344 32 16 32Z" fill="#F0F0F0"/>
<path d="M0 16.0001C0 7.1635 7.1635 0 16 0C24.8365 0 32 7.1635 32 16.0001" fill="#D80027"/>
<path d="M9.74325 8.34802C9.74325 6.01689 11.3816 4.06952 13.5693 3.5917C13.2331 3.51833 12.8842 3.47852 12.5258 3.47852C9.83637 3.47852 7.65625 5.65864 7.65625 8.34808C7.65625 11.0375 9.83637 13.2176 12.5258 13.2176C12.8841 13.2176 13.233 13.1778 13.5693 13.1044C11.3816 12.6266 9.74325 10.6792 9.74325 8.34802Z" fill="#F0F0F0"/>
<path d="M16.0019 3.82617L16.3473 4.88899H17.4649L16.5607 5.54593L16.9061 6.60874L16.0019 5.95193L15.0978 6.60874L15.4432 5.54593L14.5391 4.88899H15.6566L16.0019 3.82617Z" fill="#F0F0F0"/>
<path d="M13.2989 5.91357L13.6442 6.97645H14.7618L13.8577 7.63332L14.2031 8.69614L13.2989 8.03932L12.3947 8.69614L12.7401 7.63332L11.8359 6.97645H12.9535L13.2989 5.91357Z" fill="#F0F0F0"/>
<path d="M18.7129 5.91357L19.0583 6.97645H20.1758L19.2716 7.63332L19.6171 8.69614L18.7129 8.03932L17.8088 8.69614L18.1541 7.63332L17.25 6.97645H18.3675L18.7129 5.91357Z" fill="#F0F0F0"/>
<path d="M17.6738 9.04346L18.0192 10.1063H19.1367L18.2326 10.7632L18.5779 11.826L17.6738 11.1692L16.7697 11.826L17.1151 10.7632L16.2109 10.1063H17.3284L17.6738 9.04346Z" fill="#F0F0F0"/>
<path d="M14.3379 9.04346L14.6833 10.1063H15.8009L14.8967 10.7632L15.2421 11.826L14.3379 11.1692L13.4338 11.826L13.7791 10.7632L12.875 10.1063H13.9926L14.3379 9.04346Z" fill="#F0F0F0"/>
</svg>
