<svg width="32" height="32" viewBox="0 0 32 32" fill="none" xmlns="http://www.w3.org/2000/svg">
<g clip-path="url(#clip0_24085_396549)">
<path d="M27.3112 27.3141C33.3119 21.3135 33.5488 11.7332 28.0245 5.44824L15.997 15.9999L5.44531 28.0274C11.7302 33.5517 21.3105 33.3148 27.3112 27.3141Z" fill="#496E2D"/>
<path d="M4.68584 4.68587C10.6865 -1.31481 20.2668 -1.55175 26.5517 3.97256L15.9999 16.0002L3.97259 26.5518C-1.55178 20.2668 -1.31478 10.6865 4.68584 4.68587Z" fill="#0052B4"/>
<path d="M26.5479 3.9729L3.96875 26.5521C4.197 26.8118 4.434 27.0665 4.68206 27.3145C4.93006 27.5625 5.18487 27.7995 5.44462 28.0279L28.0236 5.44865C27.7954 5.1889 27.5583 4.93415 27.3103 4.68609C27.0624 4.43821 26.8076 4.20115 26.5479 3.9729Z" fill="#FFDA44"/>
<path d="M6.74419 5.56445L7.08963 6.62738H8.20719L7.30307 7.28419L7.64838 8.34713L6.74419 7.69019L5.84 8.34713L6.18544 7.28419L5.28125 6.62738H6.39888L6.74419 5.56445Z" fill="#F0F0F0"/>
<path d="M12.4551 5.56445L12.8006 6.62738H13.9181L13.0139 7.28419L13.3593 8.34713L12.4551 7.69019L11.5509 8.34713L11.8964 7.28419L10.9922 6.62738H12.1097L12.4551 5.56445Z" fill="#F0F0F0"/>
<path d="M6.74419 11.1299L7.08963 12.1928H8.20719L7.30307 12.8497L7.64838 13.9126L6.74419 13.2557L5.84 13.9126L6.18544 12.8497L5.28125 12.1928H6.39888L6.74419 11.1299Z" fill="#F0F0F0"/>
<path d="M12.4551 11.1299L12.8006 12.1928H13.9181L13.0139 12.8497L13.3593 13.9126L12.4551 13.2557L11.5509 13.9126L11.8964 12.8497L10.9922 12.1928H12.1097L12.4551 11.1299Z" fill="#F0F0F0"/>
<path d="M9.59581 8.34668L9.94125 9.40961H11.0587L10.1546 10.0665L10.5 11.1294L9.59581 10.4725L8.69162 11.1294L9.037 10.0665L8.13281 9.40961H9.25044L9.59581 8.34668Z" fill="#F0F0F0"/>
</g>
<defs>
<clipPath id="clip0_24085_396549">
<rect width="32" height="32" fill="white"/>
</clipPath>
</defs>
</svg>
