<svg width="32" height="32" viewBox="0 0 32 32" fill="none" xmlns="http://www.w3.org/2000/svg">
<g clip-path="url(#clip0_24085_394851)">
<path d="M16 32C24.8366 32 32 24.8366 32 16C32 7.16344 24.8366 0 16 0C7.16344 0 0 7.16344 0 16C0 24.8366 7.16344 32 16 32Z" fill="#F0F0F0"/>
<path d="M30.7525 9.79706C28.3294 4.04138 22.6374 0 16.0007 0C11.5823 0 7.58275 1.79119 4.6875 4.68681L8.69437 9.79706H30.7525Z" fill="black"/>
<path d="M8.73981 22.1448L4.6875 27.313C7.58275 30.2086 11.5823 31.9998 16.0007 31.9998C22.6598 31.9998 28.3681 27.9314 30.7772 22.1448H8.73981Z" fill="#496E2D"/>
<path d="M3.47656 11.7683V20.1741H31.4472C31.8061 18.8434 31.9983 17.4444 31.9983 16.0002C31.9983 14.5351 31.8009 13.1163 31.432 11.7683H3.47656Z" fill="#A2001D"/>
<path d="M4.68628 4.68628C-1.56209 10.9347 -1.56209 21.0653 4.68628 27.3138C7.26834 24.7317 9.75166 22.2484 16 16L4.68628 4.68628Z" fill="#0052B4"/>
<path d="M5.20925 12.0222L7.16206 14.7473L10.3576 13.732L8.36937 16.4315L10.3222 19.1567L7.14044 18.1L5.15219 20.7995L5.17406 17.4468L1.99219 16.39L5.18744 15.3748L5.20925 12.0222Z" fill="#FFDA44"/>
</g>
<defs>
<clipPath id="clip0_24085_394851">
<rect width="32" height="32" fill="white"/>
</clipPath>
</defs>
</svg>
