<svg width="32" height="32" viewBox="0 0 32 32" fill="none" xmlns="http://www.w3.org/2000/svg">
<path d="M16 32C24.8366 32 32 24.8366 32 16C32 7.16344 24.8366 0 16 0C7.16344 0 0 7.16344 0 16C0 24.8366 7.16344 32 16 32Z" fill="#F0F0F0"/>
<path d="M21.5679 16C21.5679 17.3913 19.0763 20.8696 16.0027 20.8696C12.9291 20.8696 10.4375 17.3913 10.4375 16C10.4375 12.9264 12.9291 10.4348 16.0027 10.4348C19.0763 10.4348 21.5679 12.9264 21.5679 16Z" fill="#D80027"/>
<path d="M21.5679 16C21.5679 19.0736 19.0763 21.5652 16.0027 21.5652C12.9291 21.5652 10.4375 19.0736 10.4375 16" fill="#0052B4"/>
<path d="M23.3819 19.4433L21.9062 20.9189L22.8901 21.9027L24.3657 20.4271L23.3819 19.4433Z" fill="black"/>
<path d="M20.921 21.9032L19.4453 23.3789L20.4291 24.3627L21.9048 22.887L20.921 21.9032Z" fill="black"/>
<path d="M26.3272 22.3942L24.8516 23.8699L25.8354 24.8537L27.311 23.378L26.3272 22.3942Z" fill="black"/>
<path d="M23.8741 24.8542L22.3984 26.3298L23.3822 27.3136L24.8579 25.838L23.8741 24.8542Z" fill="black"/>
<path d="M24.8507 20.9189L23.375 22.3945L24.3588 23.3783L25.8345 21.9027L24.8507 20.9189Z" fill="black"/>
<path d="M22.3897 23.3786L20.9141 24.8542L21.8979 25.838L23.3735 24.3624L22.3897 23.3786Z" fill="black"/>
<path d="M20.9164 7.14567L24.8516 11.0808L25.8354 10.097L21.9002 6.16187L20.9164 7.14567Z" fill="black"/>
<path d="M19.4384 8.62174L20.9141 10.0974L21.8978 9.11366L20.4221 7.63799L19.4384 8.62174Z" fill="black"/>
<path d="M21.8993 11.081L23.375 12.5566L24.3587 11.5729L22.8831 10.0972L21.8993 11.081Z" fill="black"/>
<path d="M22.3915 5.67008L23.8672 7.14575L24.851 6.16196L23.3753 4.68628L22.3915 5.67008Z" fill="black"/>
<path d="M24.8603 8.1298L26.3359 9.60547L27.3197 8.62167L25.8441 7.146L24.8603 8.1298Z" fill="black"/>
<path d="M9.59922 26.3299L5.66406 22.3948L4.68026 23.3786L8.61542 27.3137L9.59922 26.3299Z" fill="black"/>
<path d="M11.0772 24.8538L9.60156 23.3782L8.61781 24.3619L10.0935 25.8376L11.0772 24.8538Z" fill="black"/>
<path d="M8.62411 22.3946L7.14844 20.9189L6.16464 21.9027L7.64031 23.3784L8.62411 22.3946Z" fill="black"/>
<path d="M12.5601 23.3785L8.625 19.4434L7.6412 20.4272L11.5763 24.3623L12.5601 23.3785Z" fill="black"/>
<path d="M5.66642 9.60507L9.60156 5.66992L8.61777 4.68612L4.68262 8.62127L5.66642 9.60507Z" fill="black"/>
<path d="M7.15079 11.0804L11.0859 7.14526L10.1021 6.16146L6.167 10.0966L7.15079 11.0804Z" fill="black"/>
<path d="M8.61954 12.557L12.5547 8.62183L11.5709 7.63807L7.63579 11.5732L8.61954 12.557Z" fill="black"/>
</svg>
