<svg width="32" height="32" viewBox="0 0 32 32" fill="none" xmlns="http://www.w3.org/2000/svg">
<g clip-path="url(#clip0_24085_396362)">
<path d="M16 32C24.8366 32 32 24.8366 32 16C32 7.16344 24.8366 0 16 0C7.16344 0 0 7.16344 0 16C0 24.8366 7.16344 32 16 32Z" fill="#F0F0F0"/>
<path d="M4.68628 27.313C-1.56209 21.0646 -1.56209 10.934 4.68628 4.68555C4.68584 4.68623 13.9131 15.9993 13.9131 15.9993L4.68628 27.313Z" fill="black"/>
<path d="M13.9122 16.0007L2.12119 8.03271C1.75563 8.66815 1.43325 9.3314 1.15625 10.0179L7.12556 16.0007L1.15644 21.9838C1.43319 22.6698 1.75525 23.3327 2.12056 23.9677L13.9122 16.0007Z" fill="#FFDA44"/>
<path d="M31.8681 13.9126H13.9162L4.68969 4.68604C3.69544 5.68029 2.83162 6.80472 2.12562 8.03166L10.0781 15.9995L2.125 23.9664C2.831 25.1937 3.69519 26.3185 4.68969 27.313L13.9162 18.0865H31.8681C31.9571 17.4033 32.0036 16.7068 32.0036 15.9995C32.0036 15.2922 31.9571 14.5957 31.8681 13.9126Z" fill="#6DA544"/>
<path d="M6.25781 28.6922C8.95588 30.766 12.3332 31.9999 15.9992 31.9999C23.3916 31.9999 29.612 26.9861 31.448 20.1738H14.7763L6.25781 28.6922Z" fill="#0052B4"/>
<path d="M31.448 11.8261C29.612 5.01381 23.3916 0 15.9992 0C12.3332 0 8.95588 1.23381 6.25781 3.30769L14.7762 11.8261H31.448Z" fill="#D80027"/>
</g>
<defs>
<clipPath id="clip0_24085_396362">
<rect width="32" height="32" fill="white"/>
</clipPath>
</defs>
</svg>
