<svg width="32" height="32" viewBox="0 0 32 32" fill="none" xmlns="http://www.w3.org/2000/svg">
<path d="M16 31.9999C24.8365 31.9999 31.9999 24.8365 31.9999 16C31.9999 7.16343 24.8365 0 16 0C7.16343 0 0 7.16343 0 16C0 24.8365 7.16343 31.9999 16 31.9999Z" fill="#FFDA44"/>
<path d="M12.5194 2.78247H6.97969C6.73419 2.95028 6.49394 3.12497 6.2585 3.30578L4.86719 15.9998L6.2585 28.6938C6.49394 28.8747 6.73419 29.0494 6.97969 29.2171H12.5194V2.78247Z" fill="#FF9811"/>
<path d="M0 16C0 21.1716 2.45426 25.7692 6.26089 28.694V3.30591C2.45426 6.23079 0 10.8284 0 16Z" fill="#6DA544"/>
<path d="M25.7422 9.75391V10.1542L25.7571 10.1565L25.7422 9.75391Z" fill="#FFDA44"/>
<path d="M30.7175 20.1738H27.703L26.4276 21.5651V24.3477H23.645V22.9564H25.0363V20.1738H18.7754V21.9129H17.3841V18.5984C16.9573 18.2163 16.6885 17.6612 16.6885 17.0433V7.99986C16.6885 6.84729 17.6229 5.91291 18.7754 5.91291V18.7825H21.5581L22.5128 17.9868C22.3461 17.5896 22.2537 17.1534 22.2537 16.6956V14.6086H20.1668V10.4347H24.3406C24.3406 9.73911 25.3841 9.04342 25.3841 9.04342C25.3841 9.04342 26.4276 9.73905 26.4276 10.4347V11.4782V14.6087C27.2016 14.6179 28.4312 14.5978 29.7597 14.6087C29.4107 13.9987 29.2102 13.2749 29.2102 12.5217C29.2102 11.2942 29.7402 10.1905 30.5838 9.4268C29.3678 6.7321 27.4275 4.43447 25.0108 2.78247H14.6016V29.2173H25.0108C27.9495 27.2085 30.1838 24.2453 31.2678 20.7741L30.7175 20.1738Z" fill="#A2001D"/>
</svg>
