<svg width="32" height="32" viewBox="0 0 32 32" fill="none" xmlns="http://www.w3.org/2000/svg">
<path d="M1.58763 9.04366C0.5705 11.1472 0 13.507 0 16.0002C0 18.4933 0.5705 20.8532 1.58763 22.9567L16 24.348L30.4124 22.9567C31.4295 20.8532 32 18.4933 32 16.0002C32 13.507 31.4295 11.1472 30.4124 9.04366L16 7.65234L1.58763 9.04366Z" fill="#F0F0F0"/>
<path d="M1.58594 22.9565C4.17381 28.3085 9.65438 32 15.9978 32C22.3411 32 27.8217 28.3085 30.4096 22.9565H1.58594Z" fill="black"/>
<path d="M1.58594 9.0435H30.4096C27.8217 3.69156 22.3411 0 15.9978 0C9.65438 0 4.17381 3.69156 1.58594 9.0435Z" fill="#D80027"/>
<path d="M4.68628 4.68604C-1.56209 10.9344 -1.56209 21.0651 4.68628 27.3135C7.26834 24.7315 9.75166 22.2482 16 15.9998L4.68628 4.68604Z" fill="#496E2D"/>
</svg>
