<svg width="32" height="32" viewBox="0 0 32 32" fill="none" xmlns="http://www.w3.org/2000/svg">
<g clip-path="url(#clip0_24085_394522)">
<path d="M16 32C24.8366 32 32 24.8366 32 16C32 7.16344 24.8366 0 16 0C7.16344 0 0 7.16344 0 16C0 24.8366 7.16344 32 16 32Z" fill="#F0F0F0"/>
<path d="M31.0047 10.4346H0.995125C0.352063 12.1679 0 14.0426 0 15.9998C0 17.9569 0.352063 19.8317 0.995125 21.5649H31.0048C31.648 19.8317 32 17.9569 32 15.9998C32 14.0426 31.648 12.1679 31.0047 10.4346Z" fill="#A2001D"/>
<path d="M16.0434 32C21.5236 32 26.3596 29.2442 29.2432 25.0435H2.84375C5.72738 29.2442 10.5632 32 16.0434 32Z" fill="#6DA544"/>
<path d="M16.0434 0C21.5236 0 26.3596 2.75575 29.2432 6.9565H2.84375C5.72738 2.75575 10.5632 0 16.0434 0Z" fill="#6DA544"/>
<path d="M16.0001 10.4351L17.3814 14.6863H21.8517L18.2352 17.3141L19.6166 21.5654L16.0001 18.938L12.3835 21.5654L13.765 17.3141L10.1484 14.6863H14.6188L16.0001 10.4351Z" fill="#FFDA44"/>
</g>
<defs>
<clipPath id="clip0_24085_394522">
<rect width="32" height="32" fill="white"/>
</clipPath>
</defs>
</svg>
