<svg width="32" height="32" viewBox="0 0 32 32" fill="none" xmlns="http://www.w3.org/2000/svg">
<g clip-path="url(#clip0_24085_396173)">
<path d="M16 32C24.8366 32 32 24.8366 32 16C32 7.16344 24.8366 0 16 0C7.16344 0 0 7.16344 0 16C0 24.8366 7.16344 32 16 32Z" fill="#FFDA44"/>
<path d="M12.5157 13.9131H31.8584C30.8357 6.06262 24.1231 0 15.9939 0C14.7992 0 13.6356 0.132063 12.5156 0.380313V13.9131H12.5157Z" fill="#0052B4"/>
<path d="M8.34519 13.9131V1.94556C3.95181 4.34268 0.80675 8.73962 0.132812 13.9132H8.34519V13.9131Z" fill="#0052B4"/>
<path d="M8.34512 18.0872H0.132812C0.80675 23.2607 3.95181 27.6577 8.34519 30.0547L8.34512 18.0872Z" fill="#0052B4"/>
<path d="M12.5156 18.0872V31.6199C13.6356 31.8682 14.7992 32.0002 15.9939 32.0002C24.1231 32.0002 30.8357 25.9376 31.8584 18.0872H12.5156V18.0872Z" fill="#0052B4"/>
</g>
<defs>
<clipPath id="clip0_24085_396173">
<rect width="32" height="32" fill="white"/>
</clipPath>
</defs>
</svg>
