<svg width="32" height="32" viewBox="0 0 32 32" fill="none" xmlns="http://www.w3.org/2000/svg">
<path d="M16 32C24.8366 32 32 24.8366 32 16C32 7.16344 24.8366 0 16 0C7.16344 0 0 7.16344 0 16C0 24.8366 7.16344 32 16 32Z" fill="#F0F0F0"/>
<path d="M16.0048 0C9.12537 0 3.26069 4.342 1 10.4348H31.0097C28.7489 4.342 22.8843 0 16.0048 0Z" fill="#D80027"/>
<path d="M16.0048 31.9998C22.8842 31.9998 28.7489 27.6578 31.0096 21.5649H1C3.26069 27.6578 9.12537 31.9998 16.0048 31.9998Z" fill="black"/>
<path d="M9.5635 12.1738L10.4268 14.8308H13.2207L10.9604 16.4732L11.8238 19.1303L9.5635 17.4881L7.30319 19.1303L8.16656 16.4732L5.90625 14.8308H8.70019L9.5635 12.1738Z" fill="#6DA544"/>
<path d="M22.4385 12.1738L23.3018 14.8308H26.0958L23.8354 16.4732L24.6988 19.1303L22.4385 17.4881L20.1782 19.1303L21.0416 16.4732L18.7812 14.8308H21.5752L22.4385 12.1738Z" fill="#6DA544"/>
</svg>
