<svg width="32" height="32" viewBox="0 0 32 32" fill="none" xmlns="http://www.w3.org/2000/svg">
<path d="M32 16C32 24.8365 24.8365 32 16 32C7.1635 32 0 24.8365 0 16C5.49563 10.5044 10.1565 5.8435 16 0C24.8365 0 32 7.1635 32 16Z" fill="#D80027"/>
<path d="M16 16C16 7.1635 16 6.12175 16 0C7.1635 0 0 7.1635 0 16H16Z" fill="#0052B4"/>
<path d="M13.9081 9.36358L11.9541 10.2828L12.9946 12.1753L10.8727 11.7693L10.6038 13.9128L9.12594 12.3363L7.64794 13.9128L7.37912 11.7693L5.25725 12.1751L6.29775 10.2827L4.34375 9.36358L6.29781 8.44451L5.25725 6.55202L7.37906 6.95795L7.648 4.81445L9.12594 6.39095L10.6039 4.81445L10.8727 6.95795L12.9946 6.55202L11.9541 8.44458L13.9081 9.36358Z" fill="#F0F0F0"/>
<path d="M9.13457 12.3421C10.7794 12.3421 12.1129 11.0087 12.1129 9.36381C12.1129 7.71893 10.7794 6.3855 9.13457 6.3855C7.48969 6.3855 6.15625 7.71893 6.15625 9.36381C6.15625 11.0087 7.48969 12.3421 9.13457 12.3421Z" fill="#0052B4"/>
<path d="M9.126 10.9506C8.25094 10.9506 7.53906 10.2387 7.53906 9.36361C7.53906 8.48855 8.251 7.77661 9.126 7.77661C10.0011 7.77661 10.713 8.48855 10.713 9.36361C10.7129 10.2387 10.0009 10.9506 9.126 10.9506Z" fill="#F0F0F0"/>
</svg>
