<svg width="32" height="32" viewBox="0 0 32 32" fill="none" xmlns="http://www.w3.org/2000/svg">
<path d="M1.58763 9.04341C0.5705 11.1469 0 13.5068 0 15.9999C0 18.493 0.5705 20.8529 1.58763 22.9564L16 24.3477L30.4124 22.9564C31.4295 20.8529 32 18.493 32 15.9999C32 13.5068 31.4295 11.1469 30.4124 9.04341L16 7.6521L1.58763 9.04341Z" fill="#F0F0F0"/>
<path d="M1.58594 22.9563C4.17388 28.3081 9.65444 31.9998 15.9978 31.9998C22.3411 31.9998 27.8217 28.3081 30.4096 22.9563H1.58594Z" fill="#6DA544"/>
<path d="M1.58594 9.0435H30.4096C27.8217 3.69163 22.3411 0 15.9978 0C9.65444 0 4.17388 3.69163 1.58594 9.0435Z" fill="#D80027"/>
<path d="M13.2188 20.1741H18.784V17.8089L17.6709 18.3654L16.0014 16.6958L14.3318 18.3654L13.2188 17.8089V20.1741Z" fill="#FFDA44"/>
<path d="M10.0347 17.3916L10.2937 18.1887H11.1319L10.4537 18.6814L10.7128 19.4785L10.0347 18.9859L9.35656 19.4785L9.61562 18.6814L8.9375 18.1887H9.77562L10.0347 17.3916Z" fill="#FFDA44"/>
<path d="M10.8394 14.6089L11.0984 15.406H11.9366L11.2584 15.8987L11.5174 16.6958L10.8394 16.2032L10.1613 16.6958L10.4203 15.8987L9.74219 15.406H10.5803L10.8394 14.6089Z" fill="#FFDA44"/>
<path d="M13.1284 12.5222L13.3875 13.3193H14.2256L13.5476 13.812L13.8065 14.6092L13.1284 14.1165L12.4504 14.6092L12.7094 13.812L12.0312 13.3193H12.8694L13.1284 12.5222Z" fill="#FFDA44"/>
<path d="M21.9722 17.3916L21.7131 18.1887H20.875L21.5531 18.6814L21.2941 19.4785L21.9722 18.9859L22.6502 19.4785L22.3913 18.6814L23.0694 18.1887H22.2313L21.9722 17.3916Z" fill="#FFDA44"/>
<path d="M21.1675 14.6089L20.9084 15.406H20.0703L20.7484 15.8987L20.4894 16.6958L21.1675 16.2032L21.8456 16.6958L21.5866 15.8987L22.2647 15.406H21.4266L21.1675 14.6089Z" fill="#FFDA44"/>
<path d="M18.8706 12.5222L18.6115 13.3193H17.7734L18.4514 13.812L18.1924 14.6092L18.8706 14.1165L19.5486 14.6092L19.2896 13.812L19.9677 13.3193H19.1296L18.8706 12.5222Z" fill="#FFDA44"/>
<path d="M16.0034 11.4783L16.2625 12.2754H17.1006L16.4225 12.7681L16.6816 13.5652L16.0034 13.0726L15.3253 13.5652L15.5844 12.7681L14.9062 12.2754H15.7444L16.0034 11.4783Z" fill="#FFDA44"/>
</svg>
