<svg width="32" height="32" viewBox="0 0 32 32" fill="none" xmlns="http://www.w3.org/2000/svg">
<g clip-path="url(#clip0_24085_395790)">
<path d="M16 32C24.8366 32 32 24.8366 32 16C32 7.16344 24.8366 0 16 0C7.16344 0 0 7.16344 0 16C0 24.8366 7.16344 32 16 32Z" fill="#FFDA44"/>
<path d="M4.67944 27.3143C5.35063 27.9854 6.06675 28.584 6.81794 29.111L29.1036 6.82532C28.5767 6.07414 27.9781 5.35801 27.3069 4.68682C26.6356 4.01564 25.9196 3.41714 25.1684 2.89014L2.88281 25.1758C3.40969 25.9268 4.00831 26.643 4.67944 27.3143Z" fill="black"/>
<path d="M4.68563 4.68604C-0.361993 9.73379 -1.33106 17.3145 1.77663 23.3359L23.3355 1.77711C17.3141 -1.33058 9.73332 -0.361456 4.68563 4.68604Z" fill="#6DA544"/>
<path d="M27.3139 27.3139C32.3615 22.2663 33.3305 14.6855 30.2229 8.66406L8.66406 30.2229C14.6854 33.3306 22.2662 32.3616 27.3139 27.3139Z" fill="#338AF3"/>
</g>
<defs>
<clipPath id="clip0_24085_395790">
<rect width="32" height="32" fill="white"/>
</clipPath>
</defs>
</svg>
