<svg width="32" height="32" viewBox="0 0 32 32" fill="none" xmlns="http://www.w3.org/2000/svg">
<path d="M16 32C24.8366 32 32 24.8366 32 16C32 7.16344 24.8366 0 16 0C7.16344 0 0 7.16344 0 16C0 24.8366 7.16344 32 16 32Z" fill="#F0F0F0"/>
<path d="M31.0048 10.4348H0.995188C0.352 12.1681 0 14.0429 0 16C0 17.9571 0.352 19.8319 0.995188 21.5652H31.0049C31.648 19.8319 32 17.9571 32 16C32 14.0429 31.648 12.1681 31.0048 10.4348Z" fill="#0052B4"/>
<path d="M16.0038 0C11.1544 0 6.80919 2.15775 3.875 5.56519H28.1326C25.1984 2.15775 20.8533 0 16.0038 0Z" fill="#D80027"/>
<path d="M28.1326 26.4348H3.875C6.80919 29.8423 11.1544 32 16.0038 32C20.8532 32 25.1984 29.8423 28.1326 26.4348Z" fill="#D80027"/>
</svg>
