<svg width="32" height="32" viewBox="0 0 32 32" fill="none" xmlns="http://www.w3.org/2000/svg">
<g clip-path="url(#clip0_24085_394834)">
<path d="M8.66806 1.77661C7.23569 2.51592 5.89112 3.48499 4.69037 4.68574C3.48956 5.88655 2.5205 7.23111 1.78125 8.66349L12.0692 19.9353L23.341 30.2232C24.7734 29.4839 26.118 28.5149 27.3188 27.3142C28.5196 26.1134 29.4886 24.7688 30.2279 23.3364L19.9399 12.0645L8.66806 1.77661Z" fill="#F0F0F0"/>
<path d="M27.3079 27.3141C27.9791 26.6429 28.5777 25.9267 29.1047 25.1755L6.81819 2.88892C6.067 3.41585 5.35081 4.01448 4.67963 4.68567C4.00844 5.35685 3.40981 6.07304 2.88281 6.82429L25.1694 29.1108C25.9205 28.5839 26.6367 27.9853 27.3079 27.3141Z" fill="black"/>
<path d="M4.68575 27.314C9.73368 32.362 17.3147 33.331 23.3364 30.2231L1.77668 8.66333C-1.33113 14.685 -0.361942 22.2661 4.68575 27.314Z" fill="#D80027"/>
<path d="M27.3147 4.68558C22.2668 -0.362293 14.6857 -1.33129 8.66406 1.77639L30.2237 23.3363C33.3316 17.3146 32.3626 9.73345 27.3147 4.68558Z" fill="#D80027"/>
</g>
<defs>
<clipPath id="clip0_24085_394834">
<rect width="32" height="32" fill="white"/>
</clipPath>
</defs>
</svg>
