<svg width="32" height="32" viewBox="0 0 32 32" fill="none" xmlns="http://www.w3.org/2000/svg">
<path d="M16 32C24.8366 32 32 24.8366 32 16C32 7.16344 24.8366 0 16 0C7.16344 0 0 7.16344 0 16C0 24.8366 7.16344 32 16 32Z" fill="#D80027"/>
<path d="M15.9959 23.6518C20.2221 23.6518 23.6481 20.2258 23.6481 15.9996C23.6481 11.7734 20.2221 8.34741 15.9959 8.34741C11.7698 8.34741 8.34375 11.7734 8.34375 15.9996C8.34375 20.2258 11.7698 23.6518 15.9959 23.6518Z" fill="#F0F0F0"/>
<path d="M16.9478 13.0732L18.2606 14.8823L20.3866 14.1929L19.0718 16.0004L20.3844 17.8094L18.2591 17.1174L16.9442 18.9249L16.9456 16.6899L14.8203 15.9979L16.9464 15.3085L16.9478 13.0732Z" fill="#D80027"/>
<path d="M17.7418 20.5216C15.2446 20.5216 13.2201 18.4971 13.2201 15.9998C13.2201 13.5026 15.2446 11.4781 17.7418 11.4781C18.5204 11.4781 19.2531 11.6749 19.8927 12.0216C18.8893 11.0403 17.5171 10.4346 16.0027 10.4346C12.9292 10.4346 10.4375 12.9262 10.4375 15.9998C10.4375 19.0733 12.9292 21.5649 16.0027 21.5649C17.5171 21.5649 18.8894 20.9593 19.8927 19.9779C19.2531 20.3247 18.5204 20.5216 17.7418 20.5216Z" fill="#D80027"/>
</svg>
