<svg width="32" height="32" viewBox="0 0 32 32" fill="none" xmlns="http://www.w3.org/2000/svg">
<path d="M16 32C24.8366 32 32 24.8366 32 16C32 7.16344 24.8366 0 16 0C7.16344 0 0 7.16344 0 16C0 24.8366 7.16344 32 16 32Z" fill="#D80027"/>
<path d="M15.3463 13.074L16.6591 14.883L18.7851 14.1937L17.4703 16.0012L18.7829 17.8102L16.6576 17.1182L15.3428 18.9257L15.3441 16.6906L13.2188 15.9986L15.3449 15.3092L15.3463 13.074Z" fill="#F0F0F0"/>
<path d="M11.7652 20.5216C9.268 20.5216 7.2435 18.4971 7.2435 15.9998C7.2435 13.5026 9.268 11.4781 11.7652 11.4781C12.5439 11.4781 13.2765 11.675 13.9161 12.0216C12.9127 11.0402 11.5404 10.4346 10.0261 10.4346C6.9525 10.4346 4.46094 12.9262 4.46094 15.9998C4.46094 19.0733 6.95256 21.5649 10.0261 21.5649C11.5405 21.5649 12.9127 20.9593 13.9161 19.9779C13.2765 20.3246 12.5439 20.5216 11.7652 20.5216Z" fill="#F0F0F0"/>
</svg>
