<svg width="32" height="32" viewBox="0 0 32 32" fill="none" xmlns="http://www.w3.org/2000/svg">
<path d="M15.9941 0C14.7995 0 13.6358 0.132063 12.5159 0.380313L11.8203 15.9999L12.5159 31.6196C13.6359 31.8679 14.7996 32 15.9941 32C24.8307 32 31.9941 24.8365 31.9941 15.9999C31.9941 7.16344 24.8307 0 15.9941 0Z" fill="#496E2D"/>
<path d="M4.17387 5.2229C1.58112 8.0664 0 11.8483 0 15.9997C0 20.151 1.58119 23.9329 4.17394 26.7765L4.86956 15.9997L4.17387 5.2229Z" fill="#496E2D"/>
<path d="M23.4029 12.0685C24.1901 9.87437 23.3057 7.48806 21.4078 6.29956C21.7491 6.344 22.0909 6.42437 22.4281 6.54531C24.9596 7.45356 26.2754 10.2418 25.3672 12.7732C24.4589 15.3047 21.6707 16.6205 19.1393 15.7122C18.8019 15.5912 18.487 15.4359 18.1953 15.2532C20.4159 15.5424 22.6157 14.2626 23.4029 12.0685Z" fill="#F0F0F0"/>
<path d="M19.0407 5.69824L18.3566 6.58211L17.3048 6.20468L17.9339 7.1283L17.25 8.01205L18.3228 7.69917L18.9521 8.62267L18.9858 7.50567L20.0587 7.19274L19.0069 6.81543L19.0407 5.69824Z" fill="#F0F0F0"/>
<path d="M20.8845 8.57812L20.2004 9.46194L19.1486 9.0845L19.7778 10.0081L19.0938 10.8919L20.1666 10.5789L20.7958 11.5026L20.8297 10.3855L21.9025 10.0725L20.8506 9.69512L20.8845 8.57812Z" fill="#F0F0F0"/>
<path d="M15.7751 6.74707L15.091 7.63082L14.0392 7.25351L14.6684 8.17707L13.9844 9.06088L15.0571 8.74794L15.6864 9.67151L15.7203 8.55451L16.7931 8.24157L15.7413 7.86413L15.7751 6.74707Z" fill="#F0F0F0"/>
<path d="M15.7048 10.0459L15.0208 10.9297L13.9689 10.5523L14.5982 11.476L13.9141 12.3597L14.987 12.0468L15.6162 12.9703L15.65 11.8533L16.7229 11.5404L15.6709 11.163L15.7048 10.0459Z" fill="#F0F0F0"/>
<path d="M18.8376 11.1721L18.1536 12.0559L17.1017 11.6785L17.731 12.6021L17.0469 13.4858L18.1198 13.1729L18.749 14.0966L18.7828 12.9794L19.8557 12.6666L18.8037 12.2892L18.8376 11.1721Z" fill="#F0F0F0"/>
<path d="M4.17969 5.223V26.7766C6.35969 29.1674 9.25531 30.894 12.5275 31.6194V0.380127C9.25525 1.1055 6.35975 2.83206 4.17969 5.223Z" fill="#D80027"/>
<path d="M7.3585 8.42388L5.96094 7.38275V5.91044L7.3585 4.86938H9.33506L10.7326 5.91044V7.38275L9.33506 8.42388H7.3585Z" fill="#F0F0F0"/>
<path d="M8.34681 4.86938H7.3585L5.96094 5.91045V6.63026H8.34681V4.86938Z" fill="#FF9811"/>
<path d="M8.34375 8.42402H9.332L10.7296 7.3829V6.63184H8.34375V8.42402Z" fill="#FF9811"/>
<path d="M7.3585 27.1304L5.96094 26.0893V24.6171L7.3585 23.5759H9.33506L10.7326 24.6171V26.0893L9.33506 27.1304H7.3585Z" fill="#F0F0F0"/>
<path d="M8.34681 23.5759H7.3585L5.96094 24.6171V25.3369H8.34681V23.5759Z" fill="#FF9811"/>
<path d="M8.34375 27.1305H9.332L10.7296 26.0894V25.3384H8.34375V27.1305Z" fill="#FF9811"/>
<path d="M7.36631 17.7771L5.96875 16.736V15.2638L7.36631 14.2227H9.34288L10.7404 15.2638V16.736L9.34288 17.7771H7.36631Z" fill="#496E2D"/>
<path d="M10.7836 20.0675H10.1748V19.4588H9.10513L8.34875 18.7024L7.59244 19.4588H6.52275V20.0675H5.91406V21.2848H6.52275V21.8935H7.59238L8.34881 22.65L9.10513 21.8935H10.1748V21.2848H10.7836V20.0675Z" fill="#496E2D"/>
<path d="M10.7836 10.7145H10.1748V10.1057H9.10513L8.34875 9.34937L7.59244 10.1057H6.52275V10.7145H5.91406V11.9319H6.52275V12.5406H7.59238L8.34881 13.2971L9.10513 12.5406H10.1748V11.9319H10.7836V10.7145Z" fill="#496E2D"/>
<path d="M9.04755 15.304H7.65625V16.6953H9.04755V15.304Z" fill="#D80027"/>
<path d="M8.35187 12.0184C8.73605 12.0184 9.04749 11.707 9.04749 11.3228C9.04749 10.9386 8.73605 10.6272 8.35187 10.6272C7.96769 10.6272 7.65625 10.9386 7.65625 11.3228C7.65625 11.707 7.96769 12.0184 8.35187 12.0184Z" fill="#D80027"/>
<path d="M8.35187 21.3722C8.73605 21.3722 9.04749 21.0608 9.04749 20.6766C9.04749 20.2924 8.73605 19.981 8.35187 19.981C7.96769 19.981 7.65625 20.2924 7.65625 20.6766C7.65625 21.0608 7.96769 21.3722 8.35187 21.3722Z" fill="#D80027"/>
</svg>
