<svg width="32" height="32" viewBox="0 0 32 32" fill="none" xmlns="http://www.w3.org/2000/svg">
<g clip-path="url(#clip0_24085_394768)">
<path d="M27.9246 26.6665C30.4585 23.8358 32 20.0981 32 15.9999C32 11.9016 30.4584 8.16395 27.9245 5.3332L16 4.17383L4.0755 5.3332C1.54156 8.16395 0 11.9016 0 15.9999C0 20.0981 1.5415 23.8358 4.07544 26.6665L16 27.826L27.9246 26.6665Z" fill="#FFDA44"/>
<path d="M4.07031 5.33331H27.9194C24.9897 2.06037 20.7331 0 15.9948 0C11.2565 0 6.99994 2.06037 4.07031 5.33331Z" fill="black"/>
<path d="M0 15.9999L16 17.3912L32 15.9999C32 14.1296 31.6781 12.3348 31.0882 10.6665H0.91175C0.321938 12.3348 0 14.1296 0 15.9999Z" fill="#D80027"/>
<path d="M0.91175 21.3333H31.0884C31.6781 19.6651 32 17.8702 32 16H0C0 17.8702 0.321938 19.6651 0.91175 21.3333Z" fill="black"/>
<path d="M27.9194 26.6665H4.07031C6.99994 29.9395 11.2565 31.9999 15.9949 31.9999C20.7333 31.9999 24.9898 29.9395 27.9194 26.6665Z" fill="#D80027"/>
<path d="M21.3345 15.9998C21.3345 18.9487 18.9443 21.3389 15.9954 21.3389C13.0464 21.3389 10.6562 18.9487 10.6562 15.9998C10.6562 13.0508 13.0464 10.6606 15.9954 10.6606C18.9443 10.6606 21.3345 13.0508 21.3345 15.9998Z" fill="#F0F0F0"/>
<path d="M17.9558 16.2722L15.9999 15.4246C15.9999 15.4246 16.4575 13.9057 16.4819 13.8017C16.4997 13.7258 16.5092 13.6466 16.5092 13.5652C16.5092 13.277 16.3924 13.0162 16.2035 12.8274L16.6954 12.3355C16.3807 12.0209 15.9459 11.8262 15.4656 11.8262C14.9854 11.8262 14.5506 12.0208 14.2359 12.3355L14.7277 12.8274C14.5389 13.0162 14.4221 13.2771 14.4221 13.5652C14.4221 13.6706 14.4381 13.7722 14.4671 13.8681L13.7266 14.6086H15.0726C15.0726 14.6086 14.5161 15.4445 14.2122 16.1309C13.9084 16.8173 14.2164 17.6552 14.9186 17.9674L15.3246 18.1478L15.9999 18.7825V19.4782L15.3042 20.1738H16.6956V18.7825L17.3304 18.1477H18.6434C18.6497 18.1346 18.6563 18.1219 18.6623 18.1085C18.9742 17.4064 18.658 16.5842 17.9558 16.2722Z" fill="black"/>
</g>
<defs>
<clipPath id="clip0_24085_394768">
<rect width="32" height="32" fill="white"/>
</clipPath>
</defs>
</svg>
