<svg width="32" height="32" viewBox="0 0 32 32" fill="none" xmlns="http://www.w3.org/2000/svg">
<path d="M16 32C24.8366 32 32 24.8366 32 16C32 7.16344 24.8366 0 16 0C7.16344 0 0 7.16344 0 16C0 24.8366 7.16344 32 16 32Z" fill="#F0F0F0"/>
<path d="M3.311 6.25806C2.05419 7.89324 1.1065 9.77793 0.554688 11.8254H8.87831L3.311 6.25806Z" fill="#0052B4"/>
<path d="M31.4485 11.8253C30.8967 9.77794 29.9489 7.89325 28.6922 6.25806L23.125 11.8253H31.4485Z" fill="#0052B4"/>
<path d="M0.554688 20.1738C1.10656 22.2212 2.05425 24.1059 3.311 25.741L8.87813 20.1738H0.554688Z" fill="#0052B4"/>
<path d="M25.7469 3.30716C24.1117 2.05034 22.2271 1.10266 20.1797 0.550781V8.87434L25.7469 3.30716Z" fill="#0052B4"/>
<path d="M6.26562 28.6929C7.90081 29.9497 9.7855 30.8974 11.8329 31.4492V23.1257L6.26562 28.6929Z" fill="#0052B4"/>
<path d="M11.8328 0.550781C9.78544 1.10266 7.90075 2.05034 6.26562 3.30709L11.8328 8.87428V0.550781Z" fill="#0052B4"/>
<path d="M20.1797 31.4492C22.2271 30.8974 24.1118 29.9497 25.7469 28.6929L20.1797 23.1257V31.4492Z" fill="#0052B4"/>
<path d="M23.125 20.1738L28.6922 25.7411C29.9489 24.106 30.8967 22.2212 31.4485 20.1738H23.125Z" fill="#0052B4"/>
<path d="M31.8646 13.9131H18.0871H18.087V0.135438C17.4038 0.0465 16.7073 0 16 0C15.2926 0 14.5962 0.0465 13.9131 0.135438V13.9129V13.913H0.135438C0.0465 14.5962 0 15.2927 0 16C0 16.7074 0.0465 17.4038 0.135438 18.0869H13.9129H13.913V31.8646C14.5962 31.9535 15.2926 32 16 32C16.7073 32 17.4038 31.9536 18.0869 31.8646V18.0871V18.087H31.8646C31.9535 17.4038 32 16.7074 32 16C32 15.2927 31.9535 14.5962 31.8646 13.9131Z" fill="#D80027"/>
<path d="M20.1797 20.1739L27.3194 27.3136C27.6478 26.9854 27.9611 26.6422 28.2599 26.2865L22.1473 20.1738H20.1797V20.1739Z" fill="#D80027"/>
<path d="M11.8273 20.1738H11.8272L4.6875 27.3135C5.01575 27.6419 5.35894 27.9551 5.71469 28.254L11.8273 22.1413V20.1738Z" fill="#D80027"/>
<path d="M11.8302 11.8255V11.8254L4.6905 4.68555C4.36213 5.0138 4.04888 5.35699 3.75 5.71274L9.86269 11.8254H11.8302V11.8255Z" fill="#D80027"/>
<path d="M20.1797 11.8267L27.3195 4.68678C26.9912 4.3584 26.6481 4.04515 26.2923 3.74634L20.1797 9.85903V11.8267Z" fill="#D80027"/>
</svg>
