<svg width="32" height="32" viewBox="0 0 32 32" fill="none" xmlns="http://www.w3.org/2000/svg">
<path d="M16 32C24.8366 32 32 24.8366 32 16C32 7.16344 24.8366 0 16 0C7.16344 0 0 7.16344 0 16C0 24.8366 7.16344 32 16 32Z" fill="#F0F0F0"/>
<path d="M9.03906 21.5649L10.4304 31.0047C12.1636 31.6479 14.0384 31.9998 15.9956 31.9998C22.8749 31.9998 28.7397 27.6578 31.0003 21.5649H9.03906Z" fill="black"/>
<path d="M9.03906 10.4348L10.4304 0.995062C12.1636 0.351875 14.0384 0 15.9956 0C22.8749 0 28.7397 4.342 31.0003 10.4348H9.03906Z" fill="#6DA544"/>
<path d="M0 16.0004C0 22.8799 4.34206 28.7445 10.4348 31.0052V0.995605C4.34206 3.25629 0 9.12098 0 16.0004Z" fill="#A2001D"/>
</svg>
