<svg width="32" height="32" viewBox="0 0 32 32" fill="none" xmlns="http://www.w3.org/2000/svg">
<path d="M16 32C24.8366 32 32 24.8366 32 16C32 7.16344 24.8366 0 16 0C7.16344 0 0 7.16344 0 16C0 24.8366 7.16344 32 16 32Z" fill="#F0F0F0"/>
<path d="M16 11.8263H31.4488C31.0476 10.3379 30.4379 8.93535 29.6516 7.65234H16V11.8263Z" fill="#338AF3"/>
<path d="M6.03556 28.5216H25.9551C27.4153 27.3586 28.6676 25.946 29.6469 24.3477H2.34375C3.32319 25.9459 4.57544 27.3586 6.03556 28.5216Z" fill="#338AF3"/>
<path d="M16 0C16 1.39131 16 3.47825 16 3.47825H25.9598C23.2267 1.3015 19.7656 0 16 0Z" fill="#338AF3"/>
<path d="M16 11.8263H31.4488C31.0476 10.3379 30.4379 8.93535 29.6516 7.65234H16V11.8263Z" fill="#338AF3"/>
<path d="M0 16C0 17.4442 0.1925 18.8431 0.551188 20.1739H31.4489C31.8075 18.8431 32 17.4442 32 16H0Z" fill="#338AF3"/>
<path d="M13.9081 9.36358L11.954 10.2828L12.9946 12.1753L10.8727 11.7694L10.6038 13.9128L9.12594 12.3363L7.64794 13.9128L7.37912 11.7694L5.25725 12.1751L6.29775 10.2827L4.34375 9.36358L6.29781 8.44452L5.25725 6.55202L7.37906 6.95789L7.648 4.81445L9.12594 6.39095L10.6039 4.81445L10.8727 6.95789L12.9946 6.55202L11.9541 8.44458L13.9081 9.36358Z" fill="#FFDA44"/>
</svg>
