<svg width="32" height="32" viewBox="0 0 32 32" fill="none" xmlns="http://www.w3.org/2000/svg">
<g clip-path="url(#clip0_24085_394993)">
<path d="M0.7555 11.1305C0.265375 12.666 -6.2489e-05 14.3018 1.10347e-08 15.9999C-6.2489e-05 17.698 0.265437 19.3339 0.755562 20.8694L16 21.5652L31.2444 20.8696C31.7345 19.334 32.0001 17.698 32.0001 16C32 14.3019 31.7346 12.666 31.2444 11.1304L16 10.4348L0.7555 11.1305Z" fill="#F0F0F0"/>
<path d="M31.2469 11.1304L16.0024 10.4348L0.757938 11.1304C0.612688 11.5857 0.487625 12.0499 0.382812 12.5218H31.6218C31.5171 12.0498 31.3921 11.5856 31.2469 11.1304Z" fill="#D80027"/>
<path d="M0.382812 19.478C0.4875 19.9499 0.612563 20.414 0.757813 20.8693L0.759313 20.8693L16.0022 21.565L31.2466 20.8693C31.3919 20.4141 31.5169 19.9499 31.6217 19.478H0.382812Z" fill="#D80027"/>
<path d="M16.0022 31.9998C23.1407 31.9998 29.1863 27.3246 31.2466 20.8694H0.757812C2.81812 27.3246 8.86387 31.9998 16.0022 31.9998Z" fill="#6DA544"/>
<path d="M16.0022 0.0012207C8.86387 0.0012832 2.81825 4.67647 0.757812 11.1317L31.2466 11.1317C29.1864 4.67641 23.1408 0.0011582 16.0022 0.0012207Z" fill="#338AF3"/>
<path d="M7.31037 6.60889C7.31037 5.11033 8.36356 3.85845 9.76999 3.55133C9.55387 3.50408 9.32955 3.47852 9.09918 3.47852C7.37031 3.47852 5.96875 4.88001 5.96875 6.60895C5.96875 8.33788 7.37018 9.73938 9.09918 9.73938C9.32955 9.73938 9.5538 9.71376 9.76999 9.66657C8.36362 9.35932 7.31037 8.10745 7.31037 6.60889Z" fill="#F0F0F0"/>
<path d="M11.6165 8.03174L11.8284 8.68393H12.5141L11.9594 9.08705L12.1713 9.73924L11.6165 9.33618L11.0616 9.73924L11.2736 9.08705L10.7188 8.68393H11.4045L11.6165 8.03174Z" fill="#F0F0F0"/>
<path d="M13.8039 8.03174L14.0158 8.68393H14.7016L14.1467 9.08705L14.3587 9.73924L13.8039 9.33618L13.2491 9.73924L13.461 9.08705L12.9062 8.68393H13.5919L13.8039 8.03174Z" fill="#F0F0F0"/>
<path d="M15.9993 8.03174L16.2112 8.68393H16.897L16.3422 9.08705L16.5541 9.73924L15.9993 9.33618L15.4444 9.73924L15.6564 9.08705L15.1016 8.68393H15.7874L15.9993 8.03174Z" fill="#F0F0F0"/>
<path d="M18.1868 8.03174L18.3988 8.68393H19.0844L18.5297 9.08705L18.7416 9.73924L18.1868 9.33618L17.6319 9.73924L17.8439 9.08705L17.2891 8.68393H17.9748L18.1868 8.03174Z" fill="#F0F0F0"/>
<path d="M20.3742 8.03174L20.5861 8.68393H21.2719L20.7171 9.08705L20.9291 9.73924L20.3742 9.33618L19.8194 9.73924L20.0313 9.08705L19.4766 8.68393H20.1623L20.3742 8.03174Z" fill="#F0F0F0"/>
<path d="M13.8039 5.75488L14.0158 6.40701H14.7016L14.1467 6.81019L14.3587 7.46232L13.8039 7.05926L13.2491 7.46232L13.461 6.81019L12.9062 6.40701H13.5919L13.8039 5.75488Z" fill="#F0F0F0"/>
<path d="M15.9993 5.75488L16.2112 6.40701H16.897L16.3422 6.81019L16.5541 7.46232L15.9993 7.05926L15.4444 7.46232L15.6564 6.81019L15.1016 6.40701H15.7874L15.9993 5.75488Z" fill="#F0F0F0"/>
<path d="M18.1868 5.75488L18.3988 6.40701H19.0844L18.5297 6.81019L18.7416 7.46232L18.1868 7.05926L17.6319 7.46232L17.8439 6.81019L17.2891 6.40701H17.9748L18.1868 5.75488Z" fill="#F0F0F0"/>
<path d="M20.3742 5.75488L20.5861 6.40701H21.2719L20.7171 6.81019L20.9291 7.46232L20.3742 7.05926L19.8194 7.46232L20.0313 6.81019L19.4766 6.40701H20.1623L20.3742 5.75488Z" fill="#F0F0F0"/>
<path d="M15.9993 3.47827L16.2112 4.13052H16.897L16.3422 4.53358L16.5541 5.18583L15.9993 4.78277L15.4444 5.18583L15.6564 4.53358L15.1016 4.13052H15.7874L15.9993 3.47827Z" fill="#F0F0F0"/>
<path d="M18.1868 3.47827L18.3988 4.13052H19.0844L18.5297 4.53358L18.7416 5.18583L18.1868 4.78277L17.6319 5.18583L17.8439 4.53358L17.2891 4.13052H17.9748L18.1868 3.47827Z" fill="#F0F0F0"/>
<path d="M20.3742 3.47827L20.5861 4.13052H21.2719L20.7171 4.53358L20.9291 5.18583L20.3742 4.78277L19.8194 5.18583L20.0313 4.53358L19.4766 4.13052H20.1623L20.3742 3.47827Z" fill="#F0F0F0"/>
</g>
<defs>
<clipPath id="clip0_24085_394993">
<rect width="32" height="32" fill="white"/>
</clipPath>
</defs>
</svg>
