<svg width="32" height="32" viewBox="0 0 32 32" fill="none" xmlns="http://www.w3.org/2000/svg">
<g clip-path="url(#clip0_24085_396396)">
<path d="M32 15.9995C32 15.2922 31.9535 14.5957 31.8645 13.9126H13.9129C10.6441 10.644 4.68602 4.68629 4.68627 4.68579C-1.56209 10.9342 -1.56209 21.0648 4.68627 27.3132L13.9131 18.0865H31.8645C31.9535 17.4033 32 16.7068 32 15.9995Z" fill="black"/>
<path d="M31.9818 16.8018C31.9803 16.8323 31.9782 16.8628 31.9766 16.8933C31.9782 16.8628 31.9802 16.8323 31.9818 16.8018Z" fill="#F0F0F0"/>
<path d="M31.9553 17.1504C31.9521 17.1953 31.9489 17.2403 31.9453 17.2851C31.9489 17.2403 31.952 17.1953 31.9553 17.1504Z" fill="#F0F0F0"/>
<path d="M31.9062 14.2566C31.9121 14.3101 31.918 14.3635 31.9233 14.4172C31.918 14.3635 31.9121 14.3101 31.9062 14.2566Z" fill="#F0F0F0"/>
<path d="M31.9766 15.1074C31.9783 15.1379 31.9803 15.1684 31.9818 15.1989C31.9803 15.1684 31.9783 15.1379 31.9766 15.1074Z" fill="#F0F0F0"/>
<path d="M31.9453 14.7163C31.9489 14.7611 31.9521 14.8061 31.9553 14.851C31.952 14.8061 31.9489 14.7611 31.9453 14.7163Z" fill="#F0F0F0"/>
<path d="M31.8659 13.9142C31.8731 13.969 31.8794 14.0241 31.886 14.0791C30.9364 6.14896 24.1873 0.0012207 16.0014 0.0012207C11.583 0.0012207 7.58293 1.79216 4.6875 4.68771L13.914 13.9143H31.8659V13.9142Z" fill="#D80027"/>
<path d="M31.8659 18.087H13.914L4.6875 27.3136C7.58293 30.2091 11.583 32.0001 16.0014 32.0001C24.1873 32.0001 30.9365 25.8523 31.886 17.9221C31.8794 17.9771 31.8729 18.0322 31.8659 18.087Z" fill="#6DA544"/>
<path d="M31.9233 17.5833C31.918 17.6369 31.9121 17.6903 31.9062 17.7438C31.9121 17.6903 31.9181 17.6369 31.9233 17.5833Z" fill="#F0F0F0"/>
<path d="M31.9609 14.8506C31.967 14.9361 31.9725 15.0219 31.9772 15.1078C31.9724 15.0219 31.967 14.9361 31.9609 14.8506Z" fill="black"/>
<path d="M31.8828 14.0779C31.89 14.1372 31.8968 14.1966 31.9032 14.2561C31.8967 14.1966 31.8899 14.1373 31.8828 14.0779Z" fill="black"/>
<path d="M31.9297 14.4167C31.9394 14.5161 31.9482 14.6156 31.9562 14.7156C31.9483 14.6156 31.9395 14.516 31.9297 14.4167Z" fill="black"/>
<path d="M31.9772 16.8923C31.9724 16.9783 31.9669 17.064 31.9609 17.1496C31.9669 17.064 31.9724 16.9783 31.9772 16.8923Z" fill="black"/>
<path d="M31.9562 17.2849C31.9482 17.3847 31.9394 17.4844 31.9297 17.5836C31.9395 17.4844 31.9483 17.3847 31.9562 17.2849Z" fill="black"/>
<path d="M31.9032 17.7434C31.8968 17.8029 31.89 17.8623 31.8828 17.9217C31.8899 17.8623 31.8967 17.8029 31.9032 17.7434Z" fill="black"/>
<path d="M31.9766 15.1992C31.9822 15.3137 31.9864 15.4287 31.9897 15.5438C31.9864 15.4286 31.9823 15.3137 31.9766 15.1992Z" fill="black"/>
<path d="M31.9897 16.457C31.9864 16.5722 31.9822 16.6871 31.9766 16.8016C31.9823 16.687 31.9865 16.5722 31.9897 16.457Z" fill="black"/>
<path d="M31.9804 15.2982H13.3208L3.736 5.71484C3.42619 6.04159 3.09037 6.49784 2.88269 6.82278L12.0489 15.9938L2.875 25.1678C3.05662 25.4909 3.45231 25.9692 3.73012 26.2804L13.321 16.6895H31.9827C31.9926 16.4588 31.9958 16.227 31.9958 15.9939C31.9957 15.6815 31.9871 15.4512 31.9804 15.2982Z" fill="#FFDA44"/>
<path d="M3.88556 19.41V18.0698C5.22293 18.0698 6.31087 16.9817 6.31087 15.6445C6.31087 14.6983 5.54106 13.9286 4.59493 13.9286C3.95037 13.9286 3.42593 14.4529 3.42593 15.0976C3.42593 15.5098 3.76125 15.8452 4.1735 15.8452C4.4065 15.8452 4.59606 15.6555 4.59606 15.4225H5.93618C5.93618 16.3946 5.14543 17.1853 4.17356 17.1853C3.02237 17.1854 2.08594 16.2487 2.08594 15.0977C2.08594 13.7142 3.21156 12.5886 4.595 12.5886C6.28012 12.5886 7.65111 13.9596 7.65111 15.6447C7.65105 17.7207 5.96187 19.41 3.88556 19.41Z" fill="#FFDA44"/>
</g>
<defs>
<clipPath id="clip0_24085_396396">
<rect width="32" height="32" fill="white"/>
</clipPath>
</defs>
</svg>
