<svg width="32" height="32" viewBox="0 0 32 32" fill="none" xmlns="http://www.w3.org/2000/svg">
<path d="M30.4124 22.9567C31.4296 20.8532 32 18.4933 32 16.0002C32 13.507 31.4296 11.1472 30.4124 9.04366L16 7.65234L1.58763 9.04366C0.570438 11.1472 0 13.507 0 16.0002C0 18.4933 0.570438 20.8532 1.58763 22.9567L16 24.348L30.4124 22.9567Z" fill="#0052B4"/>
<path d="M15.9983 32C22.3416 32 27.8227 28.3085 30.4107 22.9565H1.58594C4.17394 28.3085 9.65494 32 15.9983 32Z" fill="#D80027"/>
<path d="M27.7124 19.1418L26.8674 19.8021L27.2341 20.8097L26.3449 20.2101L25.4998 20.8704L25.7953 19.8394L24.9062 19.2397L25.9781 19.2023L26.2738 18.1714L26.6407 19.1791L27.7124 19.1418Z" fill="#F0F0F0"/>
<path d="M25.5486 15.3931L24.9804 16.3026L25.6699 17.124L24.6292 16.8649L24.0608 17.7742L23.9859 16.7044L22.9453 16.4448L23.9398 16.043L23.8651 14.9731L24.5544 15.7948L25.5486 15.3931Z" fill="#F0F0F0"/>
<path d="M22.2272 12.6113L22.0044 13.6604L22.9331 14.1966L21.8666 14.3091L21.6436 15.3578L21.2073 14.3782L20.1406 14.4901L20.9377 13.7725L20.5016 12.7929L21.4303 13.329L22.2272 12.6113Z" fill="#F0F0F0"/>
<path d="M18.1612 11.1309L18.3106 12.1929L19.3667 12.379L18.4028 12.8494L18.5521 13.9114L17.8071 13.1399L16.843 13.61L17.3466 12.663L16.6016 11.8916L17.6578 12.0778L18.1612 11.1309Z" fill="#F0F0F0"/>
<path d="M13.8383 11.1309L14.3418 12.0778L15.3978 11.8915L14.653 12.6632L15.1563 13.6102L14.1924 13.1399L13.4473 13.9112L13.5968 12.8494L12.6328 12.3793L13.689 12.1929L13.8383 11.1309Z" fill="#F0F0F0"/>
<path d="M9.76819 12.6113L10.5653 13.329L11.4939 12.7929L11.0578 13.7729L11.8547 14.4904L10.7882 14.3782L10.3518 15.3578L10.1291 14.3089L9.0625 14.1969L9.99125 13.6605L9.76819 12.6113Z" fill="#F0F0F0"/>
<path d="M6.44906 15.3929L7.44363 15.7946L8.13275 14.9731L8.05819 16.0432L9.05244 16.445L8.01188 16.7043L7.93694 17.774L7.36881 16.8647L6.32812 17.124L7.0175 16.3024L6.44906 15.3929Z" fill="#F0F0F0"/>
<path d="M4.28906 19.1407L5.36106 19.178L5.72769 18.1704L6.02362 19.2014L7.09531 19.2388L6.20619 19.8386L6.50169 20.8695L5.65669 20.2092L4.7675 20.8088L5.13431 19.801L4.28906 19.1407Z" fill="#F0F0F0"/>
<path d="M30.4107 9.0435C27.8227 3.69156 22.3416 0 15.9983 0C9.65494 0 4.17394 3.69156 1.58594 9.0435H30.4107Z" fill="#FFDA44"/>
</svg>
