<svg width="32" height="32" viewBox="0 0 32 32" fill="none" xmlns="http://www.w3.org/2000/svg">
<g clip-path="url(#clip0_24085_396356)">
<path d="M16 32C24.8366 32 32 24.8366 32 16C32 7.16344 24.8366 0 16 0C7.16344 0 0 7.16344 0 16C0 24.8366 7.16344 32 16 32Z" fill="#496E2D"/>
<path d="M22.2609 16H16V32C17.8702 32 19.6651 31.6781 21.3333 31.0884L22.2609 16Z" fill="#D80027"/>
<path d="M26.6697 27.9246C29.9427 24.9949 32.0031 20.7383 32.0031 16H25.7422L26.6697 27.9246Z" fill="#FF9811"/>
<path d="M21.3359 16V31.0884C23.3233 30.3858 25.1304 29.3021 26.6693 27.9246V16H21.3359Z" fill="black"/>
<path d="M29.568 10.4343H25.3941C25.3941 9.66591 24.7711 9.04297 24.0028 9.04297C23.2344 9.04297 22.6114 9.66591 22.6114 10.4343H18.4375C18.4375 11.2027 19.1068 11.8256 19.8751 11.8256H19.8288C19.8288 12.594 20.4516 13.2169 21.2201 13.2169C21.2201 13.9853 21.8429 14.6082 22.6114 14.6082H25.3941C26.1624 14.6082 26.7854 13.9853 26.7854 13.2169C27.5538 13.2169 28.1767 12.594 28.1767 11.8256H28.1304C28.8988 11.8255 29.568 11.2027 29.568 10.4343Z" fill="#FF9811"/>
</g>
<defs>
<clipPath id="clip0_24085_396356">
<rect width="32" height="32" fill="white"/>
</clipPath>
</defs>
</svg>
