<svg width="64" height="64" viewBox="0 0 64 64" fill="none" xmlns="http://www.w3.org/2000/svg">
<path d="M7 16.5238C7 11.264 11.264 7 16.5238 7H47.4762C52.736 7 57 11.264 57 16.5238V47.4762C57 52.736 52.736 57 47.4762 57H16.5238C11.264 57 7 52.736 7 47.4762V16.5238Z" fill="black"/>
<path fill-rule="evenodd" clip-rule="evenodd" d="M28.628 28.8937V27.491C28.1269 27.4221 27.6215 27.3863 27.1154 27.384C20.926 27.384 15.8905 32.2764 15.8905 38.289C15.8905 41.9773 17.788 45.2422 20.6826 47.2165C18.7445 45.203 17.6669 42.5488 17.6685 39.7922C17.6685 33.8652 22.5607 29.0321 28.628 28.8937Z" fill="#00F2EA"/>
<path fill-rule="evenodd" clip-rule="evenodd" d="M28.8926 44.7719C31.6541 44.7719 33.9069 42.6379 34.0095 39.9783L34.0188 16.2368H38.4837C38.3883 15.7411 38.3401 15.2379 38.3395 14.7337H32.2417L32.2315 38.476C32.1297 41.1347 29.8761 43.268 27.1154 43.268C26.2866 43.2683 25.4702 43.0721 24.7372 42.6963C25.2105 43.3379 25.8343 43.8607 26.5569 44.2216C27.2794 44.5825 28.0801 44.7712 28.8926 44.7719ZM46.8241 24.2953V22.9759C45.1833 22.9773 43.5776 22.5136 42.2041 21.6415C43.4083 22.9884 45.0289 23.9196 46.8241 24.2953Z" fill="#00F2EA"/>
<path fill-rule="evenodd" clip-rule="evenodd" d="M42.2041 21.6415C40.858 20.1454 40.1165 18.2247 40.1174 16.2376L38.4837 16.2368C38.6952 17.3351 39.1339 18.381 39.7734 19.3098C40.4129 20.2385 41.2399 21.0323 42.2041 21.6415ZM27.1154 33.3084C25.7563 33.31 24.4533 33.8351 23.4923 34.7687C22.5313 35.7022 21.9907 36.9679 21.9891 38.2882C21.99 39.1964 22.2464 40.0871 22.7306 40.864C23.2148 41.6409 23.9092 42.2745 24.7372 42.6963C24.1068 41.8518 23.7663 40.8353 23.7663 39.7922C23.7676 38.4718 24.3081 37.2058 25.2691 36.2721C26.2302 35.3384 27.5333 34.8131 28.8925 34.8116C29.4207 34.8116 29.9269 34.8964 30.4051 35.0422V28.9942C29.904 28.9252 29.3986 28.8895 28.8925 28.8871C28.8035 28.8871 28.7162 28.8921 28.628 28.8937L28.628 33.5391C28.1388 33.3878 27.6287 33.31 27.1154 33.3084Z" fill="#FF004F"/>
<path fill-rule="evenodd" clip-rule="evenodd" d="M46.8241 24.2953L46.8241 28.8995C43.6616 28.8995 40.7322 27.9169 38.3395 26.249V38.2882C38.3395 44.3008 33.3048 49.1924 27.1154 49.1924C24.7236 49.1924 22.5056 48.4602 20.6826 47.2165C21.7307 48.3144 23.0009 49.1894 24.4136 49.7882C25.8263 50.3871 27.3512 50.696 28.8925 50.6956C35.082 50.6956 40.1175 45.804 40.1175 39.7922V27.753C42.5892 29.4796 45.5576 30.4069 48.6021 30.4035V24.4782C47.9916 24.4782 47.3982 24.4148 46.8241 24.2953Z" fill="#FF004F"/>
<path fill-rule="evenodd" clip-rule="evenodd" d="M38.3395 38.2882V26.249C40.8111 27.9758 43.7796 28.9032 46.8241 28.8995L46.8241 24.2953C45.0289 23.9196 43.4083 22.9884 42.2041 21.6415C41.2399 21.0323 40.4129 20.2385 39.7734 19.3098C39.1339 18.381 38.6952 17.3351 38.4837 16.2368H34.0188L34.0095 39.9783C33.9069 42.6379 31.6541 44.7719 28.8926 44.7719C28.0801 44.7712 27.2794 44.5825 26.5569 44.2216C25.8343 43.8607 25.2105 43.3379 24.7372 42.6963C23.9092 42.2745 23.2148 41.6409 22.7306 40.864C22.2464 40.0871 21.99 39.1964 21.9891 38.2882C21.9907 36.9679 22.5313 35.7022 23.4923 34.7687C24.4533 33.8351 25.7563 33.31 27.1154 33.3084C27.6427 33.3084 28.1489 33.3924 28.628 33.5391L28.628 28.8937C22.5607 29.0321 17.6685 33.8652 17.6685 39.7922C17.6685 42.6584 18.8148 45.2677 20.6826 47.2165C22.5656 48.5042 24.8126 49.1944 27.1154 49.1924C33.3048 49.1924 38.3395 44.3008 38.3395 38.2882Z" fill="white"/>
</svg>
