<svg width="64" height="64" viewBox="0 0 64 64" fill="none" xmlns="http://www.w3.org/2000/svg">
<path d="M57 13.1088C57 9.7373 54.2628 7 50.8912 7H13.1088C9.73721 7 7 9.7373 7 13.1088V50.8912C7 54.2627 9.7373 57 13.1088 57H50.8912C54.2627 57 57 54.2627 57 50.8912V13.1088Z" fill="#1777F2"/>
<path d="M40.4939 38.1607V57H31.7713V38.1607H24.6841V30.0922H31.7713V23.9427C31.7713 16.9471 35.9385 13.0829 42.3143 13.0829C45.3682 13.0829 48.5625 13.628 48.5625 13.628V20.4972H45.0428C41.5753 20.4972 40.4939 22.6488 40.4939 24.8562V30.0922H48.2354L46.9979 38.1607H40.4939Z" fill="white"/>
</svg>
