<svg width="64" height="64" viewBox="0 0 64 64" fill="none" xmlns="http://www.w3.org/2000/svg">
<path fill-rule="evenodd" clip-rule="evenodd" d="M57 19.5C57 12.5975 51.4025 7 44.5 7C36.865 7 27.135 7 19.5 7C12.5975 7 7 12.5975 7 19.5C7 27.135 7 36.865 7 44.5C7 51.4025 12.5975 57 19.5 57C27.135 57 36.865 57 44.5 57C51.4025 57 57 51.4025 57 44.5C57 36.865 57 27.135 57 19.5Z" fill="url(#paint0_radial_11_286)"/>
<path d="M39.395 14.5125C44.6225 14.5625 49.435 19.05 49.4875 24.605C49.505 29.535 49.505 34.465 49.4875 39.395C49.4375 44.6025 44.95 49.435 39.395 49.4875C34.465 49.505 29.535 49.505 24.605 49.4875C19.375 49.4375 14.565 44.95 14.5125 39.395C14.495 34.465 14.495 29.535 14.5125 24.605C14.56 19.3725 19.0375 14.565 24.605 14.5125C29.535 14.495 34.465 14.495 39.395 14.5125ZM24.6725 16.875C20.615 16.8875 16.915 20.405 16.875 24.62C16.86 29.54 16.86 34.46 16.875 39.38C16.9125 43.3925 20.345 47.085 24.62 47.125C29.54 47.14 34.46 47.14 39.38 47.125C43.4025 47.0875 47.085 43.655 47.125 39.38C47.14 34.46 47.14 29.54 47.125 24.62C47.0875 20.58 43.5875 16.915 39.38 16.875C34.4775 16.86 29.575 16.875 24.6725 16.875Z" fill="white"/>
<path d="M32.06 23.25C36.105 23.2875 39.875 26.4075 40.615 30.405C41.1425 33.255 40.1475 36.345 38.0475 38.35C35.71 40.575 32.0925 41.37 28.9925 40.235C25.5275 38.9675 23.09 35.315 23.2525 31.615C23.45 27.195 27.355 23.265 32 23.25C32.02 23.25 32.04 23.25 32.06 23.25ZM31.96 25.6175C29.0725 25.645 26.35 27.835 25.75 30.68C25.1425 33.5575 26.7975 36.75 29.515 37.8975C32.4825 39.1525 36.315 37.745 37.7475 34.815C39.23 31.7875 37.8325 27.675 34.7025 26.2125C33.85 25.815 32.9025 25.615 31.96 25.6175Z" fill="white"/>
<path fill-rule="evenodd" clip-rule="evenodd" d="M43.25 22.5675C43.25 22.085 43.0575 21.6225 42.7175 21.2825C42.3775 20.9425 41.915 20.75 41.4325 20.75C41.395 20.75 41.355 20.75 41.3175 20.75C40.835 20.75 40.3725 20.9425 40.0325 21.2825C39.6925 21.6225 39.5 22.085 39.5 22.5675C39.5 22.5875 39.5 22.605 39.5 22.625C39.5 23.1225 39.6975 23.6 40.05 23.95C40.4 24.3025 40.8775 24.5 41.375 24.5C42.41 24.5 43.25 23.66 43.25 22.625C43.25 22.605 43.25 22.5875 43.25 22.5675Z" fill="white"/>
<defs>
<radialGradient id="paint0_radial_11_286" cx="0" cy="0" r="1" gradientUnits="userSpaceOnUse" gradientTransform="translate(2 60.5) scale(83.799)">
<stop stop-color="#FF8100"/>
<stop offset="0.19" stop-color="#FF7209"/>
<stop offset="0.32" stop-color="#F55E16"/>
<stop offset="0.48" stop-color="#D92938"/>
<stop offset="1" stop-color="#9100FF"/>
</radialGradient>
</defs>
</svg>
