<svg width="64" height="64" viewBox="0 0 64 64" fill="none" xmlns="http://www.w3.org/2000/svg">
<path d="M56.9922 16.8155C55.5764 18.8888 53.8628 20.6553 51.8515 22.1141C51.8731 22.4093 51.8839 22.8533 51.8839 23.4461C51.8839 26.1962 51.482 28.9396 50.678 31.6761C49.8741 34.413 48.6532 37.04 47.0157 39.5573C45.3779 42.0746 43.4274 44.3011 41.1645 46.2364C38.9014 48.172 36.1729 49.7162 32.9787 50.8693C29.7845 52.0223 26.3697 52.5992 22.7341 52.5992C17.0036 52.5992 11.7588 51.0655 7 47.9988C7.73889 48.0826 8.56322 48.1245 9.47293 48.1245C14.2317 48.1245 18.4722 46.6655 22.1942 43.7476C19.9745 43.7042 17.9862 43.0222 16.2294 41.7011C14.4727 40.3803 13.2667 38.6938 12.6116 36.6422C13.3099 36.7476 13.9555 36.8004 14.5483 36.8004C15.458 36.8004 16.3566 36.6839 17.2446 36.451C14.876 35.9639 12.9146 34.7851 11.3609 32.9146C9.80718 31.0443 9.03032 28.8718 9.03032 26.3979V26.2718C10.4678 27.0758 12.012 27.5089 13.6633 27.5713C12.2666 26.6402 11.1565 25.4247 10.3336 23.9251C9.51064 22.4256 9.09773 20.7974 9.0953 19.0406C9.0953 17.1783 9.56069 15.4554 10.4921 13.8718C13.0502 17.0226 16.1644 19.544 19.8351 21.4362C23.5056 23.3283 27.4336 24.3799 31.6185 24.5911C31.4507 23.7871 31.3667 23.0048 31.3667 22.2442C31.3667 19.4101 32.3655 16.9942 34.3633 14.9965C36.361 12.9988 38.777 12 41.6112 12C44.5726 12 47.0683 13.0788 49.0986 15.2361C51.405 14.7921 53.5732 13.9678 55.6032 12.7633C54.821 15.1941 53.3201 17.0769 51.1003 18.4112C53.0683 18.2001 55.0349 17.671 57 16.8237L56.9922 16.8155Z" fill="#00ACED"/>
</svg>
